<svg id="Слой_1" data-name="Слой 1" xmlns="http://www.w3.org/2000/svg" viewBox="0 0 634.21 634.21"><defs><style>.cls-1{fill:#fff;}</style></defs><title>нерв</title><circle class="cls-1" cx="317.11" cy="317.11" r="317.11"/><path d="M28.62,1148.78c.28,2.58.48,5.15.68,7.71s.43,5.14.54,7.7c.25,5.12.58,10.24.78,15.36l.26,7.66.16,7.66c.14,5.11.13,10.2.18,15.3L28,1202c2.85,2,5.63,4,8.44,6s5.63,4,8.39,6.12c5.55,4.13,11.11,8.24,16.56,12.47l8.22,6.3,8.13,6.42c5.44,4.24,10.78,8.61,16.13,13l-2-1.5-.63-.38-.13-.08s0,0,0,0l.46.1.3.08.37.07c.24.05.5.1.8.14,1.11.18,2.49.32,3.88.42a52.24,52.24,0,0,0,9.27-.44,98.09,98.09,0,0,0,19.69-4.64,20.06,20.06,0,0,0,2.15-.86c.68-.31,1.41-.57,2.06-.87a34.52,34.52,0,0,0,3.56-1.92,24.56,24.56,0,0,0,2.86-2c.35-.36.7-.71,1.08-1s.55-.72.87-1a13.8,13.8,0,0,0,2.32-4.63,24.11,24.11,0,0,0,.43-7.11c-.22-1.43-.22-2.84-.58-4.4-.15-.76-.26-1.55-.42-2.3l-.6-2.16a40.57,40.57,0,0,0-1.51-4.63c-.52-1.58-1.29-3.26-2-4.93-2.77-6.74-6.32-13.59-9.9-20.5l-2.79-5.15-2.86-5.16q-2.85-5.19-5.84-10.33c-2-3.43-4-6.9-6-10.32l-6.07-10.23,1.78,1.75c-3.5-3.19-7-6.45-10.4-9.71s-6.84-6.6-10.26-9.9l-10.08-10.16c-1.68-1.68-3.29-3.46-4.95-5.19s-3.28-3.49-4.88-5.29l1.06-1.43,22.87,16.63c7.62,5.56,15.27,11.06,22.86,16.66l.15.11.11.15c9.83,12.89,19.14,26.12,27.77,39.85a241.39,241.39,0,0,1,11.92,21.26c.88,1.85,1.8,3.67,2.54,5.59a57.17,57.17,0,0,1,2.2,5.77l1,3c.27,1,.48,2,.72,3,.53,2,.76,4.08,1.09,6.13a41.54,41.54,0,0,1-.39,12.58,30.06,30.06,0,0,1-5.22,11.63c-.68.82-1.28,1.72-2,2.48l-2.27,2.24a41.22,41.22,0,0,1-5.08,3.77,51.57,51.57,0,0,1-5.48,3.05c-.94.45-1.91.82-2.86,1.23a30.89,30.89,0,0,1-2.9,1.11c-1.95.67-3.9,1.35-5.9,1.85-1,.27-2,.56-3,.81l-3,.67a97,97,0,0,1-12.15,2,66.66,66.66,0,0,1-12.4.16,46.92,46.92,0,0,1-6.2-1c-.52-.11-1-.24-1.54-.39s-1-.29-1.54-.47-1-.36-1.52-.56a14.2,14.2,0,0,1-1.59-.77L83,1265l-.12-.11-62.08-54.65-.53-.47.07-.69L21.91,1194l1.64-15.11,3.3-30.23Z" transform="translate(134.2 -955.52)"/><path d="M20.08,1209.14a10,10,0,0,1-1.89-.06c-.59-.07-1.16-.2-1.77-.33a26.66,26.66,0,0,1-3.24-1,41.22,41.22,0,0,1-5.7-2.73,53,53,0,0,1-9.16-6.86A58.54,58.54,0,0,1-14,1181.44a60.36,60.36,0,0,1-5.92-19.51,61.23,61.23,0,0,1-.3-10.89,57.68,57.68,0,0,1,.71-5.82c.16-1,.39-2,.61-3l.4-1.55.22-.76c.05-.32.24-.37.32-.65l1.2-1.31a8.59,8.59,0,0,1,.9,1.23l.65,1.1,1.24,2.18,2.4,4.39L-7,1155.7l8.93,17.78c2.9,6,5.93,11.86,9,17.72,1.52,2.93,3.09,5.84,4.75,8.67.81,1.43,1.63,2.84,2.53,4.19a18.71,18.71,0,0,0,2.94,3.65Z" transform="translate(134.2 -955.52)"/><path d="M-20.27,1222.33a32.9,32.9,0,0,1,1.21-4.74,33.07,33.07,0,0,1,1.51-3.84,30.82,30.82,0,0,1,1.73-3.2,24.07,24.07,0,0,1,1.89-2.72,20.78,20.78,0,0,1,9-6.65A20.32,20.32,0,0,1,6,1200.26a26.65,26.65,0,0,1,6.3,2,35.6,35.6,0,0,1,7.06,4.23l.3-.08a2.32,2.32,0,0,0-.87,1.1,1.55,1.55,0,0,0,0,1.11,1.15,1.15,0,0,0,.59.63.64.64,0,0,0,.68-.1l1.06-1.43a1.52,1.52,0,0,1,.64,1.53,1.6,1.6,0,0,1-1.17,1.27l.1,0c-3.27,1.42-6.59,2.69-9.9,4s-6.69,2.4-10,3.56-6.74,2.23-10.16,3.21l-5.12,1.48c-1.73.43-3.44.92-5.18,1.3Z" transform="translate(134.2 -955.52)"/><path d="M66.67,1247.49a65,65,0,0,1,12.7,17.33c.84,1.62,1.56,3.31,2.33,5,.35.86.65,1.74,1,2.62s.64,1.77.91,2.69.58,1.83.82,2.77l.62,2.87a28.11,28.11,0,0,1,.51,3c.13,1,.31,2,.38,3,.07,2.09.2,4.23.07,6.36,0,1.06-.13,2-.2,3l-.36,2.89a94.26,94.26,0,0,1-2.11,11c-.43,1.78-.93,3.52-1.41,5.27s-1.1,3.45-1.7,5.16-1.23,3.39-1.86,5.09-1.39,3.33-2.13,5a116.11,116.11,0,0,1-24.92,36.27,85.9,85.9,0,0,1-18.76,13.73,71.9,71.9,0,0,1-11.08,4.62,63,63,0,0,1-11.83,2.46L18,1376.93c-.59,3.16-1.14,6.31-1.86,9.47s-1.43,6.32-2.2,9.48l-1.28,4.74-1.41,4.73c-.51,1.58-1,3.16-1.58,4.74s-1.1,3.16-1.78,4.74H6.09l-.33-18.95c0-3.16-.13-6.32-.13-9.48l-.06-9.47v-1.09l1.08-.28a60.62,60.62,0,0,0,17.53-7.91A85.41,85.41,0,0,0,38.88,1355a120,120,0,0,0,12-15.35,154.5,154.5,0,0,0,9.92-16.86,156,156,0,0,0,7.79-18c1.1-3.07,2.11-6.18,2.93-9.32.4-1.57.77-3.14,1-4.71s.39-3.17.57-4.75a70.05,70.05,0,0,0-2-19.23c-.71-3.18-1.61-6.33-2.63-9.43s-2.17-6.19-3.49-9.14Z" transform="translate(134.2 -955.52)"/><path d="M153.43,1209.19a97.21,97.21,0,0,0,6.44,8.91l3.43,4.31,3.51,4.23c4.78,5.55,9.64,11,14.62,16.09a127.58,127.58,0,0,0,15.36,13.73c.65.47,1.29.86,1.92,1.29l.95.64.23.16,0,0,.07,0c.39.06,1.45.36,2.68.55s2.69.36,4.21.49,3.11.21,4.74.24c3.26.08,6.66-.06,10.09-.2s6.9-.4,10.39-.74c7-.69,14-1.46,21-2.54s14.07-2.15,21.06-3.51,14-2.68,20.9-4.29,13.8-3.21,20.55-5.12,13.45-3.85,19.89-6.17c3.22-1.17,6.39-2.35,9.48-3.59,1.53-.64,3.05-1.28,4.54-1.95l2.2-1,1.08-.52.54-.26c.18-.09.27-.16.42-.24,4.42-2.38,7.92-5.09,10.42-8.94.29-.5.59-1,.9-1.49a15,15,0,0,0,.81-1.6,27.73,27.73,0,0,0,1.47-3.45,39,39,0,0,0,1.78-8.06,74.25,74.25,0,0,0-.16-18.75,147.25,147.25,0,0,0-3.91-20c-.87-3.37-1.92-6.71-3-10.06-.53-1.68-1.09-3.34-1.67-5l-.89-2.45-.88-2.31-1.6-4.23.85-2.09,4.93-12.11c1.71-4,3.33-8.06,5.14-12l5.32-12c1.91-4,3.69-8,5.7-11.9l1.72.47-13.41,50.18-.12-1a163.71,163.71,0,0,1,9.13,20.4,144.62,144.62,0,0,1,6.24,21.47,87.47,87.47,0,0,1,1.85,22.4,56.52,56.52,0,0,1-1.73,11.23,43.86,43.86,0,0,1-1.83,5.43,41,41,0,0,1-2.48,5.18,42.31,42.31,0,0,1-16.37,15.79,151.45,151.45,0,0,1-20.46,9.09,298.22,298.22,0,0,1-42.9,11.91,420.82,420.82,0,0,1-44,6.66c-7.38.71-14.79,1.21-22.21,1.4a170.16,170.16,0,0,1-22.33-.72,62.57,62.57,0,0,1-11.13-2.12,23.51,23.51,0,0,1-5.4-2.36,22.82,22.82,0,0,1-2.32-1.81c-.72-.61-1.46-1.2-2.15-1.84a123.12,123.12,0,0,1-14.8-16.78c-4.45-5.95-8.57-12.13-12.42-18.47-1.92-3.18-3.78-6.38-5.52-9.67a78,78,0,0,1-4.71-10.18Z" transform="translate(134.2 -955.52)"/><path d="M319.46,1165.84a70.38,70.38,0,0,1,7.56-11.28,107.66,107.66,0,0,1,8.57-9.41,121.42,121.42,0,0,1,9.27-8.11,117.6,117.6,0,0,1,9.83-7.1l-5,23a144,144,0,0,1-10.83-14,129,129,0,0,1-9-15.38,118.85,118.85,0,0,1-6.92-17,79.84,79.84,0,0,1-3.84-19.24l1.42-1.07c3.66,4.65,7.37,9.25,11,13.92l10.82,14,10.67,14.15c3.58,4.7,7.07,9.47,10.58,14.22l1.18,1.6-1.74.94-10.59,5.69c-3.53,1.9-7.1,3.73-10.65,5.6s-7.08,3.75-10.67,5.54l-10.73,5.44Z" transform="translate(134.2 -955.52)"/><path d="M44.45,1349.89a21.05,21.05,0,0,1,1.51-2L47.6,1346c1.11-1.16,2.28-2.34,3.48-3.38a83.41,83.41,0,0,1,7.51-5.95c1.29-1,2.61-1.83,3.95-2.67s2.68-1.75,4.07-2.5l4.18-2.34c1.42-.72,2.87-1.4,4.31-2.11a101.41,101.41,0,0,1,18.51-6.59c1.67-.38,3.36-.73,5-1,.84-.17,1.72-.28,2.61-.38l2.66-.32c.9-.08,1.75-.24,2.7-.25s1.88,0,2.82,0h2.83c1,.07,2,.17,3,.26l3,.32c1,.11,2.11.37,3.16.58a49.19,49.19,0,0,1,6.32,2,43.26,43.26,0,0,1,11.48,6.66,55.25,55.25,0,0,1,8.72,8.88,74.37,74.37,0,0,1,6.08,9.53,83.63,83.63,0,0,1,4.29,9.4c.62,1.54,1.19,3.06,1.73,4.56s1,3,1.45,4.48c1.89,5.87,3.29,11.51,4.76,16.48l1.17,4,0,.43-.34,6.88-.56,6.85c-.45,4.57-1,9.14-1.72,13.71s-1.6,9.16-2.7,13.73a98.58,98.58,0,0,1-4.23,13.66h-1.78c-.08-4.46-.3-8.93-.55-13.4s-.59-8.93-.88-13.39q-.87-13.4-2.06-26.78l.12.5c-5-11-8.35-22.37-14.07-32.51a58.62,58.62,0,0,0-4.76-7.2,38.76,38.76,0,0,0-5.83-6.17,29.48,29.48,0,0,0-15.27-6.66,66,66,0,0,0-17.31,0,138,138,0,0,0-17.24,3.44L74,1339.83l-4.22,1.31c-2.79.92-5.6,1.81-8.36,2.85-1.39.49-2.75,1-4.12,1.58s-2.72,1.12-4.07,1.71a47.22,47.22,0,0,0-7.68,4Z" transform="translate(134.2 -955.52)"/><path d="M262,1332.59c-.43-.11-.94-.24-1.42-.33s-1-.18-1.43-.27-1-.11-1.44-.16a11.37,11.37,0,0,0-1.44-.08l-1.4-.06-1.41,0c-.9,0-1.85.09-2.75.16a63.91,63.91,0,0,0-10.54,2,131.07,131.07,0,0,0-19.87,7.59c-1.63.79-3.22,1.5-4.85,2.33l-4.94,2.42c-1.59.86-3.18,1.71-4.78,2.49s-3.1,1.67-4.58,2.55a95.61,95.61,0,0,0-8.42,5.31c-1.36.87-2.54,1.82-3.78,2.73-.61.46-1.13,1-1.7,1.44l-.85.71c-.26.25-.5.51-.76.75-.51.48-1.1.93-1.56,1.43l-1.45,1.48-1.3,1.55c-.46.5-.77,1.08-1.22,1.58a39.34,39.34,0,0,0-4.22,7c-.31.65-.68,1.36-.82,1.79l-.31.74-.17.38c-.05.14-.1.36-.15.53-.21.75-.41,1.49-.67,2.23s-.44,1.66-.66,2.49c-.47,1.66-.81,3.48-1.24,5.29s-.82,3.68-1.24,5.52c-1.66,7.49-3.32,15.23-5.33,23-1,3.9-2.08,7.82-3.3,11.75-.58,2-1.23,3.94-1.89,5.92s-1.37,4-2.21,5.94l-1.78,0q-.41-11.91-.44-23.8c.07-7.93.27-15.87.75-23.82.26-4,.54-8,1.06-11.93.14-1,.23-2,.41-3l.53-3c.15-1,.49-2,.73-3a25,25,0,0,1,.94-2.93,50.67,50.67,0,0,1,13.46-20.25,64.23,64.23,0,0,1,9.71-7.33,96.48,96.48,0,0,1,10.61-5.77c1.82-.86,3.67-1.62,5.51-2.43l5.59-2.18,5.67-2c1.9-.62,3.84-1.15,5.75-1.73a88.62,88.62,0,0,1,23.82-3.52,53.24,53.24,0,0,1,12,1.66c1,.3,2,.53,2.92.92l1.43.54c.47.2.93.43,1.4.64a20.63,20.63,0,0,1,5.25,3.37Z" transform="translate(134.2 -955.52)"/><path d="M88.85,1452.65a35.94,35.94,0,0,1,3.47-4.94,47,47,0,0,1,3.66-4c.62-.59,1.25-1.14,1.88-1.71s1.27-1,1.91-1.55a38.55,38.55,0,0,1,3.88-2.73,46.71,46.71,0,0,1,16.41-6.34,47.34,47.34,0,0,1,17.6,0,38.73,38.73,0,0,1,4.61,1.14c1.55.45,3.12,1,4.71,1.66a49.88,49.88,0,0,1,4.84,2.36,37.19,37.19,0,0,1,5,3.33l.33,1.75c-2.8.72-5.61,1.34-8.42,2l-8.45,1.84c-5.64,1.2-11.31,2.25-17,3.38s-11.35,2.06-17,3l-8.54,1.35c-2.86.39-5.71.83-8.58,1.16Z" transform="translate(134.2 -955.52)"/><path d="M186.31,1456.48a34.43,34.43,0,0,1-3.79,2.79,37.42,37.42,0,0,1-3.33,1.91c-.53.26-1,.47-1.54.71s-1,.37-1.47.56a17.71,17.71,0,0,1-2.76.79,13.06,13.06,0,0,1-8.92-1,13.24,13.24,0,0,1-5.94-6.73,17.11,17.11,0,0,1-1-2.71,27.78,27.78,0,0,1-.72-3.18,37.08,37.08,0,0,1-.33-8.49l.81-1.59c1.34.46,2.61,1,3.92,1.53l3.84,1.7c2.54,1.15,5,2.43,7.53,3.65s4.94,2.61,7.35,4l3.61,2.13c1.17.77,2.37,1.49,3.52,2.31Z" transform="translate(134.2 -955.52)"/><path d="M92.68,1127.45a38.32,38.32,0,0,1,.84,4.54c.18,1.37.24,2.57.28,3.73,0,.57,0,1.09,0,1.64s-.08,1-.11,1.5a16.92,16.92,0,0,1-.44,2.7,11.22,11.22,0,0,1-4.4,7,11.43,11.43,0,0,1-8.09,1.64,17.19,17.19,0,0,1-2.68-.54,27.84,27.84,0,0,1-3-1,35,35,0,0,1-3.38-1.56,36.46,36.46,0,0,1-4-2.36l-1-1.47c.93-.88,1.92-1.67,2.87-2.51l3-2.37c2-1.56,4.08-3,6.12-4.49s4.19-2.83,6.35-4.16l3.26-2c1.12-.6,2.21-1.25,3.36-1.81Z" transform="translate(134.2 -955.52)"/><path d="M-26.56,1369.35a35.87,35.87,0,0,1,2.93-3.72,35.37,35.37,0,0,1,2.74-2.74c.44-.39.87-.73,1.31-1.1s.85-.62,1.28-.94a18.4,18.4,0,0,1,2.49-1.51,13.66,13.66,0,0,1,9.06-1.48A13.85,13.85,0,0,1,1,1362.73a18.83,18.83,0,0,1,1.73,2.35A30.5,30.5,0,0,1,4.39,1368a38.35,38.35,0,0,1,1.48,3.56,37.34,37.34,0,0,1,1.29,4.53l-.35,1.75c-1.44-.08-2.87-.28-4.3-.41l-4.26-.6c-2.84-.41-5.65-1-8.47-1.47s-5.61-1.18-8.39-1.88l-4.17-1.08c-1.37-.42-2.76-.79-4.13-1.26Z" transform="translate(134.2 -955.52)"/><path d="M284.47,1390.67c-1.11-3-1.92-5.88-2.7-8.8s-1.38-5.82-1.94-8.71l-.78-4.34-.65-4.33c-.24-1.44-.36-2.87-.55-4.31s-.36-2.88-.46-4.31l3.09,9.08c-2.21-1.55-4.45-3-6.55-4.66-1.06-.8-2.15-1.57-3.23-2.33s-2.11-1.59-3.16-2.38c-4.25-3.11-8.35-6.3-12.44-9.49-2-1.61-4.1-3.16-6.09-4.8s-4-3.23-6.11-4.86-4.1-3.33-6.18-5.08c-1.08-.89-2.12-1.81-3.19-2.73s-2.19-2-3.35-3l-1.76-1.71-.87-.88-1-1c-.63-.7-1.23-1.34-1.86-2.09s-1.31-1.7-1.94-2.55l-.47-.64-.49-.78-.94-1.57c-.3-.53-.6-1-.88-1.6s-.53-1.22-.78-1.84a22.41,22.41,0,0,1-1.25-3.76c-.16-.65-.3-1.29-.43-1.94l-.19-1c0-.18-.06-.28-.09-.53l-.09-.79a27.59,27.59,0,0,1-.13-3.13c.07-1,.18-1.93.34-2.88a20.13,20.13,0,0,1,.67-2.52c.13-.39.26-.82.41-1.18l.45-1a25.7,25.7,0,0,1,4.11-6.31,31.22,31.22,0,0,1,4.27-4c.71-.57,1.42-1.09,2.12-1.57s1.39-1,2.09-1.39a68,68,0,0,1,16.91-7.14,69.6,69.6,0,0,1,17.58-2.66l.77,1.6c-4.78,2.47-9.47,5.2-14,8.12a103.61,103.61,0,0,0-12.88,9.57,35.4,35.4,0,0,0-5.25,5.74c-1.42,2-2.44,4.39-2.1,6.39a14.83,14.83,0,0,0,3.14,6.48l1.24,1.44c.45.46.93.91,1.4,1.36.9.93,2,1.76,2.95,2.64,4.1,3.42,8.49,6.67,12.74,10.08,2.14,1.69,4.21,3.47,6.32,5.2s4.16,3.54,6.19,5.37Q278.78,1344,289.9,1356l.47.52-.07.66c-.66,5.61-1.25,11.22-2,16.83l-2.09,16.82Z" transform="translate(134.2 -955.52)"/><path d="M329.43,1358.8a33.94,33.94,0,0,1-2.63,4.16,35.35,35.35,0,0,1-2.61,3.17c-.43.46-.87.87-1.3,1.3s-.86.76-1.29,1.15a20.83,20.83,0,0,1-2.58,1.91,18,18,0,0,1-10.23,3A18.22,18.22,0,0,1,298.7,1370a22.15,22.15,0,0,1-2.5-2,30.39,30.39,0,0,1-2.48-2.56,35.07,35.07,0,0,1-2.47-3.26,32.4,32.4,0,0,1-2.45-4.25l0-1.78c1.7-.16,3.4-.21,5.09-.32l5.09-.14c3.38-.08,6.77,0,10.16,0s6.77.2,10.15.42l5.08.35c1.69.19,3.38.31,5.07.55Z" transform="translate(134.2 -955.52)"/><path d="M118.73,1443.86a33.34,33.34,0,0,1-5.15,1.26,39.92,39.92,0,0,1-4.52.47c-.72,0-1.4,0-2.09,0s-1.33-.07-2-.1a28.12,28.12,0,0,1-15.76-6.08,27.51,27.51,0,0,1-7.94-10.63,25.08,25.08,0,0,1-1.26-3.55,36.7,36.7,0,0,1-.93-4,40.25,40.25,0,0,1-.48-4.51,34.48,34.48,0,0,1,.14-5.29l1.12-1.38c1.8,1.19,3.52,2.47,5.27,3.71l5.16,3.85c3.42,2.59,6.74,5.29,10.12,7.93s6.63,5.44,9.87,8.25l4.84,4.24c1.57,1.46,3.18,2.88,4.72,4.39Z" transform="translate(134.2 -955.52)"/><path d="M91.28,1126.74a33.09,33.09,0,0,1-4.29-2.66,40,40,0,0,1-3.29-2.69c-.48-.45-.91-.91-1.37-1.36s-.81-.9-1.21-1.35a22,22,0,0,1-2-2.73,20.87,20.87,0,0,1-3.51-11,21.12,21.12,0,0,1,3-11.18,22.85,22.85,0,0,1,1.89-2.83,32,32,0,0,1,2.43-2.84,37.15,37.15,0,0,1,3.13-2.86,34.82,34.82,0,0,1,4.12-2.88l1.78,0c.25,1.85.39,3.69.58,5.54l.4,5.54c.24,3.7.32,7.4.49,11.09s.14,7.4.09,11.11l-.1,5.55c-.1,1.86-.14,3.71-.29,5.56Z" transform="translate(134.2 -955.52)"/><path d="M193,1296.13a13.66,13.66,0,0,1-2.7,7.63,32.13,32.13,0,0,1-5.8,6,48.94,48.94,0,0,1-7.25,5,48.22,48.22,0,0,1-8.45,3.88,43.29,43.29,0,0,1-9.64,2.1,31.12,31.12,0,0,1-10.79-.94,26.78,26.78,0,0,1-11.5-6.45,26.17,26.17,0,0,1-2.73-3.13,22,22,0,0,1-2.37-4c-.34-.75-.67-1.48-1-2.27s-.51-1.66-.71-2.5a17,17,0,0,1-.44-2.6c-.09-.89-.17-1.78-.18-2.67s.09-1.78.19-2.67a15.86,15.86,0,0,1,.44-2.6c.2-.84.45-1.68.72-2.5s.62-1.52,1-2.26a22.56,22.56,0,0,1,2.38-4,25.57,25.57,0,0,1,14.24-9.53,31.43,31.43,0,0,1,10.76-.92,44.21,44.21,0,0,1,9.63,2.08,49.56,49.56,0,0,1,8.44,3.86,48.18,48.18,0,0,1,7.24,4.92,32.46,32.46,0,0,1,5.82,6A13.66,13.66,0,0,1,193,1296.13Zm-1.79,0a9.38,9.38,0,0,0-2.66-6,18.78,18.78,0,0,0-5.76-4,34.81,34.81,0,0,0-27.71.57,17.92,17.92,0,0,0-5.47,3.93,7.7,7.7,0,0,0,0,11,18.09,18.09,0,0,0,5.47,3.93,33.28,33.28,0,0,0,13.72,3.16,32.92,32.92,0,0,0,14-2.59,18.78,18.78,0,0,0,5.76-4A9.38,9.38,0,0,0,191.2,1296.13Z" transform="translate(134.2 -955.52)"/></svg>