<svg id="Слой_1" data-name="Слой 1" xmlns="http://www.w3.org/2000/svg" viewBox="0 0 634.21 634.21"><defs><style>.cls-1{fill:#fff;}</style></defs><title>Безымянный-2</title><circle class="cls-1" cx="317.11" cy="317.11" r="317.11"/><path d="M1169,430.39c-8.33-1-16.73-1.64-25.09-1.84s-16.71-.22-25,.28-16.51,1.28-24.6,2.59a175,175,0,0,0-23.74,5.49c-15.38,4.63-29.84,11.61-41.45,21.56a93.83,93.83,0,0,0-8.2,7.86,85,85,0,0,0-7.14,8.73,89.88,89.88,0,0,0-5.94,9.58l-3.15,5.71-3.23,5.62c-4.32,7.39-8.59,14.51-12.45,21.64a170.74,170.74,0,0,0-10.12,21.21A74.27,74.27,0,0,0,974,559.51c0,1.65-.06,3.23-.07,4.91l.16,2.69c0,.9.17,1.8.25,2.7a88.18,88.18,0,0,0,1.85,10.81c3.37,14.41,9.89,28.59,18.32,41.61A174.19,174.19,0,0,0,1008.32,641a139.1,139.1,0,0,0,16.06,16.21,110.4,110.4,0,0,0,18.51,12.39,174.78,174.78,0,0,0,21.24,9.55,188.77,188.77,0,0,0,45.49,11.11,102.42,102.42,0,0,0,22.23.25,51,51,0,0,0,9.6-2,19.34,19.34,0,0,0,6.37-3.32c1.29-1.05,3.06-3.66,4.52-6.64l.58-1.12.52-1.21c.35-.82.72-1.61,1-2.46.63-1.73,1.32-3.43,1.9-5.26a165.15,165.15,0,0,0,5.73-22.92c1.47-7.94,2.58-16,3.42-24.16s1.35-16.34,1.72-24.52.4-16.38-.08-24.39a106.39,106.39,0,0,0-1.24-11.64l-.23-1.38-.29-1.28-.29-1.28-.34-1.11-.16-.56a3.21,3.21,0,0,0-.17-.43c-.12-.27-.21-.54-.31-.83l-1.42-2.68c-3.87-7.2-8.16-14.51-12.41-21.75s-8.64-14.46-12.87-21.76L1124.58,486c-4.22-7.33-8.54-14.59-12.71-22l1.31-.92q14.52,20.73,28.85,41.58,7.15,10.44,14.23,20.93c4.69,7,9.39,14,13.85,21.23l1.65,2.72a22.44,22.44,0,0,1,1.39,3l.57,1.54.45,1.56.43,1.57.35,1.57a111,111,0,0,1,2,12.62c.9,8.45,1.21,16.92,1.27,25.38a339.17,339.17,0,0,1-3.52,50.63,182.15,182.15,0,0,1-5.33,24.9,85.46,85.46,0,0,1-4.46,12,36.72,36.72,0,0,1-7.21,10.91,32.17,32.17,0,0,1-11.28,6.74,61.41,61.41,0,0,1-12.59,3,116.85,116.85,0,0,1-25.56.25,185.73,185.73,0,0,1-25.15-4.13,202.93,202.93,0,0,1-24.4-7.28c-15.91-5.87-31.39-13.51-44.62-24.47a152.47,152.47,0,0,1-17.91-18.21,187.79,187.79,0,0,1-15-20.59c-9-14.38-16.22-30.11-19.81-46.85a100.1,100.1,0,0,1-1.92-12.67c-.07-1.07-.2-2.13-.23-3.2l-.12-3.21c0-2.16.11-4.32.22-6.47a86.54,86.54,0,0,1,6.49-24.8c6.53-15.79,16-30,24.9-44.23l3.32-5.36,3.21-5.42a101.25,101.25,0,0,1,7.15-10.63,97.53,97.53,0,0,1,18.1-18c13.55-10.46,29.6-17.22,46.06-21.28a203.78,203.78,0,0,1,50.47-5.23c8.46.11,16.92.65,25.33,1.56a234.75,234.75,0,0,1,25.07,4Z" transform="translate(-727.55 -200.59)"/><path d="M1108.25,610.35a9.81,9.81,0,0,0,.77-1.59c.25-.57.47-1.16.68-1.77.42-1.2.75-2.46,1.06-3.69a67.08,67.08,0,0,0,1.58-7.47,84.78,84.78,0,0,0,1.06-14.65,53.31,53.31,0,0,0-1.83-13.38,40.71,40.71,0,0,0-2.13-5.81,34.57,34.57,0,0,0-2.92-5.09,25.23,25.23,0,0,0-1.71-2.29,13.44,13.44,0,0,0-.94-1.06l-.48-.52a6.53,6.53,0,0,0-.53-.56c-1.63-1.61-3.12-3.38-4.82-4.82s-3.38-2.9-5-4.34l-2.63-2c-.88-.65-1.84-1.25-2.74-1.87s-2-1.21-2.88-1.85-2.06-1.27-3.08-1.9l-3.4-2.07-1.87-1.17c-.32-.2-.6-.37-1-.61l-1-.7c-.69-.47-1.34-.93-2-1.46l-2.17-1.77a28.66,28.66,0,0,1-2.18-2l-1.08-1.11a12.28,12.28,0,0,1-1.06-1.18c-.69-.86-1.36-1.73-2-2.61a11.34,11.34,0,0,1-.91-1.38l-.83-1.43a33.5,33.5,0,0,1-2.68-5.84,20.88,20.88,0,0,1-.85-2.87l-.68-2.82a16,16,0,0,1-.28-1.65l-.22-1.77c-.13-1.19-.11-2.28-.14-3.43a38.13,38.13,0,0,1,2.17-12.09,48.47,48.47,0,0,1,2.17-5.2c.85-1.6,1.69-3.22,2.66-4.68s2-2.9,3-4.3c.52-.69,1.08-1.32,1.63-2s1.11-1.3,1.71-1.88A64.39,64.39,0,0,1,1086,457.75c1.4-.73,2.77-1.5,4.18-2.17s2.8-1.35,4.25-1.88,2.87-1.11,4.32-1.57,2.9-.94,4.35-1.32,2.91-.77,4.38-1.07l4.39-.79,4.37-.58c1.46-.2,2.92-.21,4.37-.32a94.63,94.63,0,0,1,17.13.64,97.41,97.41,0,0,1,16.33,3.54c2.65.77,5.24,1.72,7.81,2.66,1.28.48,2.53,1.07,3.78,1.61s2.49,1.13,3.72,1.73l-.31,1.57a148,148,0,0,0-31.13-2.47,107.08,107.08,0,0,0-15.49,1.53,82.27,82.27,0,0,0-15,4,70.51,70.51,0,0,0-13.82,6.83,55.39,55.39,0,0,0-11.59,10,19,19,0,0,0-1.22,1.47c-.39.5-.8,1-1.17,1.51-.71,1-1.46,2.07-2.08,3.17s-1.21,2.22-1.78,3.34a33.77,33.77,0,0,0-1.36,3.5,24.2,24.2,0,0,0-1.24,7.25c0,.6,0,1.21.09,1.81a16.47,16.47,0,0,0,.29,1.78l.46,1.8a9.65,9.65,0,0,0,.54,1.78l.66,1.71a10.75,10.75,0,0,0,.83,1.62l.44.8a3.84,3.84,0,0,0,.5.76l1.09,1.46a30,30,0,0,0,5.57,5c4.15,3,8.76,5.68,13,8.9,1,.83,2.13,1.62,3.15,2.47l3,2.61c1.92,1.86,3.87,3.68,5.63,5.7s3.43,4.07,5.13,6.13a42.83,42.83,0,0,1,4.31,6.87,45,45,0,0,1,4.56,15.47,58.53,58.53,0,0,1-.53,16,74.82,74.82,0,0,1-4.46,15.33,68.89,68.89,0,0,1-3.45,7.2c-.67,1.16-1.34,2.31-2.12,3.42-.38.55-.78,1.1-1.22,1.63a8.29,8.29,0,0,1-1.58,1.54Z" transform="translate(-727.55 -200.59)"/><path d="M967.1,600.51a109,109,0,0,1-29.29-19.35,93.65,93.65,0,0,1-12.12-13.55,76,76,0,0,1-9.23-16.42c-.6-1.49-1.19-3-1.67-4.54-.25-.78-.52-1.54-.73-2.33l-.61-2.37c-.45-1.58-.69-3.21-1-4.83s-.43-3.12-.65-4.7a69.73,69.73,0,0,1,.07-19.67A66.19,66.19,0,0,1,918,493.46c2.73-5.77,5.47-10.54,7.5-15A67.33,67.33,0,0,0,929.88,465l.71-3.47.44-3.59.23-1.8c.08-.59.12-1.34.18-2l.33-4.09.63-8.26.55-8.33.93-16.78,1.65-33.73,1.56-33.77.63-13.78,13.23.23c5.74.09,11.47.31,17.21.45l8.61.25,8.61.34,12.66.5.14,11.7c.15,11.83.12,23.68.05,35.52L998,402.12l-.45,17.79c-.41,11.86-.86,23.72-1.59,35.6s-1.57,23.76-2.87,35.67l-1.6.07-2-35.43c-.65-11.81-1.33-23.62-1.91-35.43L984,349.51l1.4,1.33-34.43.08,1.48-1.45q-.37,17.05-1,34.08t-1.71,34c-.72,11.35-1.56,22.69-2.78,34-.35,2.83-.56,5.65-1.09,8.5l-.69,4.27-1,4.22A78.44,78.44,0,0,1,938,484.77c-2.62,5.13-5.69,9.94-8.33,14.88a54.82,54.82,0,0,0-5.8,15.53l-.43,2-.24,2.07-.24,2.07a15.89,15.89,0,0,0-.16,2.07l-.09,4.18,0,1,.07,1.05.12,2.09a59.66,59.66,0,0,0,2.89,16.4c3.42,10.63,9.5,20.31,16.83,28.81a123.35,123.35,0,0,0,11.92,12,117,117,0,0,0,13.44,10.19Z" transform="translate(-727.55 -200.59)"/><path d="M1084.37,424.63a12.16,12.16,0,0,0-1.11-6.33,9.46,9.46,0,0,0-3.19-3.47l-.91-.61-1-.56c-.38-.18-.69-.38-1-.56l-1.06-.54c-.78-.34-1.45-.72-2.26-1.07l-.56-.27-.62-.25c-.43-.16-.79-.36-1.2-.54-.85-.35-1.62-.71-2.53-1-.44-.16-.85-.37-1.26-.55l-1.33-.52-5.43-2.11c-.91-.35-1.85-.73-2.79-1.08s-1.86-.76-2.83-1.1l-1.42-.58-.71-.29-.93-.39c-1.22-.56-2.45-1.1-3.67-1.68a51.52,51.52,0,0,1-14.1-10.22,39.51,39.51,0,0,1-3.13-3.71c-.49-.67-1-1.33-1.44-2l-1.3-2.23c-.43-.72-.8-1.55-1.17-2.34a18,18,0,0,1-1-2.47c-.27-.86-.56-1.7-.78-2.58s-.39-1.78-.56-2.66a26.43,26.43,0,0,1-.29-5.39,23.1,23.1,0,0,1,.73-5.16,26.09,26.09,0,0,1,4-8.68,26.37,26.37,0,0,1,6.08-6.12,22.53,22.53,0,0,1,7.44-3.64l1.14,1.12a33.06,33.06,0,0,0-6.49,11.46,20.39,20.39,0,0,0-.27,12.66,22.29,22.29,0,0,0,2.9,5.66l1,1.3c.35.41.72.81,1.08,1.21a29.49,29.49,0,0,0,2.31,2.3,50.44,50.44,0,0,0,11.1,7.22c4,1.93,8.31,3.77,12.36,6a67.52,67.52,0,0,1,11.63,7.73,40.46,40.46,0,0,1,5,5.09,21.36,21.36,0,0,1,3.53,6.31,15.77,15.77,0,0,1,.75,3.61,14.69,14.69,0,0,1-.21,3.69,13.45,13.45,0,0,1-3.24,6.53Z" transform="translate(-727.55 -200.59)"/><path d="M987.91,416.87a50.3,50.3,0,0,0,4.56-11.49,59.41,59.41,0,0,0,1.65-9.93c0-.39.1-.76.14-1.15l0-1.21c0-.8.19-1.52.19-2.32,0-1.63.18-3.11.15-4.74,0-.81.07-1.58.1-2.37s0-1.64,0-2.45l0-1.22,0-.6v-.7l.06-2.78.06-1.39c0-.45,0-.9,0-1.36l.13-2.7c0-.88,0-1.77.12-2.66s.06-1.77.14-2.67l.06-1.41c0-.51.07-.9.08-1.49s0-1.12.1-1.68l.14-2c0-.36,0-.64.1-1.08l.15-1.26.16-1.25c.07-.42.18-.88.29-1.32a29.1,29.1,0,0,1,1.66-4.88c.33-.67.67-1.3,1-1.93l.56-.94c.18-.29.37-.53.55-.8a27.36,27.36,0,0,1,2.29-2.95c.81-.86,1.55-1.78,2.4-2.56s1.65-1.55,2.51-2.3a62.87,62.87,0,0,1,5.46-4.17,46.25,46.25,0,0,1,6.25-3.6l1.41.77c-1.85,3.65-3.69,7.3-5.44,11a69.76,69.76,0,0,0-4.65,11,18.48,18.48,0,0,0-.51,5.61c.11,1.93.38,4,.55,6.05a111.89,111.89,0,0,1,.35,12.41c-.08,2.07-.13,4.12-.38,6.21l-.29,3.12-.55,3.1a54.41,54.41,0,0,1-1.46,6.12c-.27,1-.69,2-1,3l-.56,1.47c-.21.49-.45,1-.68,1.43a38.35,38.35,0,0,1-7,10.48,35.61,35.61,0,0,1-4.82,4.11,25.38,25.38,0,0,1-5.6,3Z" transform="translate(-727.55 -200.59)"/><path d="M1058.38,390.64a9.37,9.37,0,0,1-2.92-.39,10.92,10.92,0,0,1-2.57-1.19,15,15,0,0,1-4.1-3.89c-.52-.75-1-1.55-1.46-2.39a21.78,21.78,0,0,1-1-2.49,20.84,20.84,0,0,1-1.19-5.12,16.81,16.81,0,0,1-.17-2.49c0-.81,0-1.63.07-2.45,0-.4,0-.83.09-1.22s.13-.74.19-1.12c.12-.75.28-1.5.46-2.24a21.48,21.48,0,0,1,.59-2.2c.23-.67.51-1.33.77-2a30.85,30.85,0,0,1,1.86-3.83c.72-1.14,1.49-2.26,2.31-3.34.42-.53.81-1.09,1.27-1.58s.91-.94,1.4-1.39a27,27,0,0,1,6.37-4.67,29.41,29.41,0,0,1,17.33-3.3l1.13,1.12c-2.82,3.48-5.81,6.79-8.48,10.33a94.78,94.78,0,0,0-7.5,10.88,42.79,42.79,0,0,0-5,11.89,19.6,19.6,0,0,0-.47,3.12c0,.52-.08,1.05-.07,1.57l.11,1.55a13.37,13.37,0,0,0,.66,3,9.24,9.24,0,0,0,1.42,2.62Z" transform="translate(-727.55 -200.59)"/><path d="M1081.56,405.19a15.41,15.41,0,0,1-5-1.8,19.5,19.5,0,0,1-3.94-2.93,22.44,22.44,0,0,1-5.2-7.91,26.24,26.24,0,0,1,.12-18.42,26.56,26.56,0,0,1,11-13.5,24.94,24.94,0,0,1,8.09-3.15,23.67,23.67,0,0,1,9.65.12l1,1.22c-.77.79-1.53,1.56-2.31,2.32l-2.22,2.39c-.7.82-1.43,1.62-2.11,2.45s-1.37,1.67-2,2.56a57.82,57.82,0,0,0-3.49,5.36,38.41,38.41,0,0,0-2.64,5.77,33.28,33.28,0,0,0-2.2,12.36,31.17,31.17,0,0,0,.69,6.3,28.08,28.08,0,0,0,1.88,6Z" transform="translate(-727.55 -200.59)"/></svg>