<svg id="Слой_1" data-name="Слой 1" xmlns="http://www.w3.org/2000/svg" viewBox="0 0 600 600"><title>больничные пиктограммы</title><path d="M236,145.29c.79,5.12,1.36,10.23,2,15.35L239.73,176c.61,5.11,1,10.24,1.49,15.35a120.47,120.47,0,0,0,2.05,14.48,44.54,44.54,0,0,0,4.2,12.32,21,21,0,0,0,7.12,7.95,23.28,23.28,0,0,0,4.66,2.23l1.29.41c.44.13.91.22,1.35.34l3.83,1a88.65,88.65,0,0,1,16.22,6,73.49,73.49,0,0,1,15.31,10,60,60,0,0,1,12.35,14.77,58.15,58.15,0,0,1,7,18.12,74.61,74.61,0,0,1,1.4,18.67,92.15,92.15,0,0,1-2.62,17.68,128,128,0,0,1-5.21,16.44,151.88,151.88,0,0,1-7.09,15.28,129.67,129.67,0,0,1-9,14.71,96.73,96.73,0,0,1-25.75,24.85,77,77,0,0,1-17,8.08,65.35,65.35,0,0,1-18.83,3.36,70,70,0,0,1-18.88-2,74,74,0,0,1-17.16-6.64l-3.91-2.21-3.76-2.38-3.61-2.54-1.41-1-1.31-1a49.85,49.85,0,0,0-10.79-6c-7.28-2.87-14.2-3-20.23.46a22.8,22.8,0,0,0-7.8,7.57,23.12,23.12,0,0,0-2.48,5.07,22.81,22.81,0,0,0-.72,2.63c-.08.43-.12.85-.2,1.29l-.18,1.91c-1.85,20.47-3.63,40.95-6.64,61.42h-1.6l-.39-61.42v-1.92c0-.67,0-1.35.09-2a30.77,30.77,0,0,1,.61-4,32.42,32.42,0,0,1,2.72-7.49,33,33,0,0,1,10.24-12,30.15,30.15,0,0,1,14.83-5.56,39,39,0,0,1,15.67,1.85,61.58,61.58,0,0,1,14.12,6.76l6.41,4.2,3.26,1.91,3.34,1.74a58.35,58.35,0,0,0,29,6.22,56.43,56.43,0,0,0,28-9.52,81.74,81.74,0,0,0,21.36-21,113.88,113.88,0,0,0,8-12.85,140.89,140.89,0,0,0,6.51-13.72,96.28,96.28,0,0,0,7.3-29.21c.71-10-.81-20.22-5.69-28.92A47.3,47.3,0,0,0,288,256.11a60.87,60.87,0,0,0-12.2-8.69,83.16,83.16,0,0,0-13.88-6l-3.63-1.2c-.62-.22-1.25-.41-1.87-.65l-1.84-.76A30.83,30.83,0,0,1,238.35,222a54.93,54.93,0,0,1-3.7-15.21,135.88,135.88,0,0,1-.59-15.47l.1-15.35.2-30.71Z"/><path d="M273.74,145.29c.79,8,1.37,16.05,2.06,24.09l.22,3,.11,1.51a10.26,10.26,0,0,0,.13,1.23,20.31,20.31,0,0,0,1.37,4.92,16.14,16.14,0,0,0,6,7.34,21.26,21.26,0,0,0,9.09,3,37.91,37.91,0,0,0,10.36-.28,26.08,26.08,0,0,0,4.72-1.2,23.43,23.43,0,0,0,4.1-2.05,34.18,34.18,0,0,0,3.83-3c1.28-1.15,2.62-2.48,4-3.88a82.36,82.36,0,0,1,9.9-8.56,61.34,61.34,0,0,1,12.09-6.76,79.29,79.29,0,0,1,12.84-4.15,114.39,114.39,0,0,1,12.85-2.29c1.07-.13,2.14-.28,3.2-.39l3.19-.29c2.13-.23,4.23-.28,6.34-.38l1.59-.07h1.74c1.17,0,2.33,0,3.5.06s2.34.11,3.5.23l3.51.4a72.65,72.65,0,0,1,26.56,9.43,93.48,93.48,0,0,1,21.16,17.53,134.74,134.74,0,0,1,15.48,21.44,182.48,182.48,0,0,1,11.47,23.05c1.65,3.93,3.15,7.87,4.59,11.85,1.36,4.21,2.83,8.37,3.84,12.7,1.2,4.26,1.93,8.66,2.71,13l.82,6.63c.16,1.1.23,2.21.29,3.33l.21,3.33c.07,1.11.15,2.23.19,3.34v6.69c0,.55,0,1.11,0,1.67l-.09,1.66-.41,6.68-.79,6.63a155,155,0,0,1-6.15,25.86,168.65,168.65,0,0,1-10.49,24.18,184.92,184.92,0,0,1-31,41.62,216.21,216.21,0,0,1-40.19,31.75c-3.68,2.13-7.3,4.37-11.07,6.32-1.88,1-3.73,2-5.64,3l-5.71,2.78a222.83,222.83,0,0,1-23.52,9.51,216.9,216.9,0,0,1-24.35,7,189.52,189.52,0,0,1-25.35,3.86c-2.14.2-4.31.27-6.45.39s-4.32.15-6.49.11c-4.33,0-8.68-.25-13-.64a129.27,129.27,0,0,1-13-2A101.67,101.67,0,0,1,245,457.11a112.57,112.57,0,0,1-12.17-4.92,112.54,112.54,0,0,1-31.47-22.59l-2.19-2.33-1.09-1.17-1-1.06q-1.92-2.13-3.91-4.15a80.12,80.12,0,0,0-8.29-7.38,30,30,0,0,0-8.66-4.86,11.39,11.39,0,0,0-1.94-.45,8,8,0,0,0-1.54,0,2.8,2.8,0,0,0-2.07,1.08,6.43,6.43,0,0,0-1.23,3.42l-.61,6-1.24,12c-.94,8-1.76,16-2.8,24l-1.6-.06.66-24,.33-12,.16-6a12.28,12.28,0,0,1,1.57-6.27,8.79,8.79,0,0,1,2.22-2.53,9.44,9.44,0,0,1,3-1.48,13.36,13.36,0,0,1,6.44,0,35.18,35.18,0,0,1,11.22,5.14,85.08,85.08,0,0,1,9.61,7.46c3,2.68,5.88,5.58,8.76,8.25a104.23,104.23,0,0,0,19.08,14.08,99.86,99.86,0,0,0,10.6,5.31,101,101,0,0,0,11.18,4c15.21,4.49,31.35,5.21,47.11,3.43a194.5,194.5,0,0,0,46.2-11.52,226.9,226.9,0,0,0,21.93-9.43l5.32-2.7c1.78-.9,3.49-1.92,5.24-2.87,3.51-1.88,6.85-4,10.26-6.09l5-3.29,2.48-1.66,2.42-1.75c1.6-1.17,3.24-2.3,4.81-3.52l4.7-3.68c1.58-1.2,3-2.55,4.57-3.82s3.05-2.56,4.48-3.94l4.37-4,4.2-4.23a170.5,170.5,0,0,0,28.19-38.19,154.42,154.42,0,0,0,9.54-21.74,139.82,139.82,0,0,0,5.6-23.05l.77-5.89.42-5.92.1-1.48c0-.49,0-1,0-1.48l0-3,0-3c0-1-.1-2-.14-3l-.15-3c0-1-.09-2-.23-2.95l-.67-5.9c-.29-2-.67-3.9-1-5.85s-.8-3.88-1.26-5.81c-.82-3.87-2.1-7.63-3.24-11.42-1.29-3.77-2.64-7.52-4.11-11.21a180.34,180.34,0,0,0-10.17-21.55,122.09,122.09,0,0,0-13.42-19.56A80,80,0,0,0,413.79,178,60.44,60.44,0,0,0,392,169.57a65.74,65.74,0,0,0-11.74-.85c-2,0-4,0-6,.14l-3,.13c-1,.06-2,.15-3,.23a100.83,100.83,0,0,0-11.77,1.57,68,68,0,0,0-11.36,3.14,51.33,51.33,0,0,0-10.46,5.28,83.68,83.68,0,0,0-9.29,7.35,55.26,55.26,0,0,1-9.82,7.32,32.6,32.6,0,0,1-5.79,2.33,34.47,34.47,0,0,1-6.11,1.08c-.51,0-1,.1-1.54.13l-1.53,0c-1,0-2.05,0-3.07,0s-2.05-.15-3.07-.22-2.05-.25-3.05-.48a26,26,0,0,1-11.34-5,21.42,21.42,0,0,1-7-10.25,24.57,24.57,0,0,1-1.14-6.13c0-.52,0-1.06,0-1.58v-1.5l0-3,.09-24Z"/><path d="M304.1,290.11c1.21-1.51,2.56-2.86,3.89-4.32s2.86-2.6,4.36-3.85,3.15-2.29,4.77-3.44a28.4,28.4,0,0,1,2.54-1.52l2.6-1.46a66.29,66.29,0,0,1,23.24-6.91c2-.14,4.11-.32,6.17-.41s4.12,0,6.18.15,4.12.27,6.13.61,4.06.63,6,1.07a104.84,104.84,0,0,1,11.68,3.35c1.86.73,3.73,1.45,5.58,2.25l2.76,1.25,1.38.63c.43.2,1,.44,1.3.61l4.33,2.2c1.43.7,2.87,1.27,4.28,2,2.82,1.34,5.7,2.49,8.55,3.6,1.42.63,2.86,1.07,4.3,1.56.72.23,1.44.53,2.16.74l2.17.66c.72.21,1.45.49,2.18.64s1.46.33,2.19.54a42.92,42.92,0,0,0,4.43,1A83.34,83.34,0,0,0,446,292.68c1.64,0,3.27-.21,5-.25s3.37-.4,5.14-.53c1.71-.29,3.48-.54,5.3-.8s3.58-.7,5.52-1l.88,1.34A73,73,0,0,1,448.42,301,68.66,68.66,0,0,1,427,303.82c-14.55-.33-28.63-5-41.43-11.42A110.56,110.56,0,0,0,366,284.65a83.47,83.47,0,0,0-20.69-3.22,75.2,75.2,0,0,0-20.79,2.47,86.87,86.87,0,0,0-19.63,7.61Z"/><path d="M401.53,337.8a23.88,23.88,0,0,1-3,11.63,21.07,21.07,0,0,1-4.48,5.63,20,20,0,0,1-7.15,4.16,21.09,21.09,0,0,1-9.25.89,21.53,21.53,0,0,1-9.4-3.66,22.1,22.1,0,0,1-7-8,23.21,23.21,0,0,1,0-21.23,22.27,22.27,0,0,1,7-8,21.59,21.59,0,0,1,9.38-3.64,21.25,21.25,0,0,1,9.22.89,19.89,19.89,0,0,1,7.13,4.13,20.84,20.84,0,0,1,4.48,5.61A23.68,23.68,0,0,1,401.53,337.8Zm-1.6,0a12.94,12.94,0,0,0-3.89-9.1,12.63,12.63,0,0,0-9.1-3.49,12.5,12.5,0,0,0-8.7,3.89,12.59,12.59,0,0,0,0,17.4,12.6,12.6,0,0,0,17.8.4A12.94,12.94,0,0,0,399.93,337.8Z"/><path d="M327.31,362.82a22.47,22.47,0,0,1-.26,5.13,10.31,10.31,0,0,1-1.5,3.64,10.53,10.53,0,0,1-3.63,3.46,11.92,11.92,0,0,1-5.73,1.59,12.7,12.7,0,0,1-6.42-1.67,13.37,13.37,0,0,1-5-5.05,14.39,14.39,0,0,1,0-14.19,13.5,13.5,0,0,1,5-5,12.76,12.76,0,0,1,6.4-1.65,12,12,0,0,1,5.7,1.59,10.5,10.5,0,0,1,3.61,3.44,10,10,0,0,1,1.5,3.61A21.89,21.89,0,0,1,327.31,362.82Zm-1.6,0a3.39,3.39,0,0,0-3.79-3.4,3.42,3.42,0,1,0,3.79,3.4Z"/><path d="M345.68,400.35a21.46,21.46,0,0,1-.64,6,12.17,12.17,0,0,1-6,7.48,13.19,13.19,0,0,1-6.21,1.49,14,14,0,0,1-6.84-1.94,14.64,14.64,0,0,1-5.26-5.47,15.59,15.59,0,0,1,0-15.17,14.52,14.52,0,0,1,5.27-5.42,14,14,0,0,1,6.82-1.93,13.4,13.4,0,0,1,6.18,1.49,12,12,0,0,1,4.11,3.54,11.76,11.76,0,0,1,1.91,3.89A21,21,0,0,1,345.68,400.35Zm-1.6,0a5,5,0,0,0-1.57-3.5,4.7,4.7,0,0,0-3.51-1.17,4.6,4.6,0,0,0-3.1,1.57,4.34,4.34,0,0,0-1.17,3.1,4.67,4.67,0,0,0,7.78,3.5A5,5,0,0,0,344.08,400.35Z"/></svg>