<svg id="Слой_1" data-name="Слой 1" xmlns="http://www.w3.org/2000/svg" viewBox="0 0 600 600"><title>больничные пиктограммы</title><path d="M236.81,110.19c1.8,6.83,3.36,13.68,4.77,20.53s2.83,13.7,4.07,20.56,2.37,13.73,3.5,20.6,2.12,13.74,3,20.62l1.4,10.32,1.25,10.33c.88,6.88,1.54,13.77,2.3,20.66.38,3.44.7,6.89,1,10.34l.95,10.34c.64,6.89,1.1,13.8,1.66,20.7l-.54-3.31.24.94.17.7.28,1.25c.16.8.32,1.61.43,2.38s.25,1.56.32,2.33.17,1.56.22,2.33a58.39,58.39,0,0,1-.05,9.44,50.69,50.69,0,0,1-5.51,19.33c-.39.78-.89,1.52-1.34,2.28l-1.32,2.1q-.16.32-.36.63a3.21,3.21,0,0,0-.41.68c-.12.28-.26.57-.4.85a5.35,5.35,0,0,0-.41.92l-.39,1a9.24,9.24,0,0,0-.38,1.09,60.22,60.22,0,0,0-2.17,10.48,93,93,0,0,0-.7,11.78,103.83,103.83,0,0,0,.63,11.9c.22,1.93.5,3.83.87,5.61.15.95.38,1.68.54,2.51s.46,1.62.67,2.44a59.56,59.56,0,0,0,4.58,10.5c.95,1.89,2.07,3.94,3.21,6.11s2.42,4.68,3.62,7.56a32.46,32.46,0,0,1,2.55,11l0,1.66v.58l0,.35L265,404c-.05,1-.07,2.19-.11,3.28l-.3,13.72-.15,6.93-.21,6.95c-.58,18.55-1.44,37.16-3.56,55.89l-1.77.16c-1.73-18.41-3.49-36.81-5-55.24-.74-9.22-1.49-18.42-2.07-27.68l-.19-3.48c0-1.16,0-2.45-.15-3.41a18.57,18.57,0,0,0-1.8-6.11c-1.92-4-4.52-7.83-6.92-11.82a79,79,0,0,1-6.43-12.56,66.89,66.89,0,0,1-3.58-13.71,111.3,111.3,0,0,1-.91-28.07,70.45,70.45,0,0,1,2.65-13.93c.31-1.15.79-2.26,1.18-3.39s1-2.22,1.47-3.32,1.22-2.13,1.83-3.19,1.16-1.86,1.68-2.82c4.09-7.69,4.68-17.24,2.78-25.72l-.05-.23v-.13L239,193.22c-.7-13.82-1.48-27.63-2.1-41.46L235,110.29Z"/><path d="M365,109.18c1,7,1.85,14,2.51,20.92S368.79,144,369.27,151s.86,13.91,1.23,20.85.61,13.9.74,20.83l.26,10.41.12,10.4c.12,6.94,0,13.86,0,20.79,0,3.47-.05,6.93-.12,10.39L371.34,255c-.12,6.93-.42,13.84-.62,20.76l-.54,3.31.05-.16V279l0,.14-.07.44c-.05.34-.1.67-.13,1-.08.72-.17,1.48-.2,2.23a26.81,26.81,0,0,0,.09,4.41,19.25,19.25,0,0,0,2.08,7.15,8,8,0,0,0,.41.7l.49.86,1.42,2.35a25.17,25.17,0,0,1,1.29,2.34l1.06,2.29c.35.76.7,1.54.95,2.26l.8,2.22c.27.74.53,1.49.72,2.2a78,78,0,0,1,3.08,16.69,116.47,116.47,0,0,1-1.71,31.61c-.51,2.63-1.1,5.27-1.87,8-.33,1.32-.83,2.77-1.32,4.17s-1.08,2.73-1.62,4.09a89.14,89.14,0,0,1-8,14.18c-2.83,4.1-5.55,7.7-7.1,10.3-.74,1.25-1.07,2.06-1.27,2.25l-.1.07,0,0,0,.25-.05.52-.2,2.07c-.14,1.3-.3,2.43-.46,3.65-.33,2.39-.64,4.7-1,7l-1.14,6.93-1.18,6.89-1.28,6.87c-3.49,18.31-7.45,36.53-12.73,54.63l-1.77-.15,4.12-55.29c.68-9.21,1.38-18.43,1.9-27.63l.16-3.44c0-1.15,0-2.18.14-3.52a21.43,21.43,0,0,1,2-7.13c2.06-4.35,4.66-8.2,7-12.14a76.56,76.56,0,0,0,6.11-12.13,63.36,63.36,0,0,0,3.32-13.08,107.87,107.87,0,0,0,.73-27.22,66.75,66.75,0,0,0-2.61-13.24c-.29-1.08-.74-2.09-1.11-3.14s-.91-2-1.35-3-1.1-1.87-1.63-2.81-1.31-2.06-1.89-3.12a36.62,36.62,0,0,1-3.95-13.92,44.39,44.39,0,0,1-.06-7.2,41.94,41.94,0,0,1,1.1-7.17l-.06.35L358.1,192c.82-13.81,1.56-27.63,2.45-41.44l2.64-41.43Z"/><path d="M290.07,109.13c2.23,7.64,4,15.28,5.48,22.93.79,3.82,1.41,7.64,2.1,11.46s1.25,7.64,1.74,11.46c2.16,15.29,3.6,30.57,4.54,45.85s1.24,30.57,1.22,45.86L305,258.15l-.36,11.46c-.09,3.82-.32,7.64-.52,11.46s-.4,7.65-.71,11.47l-1.62,19.69-7.38-6.44a5.26,5.26,0,0,0-.73.21l-.95.33c-.66.24-1.31.49-2,.76-1.29.54-2.57,1.11-3.8,1.68a37.11,37.11,0,0,0-6,3.55l-.47.36-.25.17-.16.14c-.11.09-.25.18-.37.26s-.19.12-.3.27a8.49,8.49,0,0,0-1.35,2.3,15.81,15.81,0,0,0-1,3c-.26,1-.31,1.89-.44,2.38-.24.27-.16.95.06,1.63a6.3,6.3,0,0,0,1.38,2.19,11.15,11.15,0,0,0,5.72,3.14,11.29,11.29,0,0,0,3.54.13,9.72,9.72,0,0,0,1-.18c.47-.16.93-.33,1.41-.47.95-.29,1.91-.56,2.9-.79a22.09,22.09,0,0,1,11.84.19l0,1.78a21.25,21.25,0,0,0-5.05.55,23.81,23.81,0,0,0-4.77,1.76c-.77.37-1.53.78-2.28,1.21l-1.11.66-1.25.68a16.7,16.7,0,0,1-5.43,1.62,18.94,18.94,0,0,1-11-2.17,15.64,15.64,0,0,1-4.5-3.53,14.24,14.24,0,0,1-3-5,19.31,19.31,0,0,1-.86-5.64,28,28,0,0,1,.51-5.56,24.72,24.72,0,0,1,1.67-5.37c.18-.44.43-.87.64-1.3s.51-.81.76-1.21a24.19,24.19,0,0,1,1.71-2.28,40.15,40.15,0,0,1,8.45-7.05,65.93,65.93,0,0,1,9.63-5.08l-1,1.45-.21-45.85.17-45.86.21-45.85,0-11.46.15-11.46.3-22.93Z"/><path d="M318.22,109.13c2.23,7.64,4,15.28,5.48,22.93.79,3.82,1.41,7.64,2.1,11.46s1.25,7.64,1.75,11.46c2.15,15.29,3.6,30.57,4.53,45.85s1.24,30.57,1.22,45.86l-.12,11.46-.36,11.46c-.08,3.82-.32,7.64-.52,11.46s-.39,7.65-.71,11.47l-9-13.26c.79.36,1.17.57,1.71.84l1.45.77c.94.52,1.87,1.06,2.79,1.61a63.43,63.43,0,0,1,5.39,3.62,64.51,64.51,0,0,1,5.24,4.39,44.24,44.24,0,0,1,5.06,5.54l1.18,1.72.58.87.55,1c.37.66.73,1.31,1.06,2s.66,1.43.89,2.1a32.08,32.08,0,0,1,1.82,7.8,37.35,37.35,0,0,1,0,7.55,28.39,28.39,0,0,1-2,8.08c-.16.37-.29.71-.48,1.08l-.58,1.13a10.37,10.37,0,0,1-.62,1l-.65.94a14.93,14.93,0,0,1-1.39,1.74,16.05,16.05,0,0,1-1.52,1.56c-.54.48-1.06,1-1.62,1.39s-1.13.81-1.69,1.2a26.07,26.07,0,0,1-3.58,1.8,24.4,24.4,0,0,1-7.39,1.78,25,25,0,0,1-7.34-.63,20,20,0,0,1-6.61-3c-.47-.34-1-.74-1.38-1l-.9-.86c-.59-.56-1.19-1.12-1.82-1.63a27.73,27.73,0,0,0-3.95-2.82,23.72,23.72,0,0,0-4.73-1.91l0-1.78a23.24,23.24,0,0,1,5.5.46,25.39,25.39,0,0,1,5.21,1.77c.84.37,1.65.79,2.45,1.21l1.18.67,1.1.56a14.5,14.5,0,0,0,4.72,1.27,16.37,16.37,0,0,0,9.47-2.12,13.09,13.09,0,0,0,6.11-7.12,20.43,20.43,0,0,0,.18-9.81,21.47,21.47,0,0,0-1.5-4.72c-.16-.38-.37-.72-.55-1.08s-.44-.68-.66-1a19.73,19.73,0,0,0-1.49-2,37.36,37.36,0,0,0-7.87-6.43,61.56,61.56,0,0,0-9.16-4.73l-1-.41v-1l-.2-45.85.17-45.86.2-45.85.05-11.46.15-11.46.3-22.93Z"/><path d="M292.83,489.76q-2.43-10.33-4.17-20.68c-1.21-6.89-2.22-13.78-3.18-20.68s-1.77-13.78-2.49-20.67c-.4-3.45-.73-6.9-1-10.34s-.68-6.89-.92-10.34l.34-2.91c-.06.21,0,0-.05,0v-.79c0-.39,0-.79,0-1.19A12.93,12.93,0,0,0,281,400c-.27-1.31-.76-2.21-1-2.18s-.05,0-.08.1a.15.15,0,0,0,0,.1.85.85,0,0,0,0,.17.18.18,0,0,0,0,.07l0,0h0l-.07,0-.56-.39c-.34-.26-.8-.56-1.22-.86-1.76-1.21-4-2.59-6.85-4.82-.7-.56-1.4-1.12-2.18-1.84-.38-.35-.74-.66-1.13-1.05L267,388.05l-.58-.62-.6-.71-1.15-1.45a33.72,33.72,0,0,1-2.15-3.39,27.63,27.63,0,0,1-1.73-3.84c-.24-.67-.46-1.34-.68-2s-.32-1.34-.46-2a25.78,25.78,0,0,1-.55-4,25.43,25.43,0,0,1,0-3.69l0-.9,0-.45.07-.53c.1-.71.21-1.42.33-2.12s.24-1.41.44-2.11.43-1.4.67-2.09.48-1.4.78-2.06.64-1.32,1-2,.69-1.3,1.08-1.9.82-1.18,1.25-1.76A31.39,31.39,0,0,1,277,340.78a36.66,36.66,0,0,1,13.4-3.07,39.16,39.16,0,0,1,13.05,1.7,25.65,25.65,0,0,1,3.12,1.09l1.53.64c.51.22,1.06.45,1.36.61.71.36,1.43.7,2.14,1.07l2.18,1.21c1.48.86,3,1.78,4.49,2.83l1.1.78,1,.74c.66.5,1.07.79.7.55-.2-.13-.41-.25-.62-.36a10.41,10.41,0,0,0-1.3-.6,11.65,11.65,0,0,0-1.72-.53l-.83-.16a7.28,7.28,0,0,0-.8-.1l-.39,0h-.8c-.28,0-.75.05-.77,0l-.35.05-.09,0h.08c.06,0-.12,0-.18,0l-.26.06-.23.07-.05,0,0,0c.06,0,.5-.18.92-.36.94-.4,2.17-.93,3.58-1.51s3-1.21,5.06-1.87c.53-.17,1.06-.33,1.7-.49s1.3-.32,2-.47c.32-.07.82-.14,1.23-.2s.83-.12,1.41-.16,1.07-.08,1.63-.09,1.37,0,2.06.08c.3,0,.77.08,1.2.14s.88.15,1.31.24a19.45,19.45,0,0,1,3,.93,17.21,17.21,0,0,1,3.29,1.76,16.74,16.74,0,0,1,3.07,2.62,16.52,16.52,0,0,1,2.29,3.09,16.73,16.73,0,0,1,.85,1.61c.2.45.38.91.55,1.37a19.23,19.23,0,0,1,1.08,4.82c0,.62.06,1.13.07,1.7a14.75,14.75,0,0,1,0,1.54l-.11,1.28-.07.64-.08.53c-.12.66-.25,1.4-.39,2l-.43,1.69c-.15.53-.29,1-.46,1.48l-.24.72-.24.63-1,2.47a66.78,66.78,0,0,1-10.61,16.93c-1.93,2.25-3.79,4.25-5.07,5.73l-.81.94-.24.3c-.09.1-.19.21-.19.19a.19.19,0,0,1-.09,0s.05-.16,0-.24a.38.38,0,0,0,0-.15s0-.2.06-.29a2.16,2.16,0,0,0,0-.67c-.06.37-.12.75-.2,1.13,0,.14-.06.55-.1.83l-.1.92c-.13,1.23-.26,2.47-.37,3.78-.25,2.57-.42,5.17-.69,7.78l-.76,7.86c-.24,2.62-.49,5.25-.79,7.87-1.07,10.51-2.4,21.05-3.9,31.58s-3.34,21.09-5.7,31.64l-1.78,0c-.36-21.08-.81-42.15-.84-63.23l0-15.81,0-7.91c0-1.32,0-2.65.06-4s.07-2.68.15-4.07a12.86,12.86,0,0,1,1.42-4.28c.31-.65.71-1.21,1.07-1.83l1.18-1.68c1.6-2.19,3.28-4.2,4.85-6.28a53.09,53.09,0,0,0,7.68-13.22c.42-1.19.88-2.39,1.19-3.58a10.46,10.46,0,0,0,.43-3.31,1.67,1.67,0,0,0-.28-.83,1.09,1.09,0,0,0-.69-.23,9.17,9.17,0,0,0-3.2.62c-2.33.79-4.67,1.95-7.13,3-.63.26-1.25.53-1.93.78-.33.12-.69.24-1.07.35a11.21,11.21,0,0,1-1.11.24,8.42,8.42,0,0,1-2.44.18,5.54,5.54,0,0,1-2.6-.94c-1.28-.86-2.19-1.61-3.26-2.32s-2.13-1.36-3.24-2-2.25-1.21-3.41-1.79c-.57-.29-1.12-.49-1.68-.74a11.77,11.77,0,0,0-1.72-.62,20.77,20.77,0,0,0-14.27.51,14,14,0,0,0-5.58,4.16,11.33,11.33,0,0,0-2.35,6.37,13,13,0,0,0,1.27,6.82,18.64,18.64,0,0,0,4.69,5.49c1.93,1.65,4.08,3.17,6.18,4.85.52.43,1,.84,1.56,1.29l.77.67c.26.24.52.53.77.79s.53.53.76.81l.65.9a12.77,12.77,0,0,1,1.12,1.88,20.79,20.79,0,0,1,2,8.22,31.89,31.89,0,0,1-.05,4.15,30.34,30.34,0,0,1-.59,4.14l0-.34L295,448.4l-.43,41.36Z"/></svg>