<svg id="Слой_1" data-name="Слой 1" xmlns="http://www.w3.org/2000/svg" viewBox="0 0 600 600"><defs><style>.cls-1{fill:none;stroke:#000;stroke-miterlimit:10;}</style></defs><title>больничные пиктограммы</title><path d="M455.3,418.9c-2.14,0-4.21-.26-6.31-.36s-4.15-.35-6.19-.57c-4.11-.39-8.14-.91-12.15-1.41-8-1.05-15.87-2.29-23.62-3.49l-11.52-1.82c-3.82-.54-7.57-1.21-11.31-1.68s-7.41-1.06-11-1.37-7.16-.71-10.55-.8a61.15,61.15,0,0,0-9.42.23,27,27,0,0,0-3.74.59c-1.06.26-1.92.57-2.56.77s-1,.4-1.26.54a2.26,2.26,0,0,0-1,.82,6.92,6.92,0,0,0-.91,2.41,6.18,6.18,0,0,0-.2,1.24l-.18,1.51-.36,3c-1,8-2.31,16-4,24.07-.87,4-1.78,8-2.88,12s-2.3,8-3.77,12h-1.6l-.39-24.07-.14-24.07c0-2,0-4,0-6a23.11,23.11,0,0,1,.93-6.31,17,17,0,0,1,3-5.78,19.11,19.11,0,0,1,4.85-4.3,32.62,32.62,0,0,1,11.89-4,69.49,69.49,0,0,1,12.29-.64,149,149,0,0,1,24.08,3.29c7.9,1.67,15.7,3.75,23.41,6.06s15.35,4.87,22.91,7.62,15,5.8,22.37,9Z"/><path d="M281.48,466.69c-6.43-21.66-10.11-43.41-13-65.18l-1-8.17-.86-8.18-.42-4.09c-.08-.68-.14-1.36-.2-2l0-.26v-.36l0-.71,0-1.43a40.19,40.19,0,0,1,1.54-12,36.3,36.3,0,0,1,5.81-11.57,40.36,40.36,0,0,1,8.87-8.67,54.26,54.26,0,0,1,9.79-5.44,78.11,78.11,0,0,1,9.69-3.3,108,108,0,0,1,18.62-2.82c3-.16,6-.25,9-.24s5.9.07,8.82.27c5.82.37,11.55.93,17.2,1.82,2.82.43,5.63.87,8.42,1.41s5.56,1.14,8.32,1.74a260.36,260.36,0,0,1,32.3,9.62c5.25,2,10.45,4,15.55,6.42,2.55,1.2,5.09,2.38,7.61,3.63s5,2.6,7.44,4.1l-.44,1.53c-10.53-2.77-21.21-5.13-31.91-7.22s-21.44-4-32.25-5.41a290.67,290.67,0,0,0-32.51-2.51c-10.83-.11-21.76.47-32.13,3.14a63.78,63.78,0,0,0-7.57,2.48,40.29,40.29,0,0,0-6.92,3.71,23.3,23.3,0,0,0-9.26,12,25.51,25.51,0,0,0-1.24,7.64c0,.66,0,1.3,0,2l.07,2.05.12,4.1.5,16.39,1,32.78.75,32.78Z"/><path d="M416.31,183.13a25.32,25.32,0,0,1,1.77,6.56,24.25,24.25,0,0,1,0,6.91,22.69,22.69,0,0,1-2.14,6.78,24.44,24.44,0,0,1-4.15,5.88,35.91,35.91,0,0,1-11.69,7.88,64.84,64.84,0,0,1-13.12,4c-1.1.23-2.21.41-3.32.61l-3.22.51c-2.14.35-4.28.7-6.43,1-4.31.64-8.63,1.16-13,1.63l-6.52.64c-2.18.16-4.36.34-6.55.47l-6.56.28c-2.19.08-4.38.1-6.58.15a347.28,347.28,0,0,1-52.54-3.44c-4.35-.6-8.66-1.33-13-2.06-2.16-.36-4.26-.78-6.39-1.16l-3.19-.59-.36-.07h-.13l-.49-.06-1.12-.11c-6.42-.5-13.92.66-18,3.1a10.1,10.1,0,0,0-2.42,1.87,6.84,6.84,0,0,0-1.33,2,12.46,12.46,0,0,0-.84,5.93,11.7,11.7,0,0,0,1.62,5.92,7.26,7.26,0,0,0,1.45,1.59,12.56,12.56,0,0,0,2.34,1.45,28.88,28.88,0,0,0,8,2.26c1.6.25,3.31.44,5.07.56.89.06,1.79.11,2.7.14l2.83.06c7.77,0,16.13-.28,24.45-.76,33.41-2.13,67.47-5.63,101.08-9.33l.59-.06h.7l1.8,0h1.57c1,0,2.05,0,3.07.05,2,.06,4.08.17,6.14.33a91.36,91.36,0,0,1,12.91,1.9,59.44,59.44,0,0,1,7.19,2.09,42.3,42.3,0,0,1,8.27,4,33.08,33.08,0,0,1,4.65,3.55,29.24,29.24,0,0,1,4.63,5.43,27,27,0,0,1,3.42,7.47,27.42,27.42,0,0,1,1,8,27.95,27.95,0,0,1-4.27,14.51,31.41,31.41,0,0,1-9,9.22,42.44,42.44,0,0,1-8.42,4.35,58.6,58.6,0,0,1-7.39,2.29,88.69,88.69,0,0,1-13.2,2.07c-2.1.18-4.18.3-6.26.36-1,0-2.08.05-3.13.05H387.2l-.84,0-1,0-.65,0-1.1-.15-26.81-3.6L330,291.6l-26.78-3.75c-8.93-1.25-17.86-2.5-26.77-3.83l-1.85-.35,1,.22.39.06.24,0h-.08l-.67-.06-1.74-.11c-1.24-.05-2.53-.08-3.83-.09-2.61,0-5.24.06-7.84.22a84.16,84.16,0,0,0-14.74,2.15,34.88,34.88,0,0,0-10.78,4.33,10.85,10.85,0,0,0-2.44,2.14,4.85,4.85,0,0,0-.58.83,4,4,0,0,0-.39.88,8.55,8.55,0,0,0-.38,3,10,10,0,0,0,.4,3,4.39,4.39,0,0,0,.88,1.57,9.47,9.47,0,0,0,2.48,1.93,31.67,31.67,0,0,0,10.87,3.3,59.18,59.18,0,0,0,6.81.57c.56,0,1.11,0,1.63,0h1l.27,0,4.57-.4L298.3,304c12.2-1.07,24.41-2,36.61-3s24.41-2,36.63-2.88l9.16-.68,4.78-.36c1.86-.13,3.58-.21,5.35-.25,3.51-.09,7,0,10.71.21a71.23,71.23,0,0,1,11.78,1.75,42.43,42.43,0,0,1,7,2.36,27.45,27.45,0,0,1,8.5,5.81,22.31,22.31,0,0,1,4.08,5.74,21.7,21.7,0,0,1,2.09,7.17,23,23,0,0,1-2.36,12.84,23,23,0,0,1-3.54,5.09,25.63,25.63,0,0,1-3.92,3.49,32.12,32.12,0,0,1-7.23,3.88,53.74,53.74,0,0,1-12.08,3,97.2,97.2,0,0,1-10.74.85c-1.73,0-3.45.05-5.14,0L387.5,349h-1.25l-1.2-.09-18.46-1.41c-12.31-.93-24.61-1.86-36.9-2.9s-24.59-2-36.86-3.13l-9.21-.84-2.3-.2-2.17-.17c-1.44-.12-2.88-.23-4.33-.28a160.79,160.79,0,0,0-17.55.15c-5.9.33-11.81,1-17.77,1.79s-11.91,1.76-17.88,2.89-12,2.33-17.9,3.75-11.77,2.85-17.44,4.71a59.13,59.13,0,0,0-15.85,7.52,24,24,0,0,0-6,6,16.34,16.34,0,0,0-2.72,8h-2.16A18.87,18.87,0,0,1,162,365.4a26.24,26.24,0,0,1,6.25-7.24,62.37,62.37,0,0,1,16.33-9.11c5.76-2.31,11.66-4.15,17.56-5.88s11.82-3.4,17.78-4.95a273.11,273.11,0,0,1,36.28-7.15,173.65,173.65,0,0,1,18.52-1.25c6.23-.06,12.34.28,18.47.46l73.57,2.66,18.39.67a101.29,101.29,0,0,0,18.05-1.12,40.15,40.15,0,0,0,8.48-2.3c2.62-1.09,5-2.67,6.1-4.83a6.27,6.27,0,0,0,.59-3.47,5,5,0,0,0-1.51-3c-1.75-1.72-4.57-2.73-7.37-3.37a70.09,70.09,0,0,0-17.84-1c-3,.12-6,.47-9.06.79l-9.16.94L336.81,320l-73.29,7.53-4.58.47c-1.63.15-3.19.18-4.78.18a74.42,74.42,0,0,1-9.43-.62A52.16,52.16,0,0,1,226.49,322a30.52,30.52,0,0,1-7.79-6,25.36,25.36,0,0,1-5.24-8.45,30.15,30.15,0,0,1-1.83-9.65,30.59,30.59,0,0,1,1.17-9.76,26,26,0,0,1,4.56-8.81,31.78,31.78,0,0,1,7.21-6.65,55.48,55.48,0,0,1,17.54-7.44,105.56,105.56,0,0,1,18.55-2.82c3.12-.21,6.23-.32,9.35-.31,1.56,0,3.12,0,4.69.1l2.36.13,1.2.1.63.07a7.46,7.46,0,0,1,.81.13l-.2,0,107.06,15.45h-.18a81.25,81.25,0,0,0,20.25-1.69,27.9,27.9,0,0,0,9-3.56,10.6,10.6,0,0,0,3.12-3.06,7.39,7.39,0,0,0,1.17-3.93,6.54,6.54,0,0,0-1.06-3.84,10.67,10.67,0,0,0-3.18-3,29.92,29.92,0,0,0-9.09-3.55,88.3,88.3,0,0,0-20.29-2.05h.14q-25.57,2.39-51.17,4.22c-17.07,1.21-34.16,2.27-51.3,2.79-8.57.24-17.15.38-25.78,0a87.14,87.14,0,0,1-13-1.48,43,43,0,0,1-12.57-4.4,27.14,27.14,0,0,1-5.5-4.08,22.27,22.27,0,0,1-4.15-5.53,27.75,27.75,0,0,1-3-13.2,26.14,26.14,0,0,1,3.22-13.17,23.23,23.23,0,0,1,10-9.19,39.13,39.13,0,0,1,12.84-3.63,55.08,55.08,0,0,1,13.21.07c1.1.15,2.21.33,3.31.59l3.12.73c2.08.47,4.16,1,6.24,1.43,4.16.89,8.33,1.79,12.52,2.57a342.65,342.65,0,0,0,50.65,6.1,322.54,322.54,0,0,0,51-1.94,60.14,60.14,0,0,0,12.21-2.89A31.19,31.19,0,0,0,409,206.26a19.69,19.69,0,0,0,6-10.33,23.48,23.48,0,0,0-.65-12Z"/><path d="M481.76,172A32.1,32.1,0,0,0,468,122.2,31.82,31.82,0,0,0,434.8,129l-.85.82-.88-.82a26.55,26.55,0,0,0-10.34-5.9,36.52,36.52,0,0,0-12-1.51A25.15,25.15,0,0,0,399.55,125a47.27,47.27,0,0,0-9.6,7.37l-1.22,1.18-1.28-1.18a22.31,22.31,0,0,0-10.28-5.2,37.66,37.66,0,0,0-5.93-.86c-1-.07-2-.11-3-.12s-2.1,0-3,.06a23,23,0,0,0-10.66,4,59.39,59.39,0,0,0-9.33,7.72l-1.71,1.69L341.66,138A30.27,30.27,0,0,0,332,132a29.3,29.3,0,0,0-11.14-1.89,29.55,29.55,0,0,0-20.13,8.58l-2.37,2.36-2.61-2.35a57.88,57.88,0,0,0-9.43-7.17,21.15,21.15,0,0,0-10-3.24c-.73,0-1.86,0-2.81.07s-1.95.12-2.91.23a35.48,35.48,0,0,0-5.52,1,19.43,19.43,0,0,0-8.85,4.92l-3.1,3.11-3.46-3.11a43.9,43.9,0,0,0-9.21-6.53,21,21,0,0,0-9.7-2.54c-.37,0-.85,0-1.31,0s-.93,0-1.38.09c-.92.08-1.82.19-2.71.34a30,30,0,0,0-5.12,1.31,22.08,22.08,0,0,0-8.37,5.23L208,136.44l-4.46-3.94a26.5,26.5,0,0,0-18.29-6.67,25.71,25.71,0,0,0-17.43,7.46,25,25,0,0,0-7.52,16.86,24.43,24.43,0,0,0,5.91,17l4.39,5.06-4.39,5.89a23.81,23.81,0,0,0-4.71,15.12,23.18,23.18,0,0,0,5.65,14.37l5,5.72-5,6.75a22.85,22.85,0,0,0-4.52,14.37,22.19,22.19,0,0,0,5.32,13.74l5.52,6.4-5.52,7.35a21.65,21.65,0,0,0-4.31,13.73,21,21,0,0,0,5.1,13.08l6.05,7-6.05,8.07a21,21,0,0,0-4.08,10.72,21.21,21.21,0,0,0,.32,5.75,21.8,21.8,0,0,0,1.85,5.32,20.56,20.56,0,0,0,7.7,8.13,18.67,18.67,0,0,0,5.1,2.14,8.54,8.54,0,0,0,1.33.3,8.81,8.81,0,0,0,1.35.21l1.36.14c.47,0,.94,0,1.41,0h.7c.23,0,.46-.06.69-.09.46,0,.91-.1,1.37-.13l1.34-.31.67-.13.65-.22c.43-.15.86-.28,1.29-.42s.83-.39,1.24-.57a5.83,5.83,0,0,0,.62-.28l.59-.35c.38-.24.8-.43,1.17-.69a22.31,22.31,0,0,0,4.07-3.6c.31-.33.54-.73.83-1.08l.42-.53c.14-.18.23-.39.35-.58.23-.39.47-.77.71-1.15s.37-.81.57-1.22c.09-.2.21-.39.29-.6l.21-.63c.14-.43.33-.83.45-1.26a21.28,21.28,0,0,0,.56-2.61c0-.44.17-.87.18-1.32s0-.9,0-1.35a13.31,13.31,0,0,0-.12-2.68,18.79,18.79,0,0,0-4.17-9.62l-7-8.6,7-9a18.7,18.7,0,0,0,4-11.8,19.22,19.22,0,0,0-1.08-6.19,18.71,18.71,0,0,0-3.07-5.45l-7.21-8.89,7.21-9a18.63,18.63,0,0,0-.07-23.23l-7.22-9.15,7.22-8.9a18.26,18.26,0,0,0,3.84-8.39,22.44,22.44,0,0,0,.27-2.33c.05-.79,0-1.58-.07-2.36l0-.6-.07-.88c0-.32,0-.65,0-1a18.15,18.15,0,0,1,.06-1.95,19.26,19.26,0,0,1,2.25-7.58,18.71,18.71,0,0,1,9.49-8.52,18.17,18.17,0,0,1,4.24-1.15,20.06,20.06,0,0,1,7,.2,30.29,30.29,0,0,1,3.75,1l1.48.5a2.75,2.75,0,0,0-.7-.1,3.64,3.64,0,0,0-.57,0h1.05l1.62-.05c1-.06,2-.14,2.95-.26a19,19,0,0,0,4.47-1.07,8.92,8.92,0,0,0,2.7-1.62l10.37-8.83,9.08,8.83a26.22,26.22,0,0,0,6.6,4.59,33.69,33.69,0,0,0,8.25,2.85l.54.12.4.06c.26.06.56.09.85.13.59.07,1.21.11,1.84.13a20,20,0,0,0,3.61-.21,12.94,12.94,0,0,0,2.75-.73,5.32,5.32,0,0,0,1.24-.65l10.87-7.92,8,7.93a19.23,19.23,0,0,0,13.17,5.56,19.72,19.72,0,0,0,7.27-1.23,20.47,20.47,0,0,0,6.36-3.87l9.62-8.56,8.39,8.56a9,9,0,0,0,4.41,2.5,10.07,10.07,0,0,0,2.78.27,4.71,4.71,0,0,0,.75,0,6.89,6.89,0,0,0,.76-.1,5.5,5.5,0,0,0,.77-.15c.27-.07.45-.09,1-.25a87.55,87.55,0,0,0,10.24-3.42,25.87,25.87,0,0,0,7.1-4.19l8.92-7.87,7.92,7.88a10.81,10.81,0,0,0,3.83,2.51,23.8,23.8,0,0,0,6.29,1.43c1.25.12,2.56.21,3.93.25h0l-.13,0s0,0,.07,0a7.72,7.72,0,0,0,1.16-.27l2.45-.75c.51-.15,1.13-.31,1.78-.47s1.34-.27,2-.36a21.22,21.22,0,0,1,2.12-.09,16,16,0,0,1,8.15,2.43,16.11,16.11,0,0,1,7.53,13.87c0,.67-.08,1.35-.16,2s-.25,1.3-.41,1.94l-.27.94a21.94,21.94,0,0,0-.62,3.11,22.64,22.64,0,0,0,.13,6.42,22.17,22.17,0,0,0,5.72,11.48l7.45,7.92-7.45,7a22.57,22.57,0,0,0-5.16,7.17,23.45,23.45,0,0,0-2.05,8.71,23.11,23.11,0,0,0,1.43,9,23.6,23.6,0,0,0,4.85,7.84l6.51,7-6.51,6a23.79,23.79,0,0,0-5.49,7.58,24.22,24.22,0,0,0-2.19,9.23,24.71,24.71,0,0,0,1.54,9.51,25.18,25.18,0,0,0,5.15,8.3l5.53,5.91-5.53,5.14a25.27,25.27,0,0,0-5.79,8,25.87,25.87,0,0,0-.64,19.81,26.16,26.16,0,0,0,5.45,8.76l4.53,4.84-4.53,4.23A26.83,26.83,0,0,0,430,380a26.29,26.29,0,0,0-.64,8,25.38,25.38,0,0,0,1.7,7.85,27.6,27.6,0,0,0,4,7.11A29.69,29.69,0,0,0,441,408.6a26.4,26.4,0,0,0,7.37,3.74,26.05,26.05,0,0,0,8.19,1.42l1.06.05,1-.07c.7-.05,1.41-.08,2.11-.14a32,32,0,0,0,4.12-.85l1-.29a5.58,5.58,0,0,0,1-.33l2-.78c.65-.27,1.26-.64,1.89-1l.95-.49.89-.59a27.86,27.86,0,0,0,6.46-5.56,29,29,0,0,0,4.6-7.25,29.55,29.55,0,0,0-5.82-32.58l-2-2,2-1.88a30.59,30.59,0,0,0,7.19-33.22,30.89,30.89,0,0,0-6.6-10.14l-1.36-1.39,1.36-1.32a31.24,31.24,0,0,0,.43-44.38l-.94-.94.94-.91a31.79,31.79,0,0,0,7.16-34.64,31.39,31.39,0,0,0-6.9-10.42l-.67-.67.67-.66a32,32,0,0,0,9.45-23.81,31.9,31.9,0,0,0-6.53-18.37,8.2,8.2,0,0,1-1-1.57,5.35,5.35,0,0,1-.46-1.92A5.44,5.44,0,0,1,481.76,172Zm1.26,1a3.84,3.84,0,0,0-.82,2.62,3.53,3.53,0,0,0,.33,1.35,6.17,6.17,0,0,0,.83,1.26,32.47,32.47,0,0,1,3.63,5.9,33.77,33.77,0,0,1-6.58,38.53v-1.21a33.8,33.8,0,0,1,10,23.93,33.79,33.79,0,0,1-9.93,24V268a33.86,33.86,0,0,1,0,48v-1.35a33.8,33.8,0,0,1,7.4,11,33.92,33.92,0,0,1-7.36,37.05v-1.43a33.89,33.89,0,0,1,7.43,37,33.58,33.58,0,0,1-5.12,8.55,33,33,0,0,1-7.38,6.71l-1,.71-1.1.61c-.73.39-1.44.83-2.2,1.18l-2.31,1a7.15,7.15,0,0,1-1.17.43l-1.2.37a37,37,0,0,1-4.87,1.14c-.83.1-1.66.16-2.5.24l-1.24.11-1.25,0a31.49,31.49,0,0,1-9.88-1.44,32.27,32.27,0,0,1-9-4.28,35.7,35.7,0,0,1-7.4-6.7,34.18,34.18,0,0,1-5.14-8.56,31.88,31.88,0,0,1-2.44-9.7,33.11,33.11,0,0,1,.47-10,34.11,34.11,0,0,1,9.33-17.45v1.63a34.13,34.13,0,0,1,0-48.33v1.71a34.19,34.19,0,0,1,0-48.41v1.79a34.21,34.21,0,0,1,0-48.47v1.85a34.32,34.32,0,0,1-9.39-17.4,34.88,34.88,0,0,1-.56-10,34.4,34.4,0,0,1,.82-4.94l.3-1.2.09-.43,0-.43a3.37,3.37,0,0,0-.42-1.65,3.21,3.21,0,0,0-2.76-1.7,4,4,0,0,0-.85.1c-.36.09-.72.19-1.09.31l-2.27.75a15.8,15.8,0,0,1-5.14,1c-1.63,0-3.28-.06-4.92-.18a37.86,37.86,0,0,1-9.79-1.94,24.63,24.63,0,0,1-8.68-5.24h1.9a38.55,38.55,0,0,1-10.79,6.94A98.66,98.66,0,0,1,367,191.15a26.17,26.17,0,0,1-12.95.82,23.54,23.54,0,0,1-11.6-6h2a34.35,34.35,0,0,1-47.25,0h2a22.69,22.69,0,0,1-11.86,5.45,35.3,35.3,0,0,1-12.84-.19,49.51,49.51,0,0,1-12.07-4,42.06,42.06,0,0,1-10.55-7.2H254a24.62,24.62,0,0,1-7.41,4.77,33.68,33.68,0,0,1-8.4,2.19c-1.42.19-2.85.32-4.26.39-.71,0-1.42.06-2.13.08s-1.33.05-2.25,0a19.11,19.11,0,0,1-4.35-1.14,7.58,7.58,0,0,0-3.34-.58,2.84,2.84,0,0,0-2.11,1.51,3.4,3.4,0,0,0-.4,1.37,4.48,4.48,0,0,0,0,.73l.07,1.09a41.86,41.86,0,0,1,.12,4.34,39.07,39.07,0,0,1-.47,4.32A34.31,34.31,0,0,1,212,214.83v-2A34,34,0,0,1,217.65,223a34.59,34.59,0,0,1,0,22.9A34.25,34.25,0,0,1,212,256v-1.95a34.4,34.4,0,0,1,7.57,21.58,34.38,34.38,0,0,1-7.61,21.56v-1.91a34.4,34.4,0,0,1,7.34,17.63,28.75,28.75,0,0,1,.18,4.82l-.13,2.41c-.05.81-.23,1.6-.34,2.39a36,36,0,0,1-1.1,4.7c-.24.77-.57,1.51-.84,2.27l-.44,1.13c-.15.37-.35.72-.53,1.08L215,333.9l-1.3,2c-.23.34-.42.69-.67,1l-.75.95c-.51.62-1,1.28-1.52,1.87a36.56,36.56,0,0,1-3.48,3.34,34.1,34.1,0,0,1-3.88,2.87c-.67.44-1.4.79-2.09,1.19l-1.06.58c-.36.19-.74.32-1.11.49l-2.22.94-2.31.71-1.16.35-1.18.23c-.79.15-1.58.32-2.37.46l-2.4.21c-.41,0-.81.08-1.21.1l-1.2,0-2.41,0-2.4-.27a20.61,20.61,0,0,1-2.37-.43,17.05,17.05,0,0,1-2.34-.59,32.41,32.41,0,0,1-8.77-4,34.89,34.89,0,0,1-12.68-14.19,36,36,0,0,1-2.89-9.17A35.1,35.1,0,0,1,151,313a34.2,34.2,0,0,1,7.35-17.55v1.73a34.27,34.27,0,0,1,0-42.91v1.67a34.32,34.32,0,0,1-5.57-32.8A34.07,34.07,0,0,1,158.38,213v1.61a34,34,0,0,1-7.5-21.41,34.12,34.12,0,0,1,7.53-21.37v1.55a34.13,34.13,0,0,1,50.07-46.15h-1.57a29.23,29.23,0,0,1,11.23-6.52,39.72,39.72,0,0,1,12.8-1.75,27.89,27.89,0,0,1,12.47,3.63,50.17,50.17,0,0,1,10.29,7.68h-1.5a25.36,25.36,0,0,1,11.54-6.06,41.16,41.16,0,0,1,6.4-1,51.32,51.32,0,0,1,6.46-.17,26.34,26.34,0,0,1,12.29,4.28,62.91,62.91,0,0,1,10,8h-1.44a33.91,33.91,0,0,1,46.65,0h-1.37a63.18,63.18,0,0,1,10-8,26.25,26.25,0,0,1,12.26-4.24,52.94,52.94,0,0,1,6.44.18,40.74,40.74,0,0,1,6.38,1,25.28,25.28,0,0,1,11.48,6h-1.3a49.51,49.51,0,0,1,10.27-7.64,27.45,27.45,0,0,1,12.39-3.58A39.48,39.48,0,0,1,423.43,121a29,29,0,0,1,11.13,6.49h-1.24a33.81,33.81,0,0,1,35.35-7,34,34,0,0,1,21.54,28.85A33.71,33.71,0,0,1,483,173Z"/><path class="cls-1" d="M194.36,346.11s-13.9,3.36-21.76,10.29"/><path d="M181.89,349.52s-12.18,4.2-17,12.2-4.69,10.3-3.41,10.56.51-8.17,7.31-12.51A105.66,105.66,0,0,0,181.89,349.52Z"/><path d="M181.89,347a42.15,42.15,0,0,0-9.13,4.57,28.32,28.32,0,0,0-6.48,5.62,34.13,34.13,0,0,0-4.8,8.32c-1.06,2.54-.92,5.06-.83,7.8,0,.46.27,1.91,1.06,1.34.36-.27.45-1.17.55-1.57.23-1,.46-1.91.75-2.86a14.88,14.88,0,0,1,4.07-6.71,54.86,54.86,0,0,1,5-3.53c1.67-1.2,3.31-2.46,4.9-3.76s3.33-2.75,4.91-4.22c.27-.25,0-2.12,0-2.5,0-.59,0-1.18,0-1.77a3,3,0,0,1,0-.73,96.49,96.49,0,0,1-11.79,9.36c-2.48,1.66-4.55,3.29-5.94,6a26.15,26.15,0,0,0-1.92,5.8c-.13.52-.37,2.12-1.22,1.41a1.66,1.66,0,0,1-.25-.34c-.05-.07,0-.18-.07-.26a.59.59,0,0,1,0-.13v4.37a1.37,1.37,0,0,1,0-.19,14.77,14.77,0,0,1,.74-2.4,29.47,29.47,0,0,1,10.38-13.41A41.49,41.49,0,0,1,181.89,352a13.7,13.7,0,0,0,0-2.5A17.65,17.65,0,0,1,181.89,347Z"/></svg>