<svg id="Слой_1" data-name="Слой 1" xmlns="http://www.w3.org/2000/svg" viewBox="0 0 600 600"><title>больничные пиктограммы</title><path d="M419.87,213.22c-8.33-1-16.73-1.64-25.1-1.84s-16.7-.22-25,.28-16.5,1.28-24.59,2.59a176.44,176.44,0,0,0-23.74,5.48c-15.38,4.64-29.84,11.62-41.45,21.56a97,97,0,0,0-8.21,7.87,85.2,85.2,0,0,0-7.14,8.73,91.44,91.44,0,0,0-5.93,9.58l-3.15,5.71-3.24,5.62c-4.31,7.39-8.58,14.51-12.44,21.64a169.33,169.33,0,0,0-10.12,21.21,74.22,74.22,0,0,0-5,20.69c0,1.65-.05,3.23-.06,4.91l.16,2.69c0,.9.17,1.8.25,2.7A86.63,86.63,0,0,0,227,363.45c3.36,14.41,9.88,28.58,18.32,41.61a175.18,175.18,0,0,0,13.84,18.77A139,139,0,0,0,275.22,440a110.08,110.08,0,0,0,18.52,12.39A178.48,178.48,0,0,0,315,462a189.43,189.43,0,0,0,45.5,11.11,102.41,102.41,0,0,0,22.23.25,51.82,51.82,0,0,0,9.6-2,19.17,19.17,0,0,0,6.36-3.32c1.3-1.05,3.07-3.66,4.53-6.64l.57-1.12.53-1.21c.34-.82.72-1.61,1-2.46.63-1.73,1.33-3.43,1.91-5.26A165.29,165.29,0,0,0,413,428.44c1.47-7.93,2.58-16,3.41-24.15s1.36-16.34,1.73-24.52.4-16.38-.08-24.39a105.87,105.87,0,0,0-1.24-11.64l-.24-1.38-.29-1.28L416,339.8l-.33-1.11-.16-.57c-.06-.19-.12-.28-.17-.43s-.21-.53-.32-.82l-1.41-2.68c-3.87-7.2-8.17-14.51-12.41-21.75S392.53,298,388.3,290.68l-12.88-21.82c-4.21-7.33-8.54-14.59-12.7-22L364,246q14.52,20.73,28.85,41.58Q400,298,407.11,308.49c4.69,7,9.39,14,13.85,21.22l1.65,2.73a23.12,23.12,0,0,1,1.39,3.05l.57,1.54.44,1.56.44,1.56.35,1.57a111.56,111.56,0,0,1,2,12.63c.9,8.45,1.21,16.92,1.27,25.38a339.17,339.17,0,0,1-3.52,50.63,181,181,0,0,1-5.34,24.9,84.19,84.19,0,0,1-4.45,12,36.72,36.72,0,0,1-7.21,10.91A32.17,32.17,0,0,1,397.25,485a62.07,62.07,0,0,1-12.59,3,116.94,116.94,0,0,1-25.57.25A185.33,185.33,0,0,1,334,484a203.63,203.63,0,0,1-24.41-7.28c-15.9-5.87-31.38-13.51-44.62-24.47A152.38,152.38,0,0,1,247,434.07a187.79,187.79,0,0,1-15-20.59c-9-14.39-16.22-30.12-19.82-46.85A101.92,101.92,0,0,1,210.27,354c-.07-1.07-.2-2.14-.23-3.21l-.13-3.21c0-2.15.11-4.31.23-6.47a86.56,86.56,0,0,1,6.49-24.79c6.52-15.8,16-30,24.89-44.24l3.32-5.36,3.22-5.41a102.74,102.74,0,0,1,7.14-10.63,98.15,98.15,0,0,1,18.1-18c13.56-10.46,29.61-17.22,46.07-21.28a203.23,203.23,0,0,1,50.46-5.23q12.71.16,25.34,1.55a234.78,234.78,0,0,1,25.07,4Z"/><path d="M359.1,393.18a9.81,9.81,0,0,0,.77-1.59c.24-.57.47-1.16.67-1.77.42-1.2.75-2.46,1.07-3.7a69.19,69.19,0,0,0,1.57-7.46A83.82,83.82,0,0,0,364.25,364a54.18,54.18,0,0,0-1.83-13.38,44,44,0,0,0-2.13-5.82,34.46,34.46,0,0,0-2.92-5.08c-.51-.81-1.13-1.54-1.71-2.29a13.57,13.57,0,0,0-1-1.06l-.47-.53c-.16-.17-.31-.34-.53-.55-1.64-1.61-3.12-3.38-4.83-4.82s-3.37-2.9-5-4.34l-2.63-2c-.89-.65-1.84-1.25-2.75-1.88s-1.94-1.2-2.88-1.84-2.05-1.27-3.07-1.9l-3.41-2.07-1.86-1.17c-.32-.21-.61-.37-.95-.61l-1-.7c-.69-.47-1.34-.93-2-1.46l-2.16-1.78a26.56,26.56,0,0,1-2.18-2l-1.09-1.11a12.28,12.28,0,0,1-1.06-1.18c-.68-.86-1.35-1.73-2-2.62a10.5,10.5,0,0,1-.91-1.37L313,301a33,33,0,0,1-2.67-5.84,20.88,20.88,0,0,1-.85-2.87l-.68-2.82a13.7,13.7,0,0,1-.28-1.65l-.23-1.77c-.13-1.19-.11-2.28-.13-3.43a38.47,38.47,0,0,1,2.16-12.1,50.46,50.46,0,0,1,2.18-5.19c.85-1.6,1.69-3.23,2.66-4.69s2-2.89,3-4.29c.52-.69,1.08-1.33,1.63-2s1.11-1.3,1.7-1.89a64.39,64.39,0,0,1,15.35-11.93c1.39-.73,2.77-1.5,4.17-2.17s2.81-1.35,4.26-1.88,2.87-1.12,4.32-1.57,2.89-.94,4.35-1.32,2.91-.77,4.38-1.07l4.38-.8,4.38-.57c1.45-.2,2.92-.21,4.37-.32a94.67,94.67,0,0,1,17.13.64,97.63,97.63,0,0,1,16.33,3.54c2.65.77,5.24,1.72,7.8,2.65,1.28.49,2.54,1.07,3.79,1.62s2.49,1.12,3.72,1.73l-.31,1.57a148.1,148.1,0,0,0-31.13-2.47,105.69,105.69,0,0,0-15.49,1.53,82.84,82.84,0,0,0-15,4,70.55,70.55,0,0,0-13.82,6.84,55.41,55.41,0,0,0-11.6,10c-.43.46-.82,1-1.21,1.47s-.8,1-1.17,1.51c-.71,1-1.47,2.07-2.08,3.17s-1.21,2.22-1.79,3.33a37.33,37.33,0,0,0-1.35,3.51,23.84,23.84,0,0,0-1.24,7.25,17.93,17.93,0,0,0,.09,1.8c.1.6.12,1.18.28,1.79l.47,1.8a9.55,9.55,0,0,0,.54,1.77l.66,1.72a10.75,10.75,0,0,0,.83,1.62l.44.8a4.29,4.29,0,0,0,.49.76l1.1,1.46a30.23,30.23,0,0,0,5.56,5c4.16,3,8.77,5.67,13,8.9,1.05.83,2.13,1.61,3.15,2.47l3,2.61c1.93,1.86,3.88,3.68,5.63,5.7s3.44,4.07,5.13,6.13a44,44,0,0,1,4.32,6.86,44.87,44.87,0,0,1,4.55,15.47,57.82,57.82,0,0,1-.53,16,73.91,73.91,0,0,1-4.45,15.32,71.12,71.12,0,0,1-3.45,7.21c-.67,1.15-1.34,2.31-2.12,3.42-.38.55-.78,1.1-1.23,1.63a8.52,8.52,0,0,1-1.57,1.54Z"/><path d="M218,383.34A109,109,0,0,1,188.66,364a93.59,93.59,0,0,1-12.12-13.55A75.16,75.16,0,0,1,167.31,334c-.6-1.49-1.2-3-1.68-4.54-.24-.78-.51-1.54-.72-2.33l-.62-2.37c-.44-1.58-.68-3.21-1-4.83s-.43-3.13-.64-4.7a69.36,69.36,0,0,1,.07-19.67,66.19,66.19,0,0,1,6.12-19.29c2.73-5.77,5.46-10.54,7.5-15a68.19,68.19,0,0,0,4.41-13.47l.7-3.47.45-3.6.23-1.79c.07-.6.11-1.34.17-2l.34-4.09.63-8.26.54-8.34.93-16.77,1.66-33.73L187.93,132l.64-13.78,13.23.22c5.73.1,11.47.31,17.21.46l8.61.25,8.6.34,12.66.49.15,11.71c.15,11.83.12,23.68.05,35.52L248.83,185l-.45,17.78c-.41,11.87-.86,23.73-1.59,35.61s-1.57,23.76-2.87,35.66l-1.6.08-2-35.43c-.66-11.81-1.33-23.62-1.91-35.43l-3.62-70.88,1.4,1.33-34.42.08,1.48-1.45q-.37,17.05-1,34.07t-1.7,34c-.73,11.35-1.56,22.69-2.78,34-.35,2.84-.56,5.66-1.09,8.51l-.69,4.27-1,4.22a77.84,77.84,0,0,1-6.14,16.17c-2.62,5.13-5.7,9.94-8.34,14.87a55.3,55.3,0,0,0-5.8,15.54l-.43,2-.24,2.07-.23,2.06a16,16,0,0,0-.16,2.08l-.1,4.18,0,1.05.06,1,.13,2.1a60,60,0,0,0,2.88,16.4c3.43,10.62,9.5,20.31,16.83,28.81a123.35,123.35,0,0,0,11.93,11.94A115.91,115.91,0,0,0,218.77,382Z"/><path d="M335.22,207.46a12.25,12.25,0,0,0-1.11-6.33,9.4,9.4,0,0,0-3.2-3.47l-.9-.61-1-.57c-.37-.17-.68-.37-1-.55l-1.06-.55c-.78-.33-1.46-.72-2.26-1.06l-.57-.27-.62-.25c-.42-.16-.78-.36-1.19-.54-.86-.35-1.62-.71-2.53-1-.44-.17-.85-.37-1.27-.55l-1.33-.52-5.43-2.11c-.91-.35-1.84-.73-2.79-1.08s-1.85-.76-2.83-1.11l-1.42-.57L304,186l-.93-.39c-1.22-.56-2.45-1.1-3.67-1.69a51.47,51.47,0,0,1-14.1-10.21A36.69,36.69,0,0,1,282.2,170c-.5-.67-1-1.33-1.44-2l-1.3-2.23a25.76,25.76,0,0,1-1.18-2.35,17.33,17.33,0,0,1-1-2.46c-.28-.87-.57-1.7-.78-2.58s-.39-1.78-.56-2.66a26.43,26.43,0,0,1-.29-5.39,23,23,0,0,1,.73-5.16,25.7,25.7,0,0,1,4-8.68,26.37,26.37,0,0,1,6.08-6.12,22.53,22.53,0,0,1,7.44-3.64l1.14,1.12a32.66,32.66,0,0,0-6.49,11.46,20.36,20.36,0,0,0-.27,12.65,22,22,0,0,0,2.9,5.67l1,1.3c.35.41.72.81,1.08,1.21a31.34,31.34,0,0,0,2.31,2.3,50.44,50.44,0,0,0,11.1,7.22c4,1.93,8.31,3.77,12.35,6a67.22,67.22,0,0,1,11.64,7.73,38.45,38.45,0,0,1,5,5.09,20.92,20.92,0,0,1,3.54,6.31,15.77,15.77,0,0,1,.75,3.61,14.69,14.69,0,0,1-.21,3.69,13.45,13.45,0,0,1-3.24,6.53Z"/><path d="M238.76,199.7a50.4,50.4,0,0,0,4.55-11.49,59.64,59.64,0,0,0,1.66-9.93c0-.39.1-.76.14-1.15l0-1.21c0-.8.19-1.52.19-2.33,0-1.62.18-3.1.15-4.74,0-.8.07-1.57.1-2.36s0-1.64,0-2.45l0-1.22,0-.6v-.7l0-2.78.07-1.39c0-.45,0-.91,0-1.36l.12-2.7c.05-.89.05-1.77.13-2.66s.06-1.77.14-2.67l.06-1.42c0-.5.06-.9.08-1.49s0-1.11.09-1.67l.15-2c0-.37.05-.64.1-1.08l.14-1.26.17-1.25c.07-.43.18-.88.29-1.32a29.1,29.1,0,0,1,1.66-4.88c.33-.67.67-1.3,1-1.93l.55-.94c.19-.29.38-.53.56-.8a27.36,27.36,0,0,1,2.29-3c.8-.86,1.55-1.78,2.39-2.56s1.66-1.55,2.52-2.3a62.87,62.87,0,0,1,5.46-4.17,46.25,46.25,0,0,1,6.25-3.6l1.4.77c-1.84,3.65-3.68,7.29-5.44,11a70.24,70.24,0,0,0-4.64,11,18.14,18.14,0,0,0-.51,5.61c.11,1.93.38,4,.55,6.05a114.37,114.37,0,0,1,.35,12.41c-.08,2.06-.14,4.12-.38,6.21l-.3,3.12-.54,3.09A54.57,54.57,0,0,1,259,177.7c-.27,1-.69,2-1,3l-.56,1.47c-.21.48-.46,1-.68,1.43a38.39,38.39,0,0,1-7,10.48,35.45,35.45,0,0,1-4.81,4.1,24.44,24.44,0,0,1-5.61,3Z"/><path d="M309.23,173.46a9.47,9.47,0,0,1-2.93-.38,11.14,11.14,0,0,1-2.57-1.2,14.82,14.82,0,0,1-4.09-3.88c-.52-.75-1-1.55-1.46-2.39a22.63,22.63,0,0,1-1.05-2.49,21.79,21.79,0,0,1-1.19-5.12,18.21,18.21,0,0,1-.16-2.49c0-.81,0-1.63.07-2.45,0-.4,0-.83.09-1.22s.12-.75.19-1.12c.12-.75.28-1.5.45-2.24s.37-1.51.59-2.2.52-1.33.78-2a31.41,31.41,0,0,1,1.86-3.82c.72-1.14,1.48-2.27,2.3-3.34.43-.53.82-1.09,1.28-1.58s.91-.95,1.39-1.39a26.93,26.93,0,0,1,6.38-4.67,29.45,29.45,0,0,1,17.32-3.31l1.14,1.13c-2.83,3.48-5.81,6.79-8.49,10.33a97.38,97.38,0,0,0-7.5,10.88,42.83,42.83,0,0,0-5,11.88,19.72,19.72,0,0,0-.47,3.13c0,.52-.08,1-.08,1.57l.12,1.55a12.36,12.36,0,0,0,.66,3,9.27,9.27,0,0,0,1.42,2.62Z"/><path d="M332.41,188a15.47,15.47,0,0,1-5-1.8,19.88,19.88,0,0,1-3.94-2.93,22.59,22.59,0,0,1-5.19-7.91A26.3,26.3,0,0,1,318.4,157a26.58,26.58,0,0,1,11-13.5,25.19,25.19,0,0,1,8.09-3.16,23.85,23.85,0,0,1,9.65.12l1,1.23c-.76.78-1.53,1.56-2.31,2.32l-2.21,2.39c-.7.82-1.43,1.61-2.12,2.45s-1.36,1.66-2,2.55a58.08,58.08,0,0,0-3.5,5.37,38.9,38.9,0,0,0-2.63,5.77,33.45,33.45,0,0,0-2.21,12.36,32.67,32.67,0,0,0,.69,6.3,28.67,28.67,0,0,0,1.89,6Z"/></svg>