<svg id="Слой_1" data-name="Слой 1" xmlns="http://www.w3.org/2000/svg" viewBox="0 0 600 600"><title>больничные пиктограммы</title><path d="M191.41,176c.25,2.31.43,4.62.61,6.93s.39,4.61.48,6.91c.23,4.6.53,9.21.7,13.8l.24,6.89.15,6.88c.12,4.59.11,9.17.15,13.75l-2.9-7.34c2.57,1.77,5.06,3.63,7.59,5.44s5,3.63,7.53,5.5c5,3.7,10,7.4,14.89,11.2l7.39,5.67,7.3,5.76c4.89,3.81,9.69,7.74,14.5,11.65l-1.82-1.35-.57-.34c-.07,0-.15-.08-.12-.08s-.05,0,0,0l.41.09.27.06.33.06a6.24,6.24,0,0,0,.72.13c1,.17,2.24.29,3.49.38a47.19,47.19,0,0,0,8.33-.4,87.36,87.36,0,0,0,17.69-4.17,18.92,18.92,0,0,0,1.93-.77c.61-.28,1.27-.51,1.86-.78a33.84,33.84,0,0,0,3.2-1.73,22.13,22.13,0,0,0,2.57-1.81q.47-.49,1-.93c.34-.3.5-.64.79-.93a12.41,12.41,0,0,0,2.08-4.16,21.47,21.47,0,0,0,.39-6.39c-.2-1.29-.2-2.55-.52-4-.13-.68-.24-1.38-.38-2.06l-.54-1.94a35.23,35.23,0,0,0-1.36-4.17c-.46-1.41-1.16-2.92-1.75-4.43-2.5-6-5.69-12.2-8.9-18.41l-2.51-4.64L274,201.67c-1.71-3.11-3.45-6.21-5.25-9.28s-3.55-6.21-5.38-9.28L258,173.92l1.6,1.57c-3.14-2.86-6.25-5.79-9.34-8.73s-6.15-5.92-9.22-8.9l-9.06-9.12c-1.51-1.51-3-3.11-4.45-4.67s-2.95-3.13-4.39-4.75L224,138,244.6,153c6.84,5,13.72,9.94,20.54,15l.14.1.1.13c8.83,11.59,17.2,23.48,24.95,35.82a214.91,214.91,0,0,1,10.72,19.11c.78,1.65,1.61,3.29,2.28,5a51.34,51.34,0,0,1,2,5.19l.87,2.66c.23.9.42,1.81.64,2.72a53.16,53.16,0,0,1,1,5.5,37.38,37.38,0,0,1-.35,11.31A27,27,0,0,1,302.75,266a28,28,0,0,1-1.83,2.22l-2,2a37.25,37.25,0,0,1-4.57,3.39,47.37,47.37,0,0,1-4.92,2.74c-.85.4-1.72.74-2.57,1.1a27.49,27.49,0,0,1-2.61,1c-1.75.61-3.51,1.22-5.3,1.67l-2.67.72-2.69.61a91,91,0,0,1-10.92,1.75,60,60,0,0,1-11.14.14,40.91,40.91,0,0,1-5.58-.86c-.47-.09-.93-.21-1.39-.34s-.92-.26-1.37-.42-.92-.33-1.37-.51a11,11,0,0,1-1.43-.7l-.1-.05-.1-.09-55.79-49.11-.48-.43.07-.62,1.43-13.59L186.85,203l3-27.17Z"/><path d="M183.73,230.24a8,8,0,0,1-1.69-.06c-.53-.06-1-.18-1.6-.29a23.56,23.56,0,0,1-2.91-.93,35.71,35.71,0,0,1-5.12-2.46,47.74,47.74,0,0,1-8.23-6.16,52.7,52.7,0,0,1-11.06-15,54.27,54.27,0,0,1-5.31-17.53,53.68,53.68,0,0,1-.27-9.79,49.35,49.35,0,0,1,.64-5.23c.14-.89.34-1.8.55-2.71l.35-1.39.2-.68c.05-.29.21-.34.29-.59l1.08-1.18a7.14,7.14,0,0,1,.8,1.11l.59,1,1.11,2,2.16,3.94,4.1,8,8,16c2.61,5.36,5.33,10.66,8.07,15.92,1.37,2.64,2.78,5.25,4.27,7.79.73,1.29,1.47,2.56,2.28,3.77a16.45,16.45,0,0,0,2.63,3.28Z"/><path d="M147.47,242.09a29.56,29.56,0,0,1,1.09-4.26,31.43,31.43,0,0,1,1.36-3.45,26.73,26.73,0,0,1,1.55-2.88,20.15,20.15,0,0,1,1.7-2.44,18.62,18.62,0,0,1,8.09-6,18.27,18.27,0,0,1,9.82-.83,23.69,23.69,0,0,1,5.66,1.78,31.64,31.64,0,0,1,6.34,3.81l.27-.08a2.1,2.1,0,0,0-.77,1,1.37,1.37,0,0,0,0,1,1,1,0,0,0,.53.56.59.59,0,0,0,.61-.08l1-1.29a1.36,1.36,0,0,1,.58,1.37,1.45,1.45,0,0,1-1,1.15l.09,0c-2.94,1.27-5.92,2.42-8.9,3.57s-6,2.15-9,3.2-6.06,2-9.13,2.88l-4.61,1.33c-1.55.39-3.09.83-4.66,1.17Z"/><path d="M225.6,264.7A58.24,58.24,0,0,1,237,280.28c.76,1.45,1.4,3,2.1,4.49.31.78.58,1.57.88,2.36s.57,1.59.81,2.42.53,1.64.74,2.48l.56,2.59c.2.85.34,1.75.46,2.65s.28,1.81.34,2.74c.06,1.88.18,3.79.06,5.71,0,1-.11,1.82-.18,2.74l-.32,2.59a80.41,80.41,0,0,1-1.9,9.84c-.38,1.6-.83,3.16-1.27,4.74s-1,3.1-1.52,4.63-1.11,3.05-1.67,4.58-1.25,3-1.91,4.47a104.37,104.37,0,0,1-22.4,32.6,77.71,77.71,0,0,1-16.86,12.34,64.54,64.54,0,0,1-10,4.15,56.79,56.79,0,0,1-10.62,2.21l7.5-9.59c-.53,2.84-1,5.67-1.67,8.51s-1.29,5.68-2,8.52l-1.14,4.26-1.27,4.25c-.46,1.42-.89,2.84-1.42,4.26s-1,2.84-1.59,4.26h-1.6l-.3-17c-.05-2.84-.12-5.68-.12-8.52L170.7,381v-1l1-.25a54.16,54.16,0,0,0,15.75-7.11,76.73,76.73,0,0,0,13.22-11.34,110.14,110.14,0,0,0,10.81-13.79,140.92,140.92,0,0,0,8.91-15.16,137.4,137.4,0,0,0,7-16.15c1-2.75,1.9-5.55,2.63-8.37.36-1.41.7-2.82,1-4.24s.36-2.84.51-4.26a62.52,62.52,0,0,0-1.78-17.28,93.75,93.75,0,0,0-5.5-16.69Z"/><path d="M303.57,230.28a86,86,0,0,0,5.79,8l3.08,3.87,3.15,3.8c4.3,5,8.66,9.86,13.14,14.47a114.44,114.44,0,0,0,13.81,12.33c.57.43,1.15.77,1.72,1.16l.85.57.21.15,0,0,.06,0c.35,0,1.3.31,2.41.48s2.42.33,3.78.45,2.79.19,4.26.21c2.93.08,6-.05,9.06-.18s6.21-.36,9.34-.66c6.27-.62,12.6-1.31,18.91-2.29s12.64-1.93,18.93-3.15,12.56-2.41,18.77-3.85,12.41-2.89,18.47-4.61,12.09-3.46,17.88-5.54c2.89-1.05,5.74-2.11,8.51-3.23,1.39-.57,2.75-1.15,4.09-1.75l2-.92,1-.47.49-.24a4.32,4.32,0,0,0,.38-.21c4-2.14,7.11-4.57,9.37-8,.25-.45.52-.9.8-1.34a12.94,12.94,0,0,0,.73-1.44,24.27,24.27,0,0,0,1.32-3.1,35.07,35.07,0,0,0,1.6-7.24,66.68,66.68,0,0,0-.15-16.85,131,131,0,0,0-3.51-18c-.78-3-1.72-6-2.66-9-.47-1.5-1-3-1.5-4.48l-.8-2.21-.79-2.07-1.44-3.8.77-1.89,4.43-10.88c1.54-3.61,3-7.24,4.62-10.83l4.78-10.78c1.71-3.56,3.31-7.16,5.12-10.69l1.54.42-12,45.1-.11-.9a149.26,149.26,0,0,1,8.2,18.33,128.33,128.33,0,0,1,5.6,19.29,78.42,78.42,0,0,1,1.67,20.13,51,51,0,0,1-1.55,10.09,40.59,40.59,0,0,1-1.65,4.88,37.53,37.53,0,0,1-2.23,4.66,38.12,38.12,0,0,1-14.71,14.19,137.52,137.52,0,0,1-18.39,8.17A269.55,269.55,0,0,1,434.12,281a376.25,376.25,0,0,1-39.51,6c-6.63.64-13.29,1.09-20,1.26a152.89,152.89,0,0,1-20.06-.65,56.23,56.23,0,0,1-10-1.9,21.09,21.09,0,0,1-4.85-2.12,19.3,19.3,0,0,1-2.08-1.63c-.65-.55-1.32-1.08-1.94-1.65a109.7,109.7,0,0,1-13.29-15.08c-4-5.35-7.71-10.9-11.17-16.6-1.72-2.85-3.4-5.74-5-8.69a72,72,0,0,1-4.24-9.15Z"/><path d="M452.77,191.33a63.06,63.06,0,0,1,6.79-10.14,97.72,97.72,0,0,1,7.7-8.45,107.55,107.55,0,0,1,8.34-7.3,104.39,104.39,0,0,1,8.83-6.37l-4.53,20.67a131.46,131.46,0,0,1-9.73-12.61,115.9,115.9,0,0,1-8.11-13.83,105.3,105.3,0,0,1-6.21-15.23,71.52,71.52,0,0,1-3.46-17.29l1.28-1c3.29,4.17,6.62,8.31,9.87,12.51L473.26,145l9.6,12.71c3.21,4.22,6.35,8.51,9.5,12.78l1.07,1.44-1.57.84-9.52,5.12c-3.17,1.71-6.38,3.35-9.56,5s-6.37,3.36-9.6,5l-9.64,4.89Z"/><path d="M205.64,356.72a16.9,16.9,0,0,1,1.35-1.83l1.48-1.66a42.68,42.68,0,0,1,3.13-3,72.86,72.86,0,0,1,6.74-5.35c1.16-.85,2.35-1.65,3.55-2.4s2.41-1.58,3.66-2.25l3.75-2.1c1.28-.65,2.58-1.26,3.88-1.89a91.24,91.24,0,0,1,16.63-5.93c1.5-.34,3-.65,4.54-.92.75-.16,1.54-.25,2.34-.35l2.39-.28c.81-.07,1.58-.22,2.43-.23s1.69,0,2.54,0h2.54c.89.06,1.8.15,2.7.24L272,329c.9.1,1.9.33,2.84.53a43.91,43.91,0,0,1,5.68,1.79,39.33,39.33,0,0,1,10.32,6,50.28,50.28,0,0,1,7.83,8,67.66,67.66,0,0,1,5.46,8.57,73.81,73.81,0,0,1,3.86,8.44c.55,1.39,1.07,2.76,1.56,4.1s.88,2.71,1.3,4c1.69,5.28,3,10.34,4.27,14.81l1.05,3.57v.38l-.3,6.19-.51,6.15c-.41,4.11-.89,8.21-1.55,12.33s-1.43,8.22-2.42,12.33a90.4,90.4,0,0,1-3.8,12.28H306c-.08-4-.27-8-.5-12s-.53-8-.79-12q-.78-12-1.85-24.06l.11.44c-4.46-9.84-7.5-20.1-12.65-29.21A51.69,51.69,0,0,0,286,355a34.85,34.85,0,0,0-5.24-5.54,26.46,26.46,0,0,0-13.73-6,59.52,59.52,0,0,0-15.55,0,124.88,124.88,0,0,0-15.49,3.1l-3.82,1.06-3.79,1.18c-2.51.83-5,1.63-7.51,2.56-1.25.44-2.48.93-3.71,1.42s-2.45,1-3.66,1.53a43.3,43.3,0,0,0-6.9,3.61Z"/><path d="M401.12,341.17c-.38-.09-.84-.21-1.27-.29s-.87-.17-1.29-.24-.87-.1-1.29-.15a11,11,0,0,0-1.29-.07l-1.26-.05-1.27,0c-.81,0-1.66.08-2.47.14a58.46,58.46,0,0,0-9.47,1.77,119,119,0,0,0-17.86,6.83c-1.46.71-2.9,1.35-4.36,2.09l-4.44,2.17c-1.43.77-2.85,1.54-4.29,2.24s-2.79,1.51-4.12,2.29a86.71,86.71,0,0,0-7.56,4.78c-1.23.78-2.29,1.63-3.4,2.45-.55.42-1,.87-1.53,1.29l-.76.64c-.23.23-.45.46-.69.67-.46.44-1,.84-1.4,1.29l-1.3,1.33-1.17,1.39c-.41.45-.69,1-1.09,1.42a35.65,35.65,0,0,0-3.8,6.28,16.31,16.31,0,0,0-.73,1.6l-.28.67-.15.34a4,4,0,0,0-.14.48c-.19.67-.37,1.34-.6,2s-.4,1.5-.6,2.24c-.42,1.49-.72,3.13-1.11,4.75s-.74,3.31-1.12,5c-1.49,6.72-3,13.68-4.79,20.67-.92,3.5-1.86,7-3,10.56-.52,1.77-1.11,3.54-1.7,5.32s-1.22,3.56-2,5.34l-1.6,0q-.36-10.69-.39-21.38c.05-7.13.24-14.27.67-21.41.23-3.57.48-7.14.95-10.72.12-.89.2-1.79.36-2.68l.48-2.69c.14-.9.44-1.81.65-2.71a22.44,22.44,0,0,1,.85-2.63,45.51,45.51,0,0,1,12.1-18.2,57.93,57.93,0,0,1,8.73-6.59,89.67,89.67,0,0,1,9.53-5.19c1.63-.76,3.3-1.45,4.95-2.18l5-1.95,5.09-1.76c1.7-.56,3.45-1,5.17-1.55a79.59,79.59,0,0,1,21.4-3.16,47,47,0,0,1,10.81,1.49A24.14,24.14,0,0,1,395,336l1.29.48c.43.18.84.38,1.26.57a19,19,0,0,1,4.72,3Z"/><path d="M245.53,449.07a32.86,32.86,0,0,1,3.12-4.44,43.85,43.85,0,0,1,3.29-3.56c.56-.54,1.13-1,1.69-1.54s1.14-.93,1.71-1.39a35.35,35.35,0,0,1,3.5-2.46,42.21,42.21,0,0,1,14.74-5.7,42.93,42.93,0,0,1,15.82,0,36.79,36.79,0,0,1,4.14,1,44.6,44.6,0,0,1,4.23,1.49,42.3,42.3,0,0,1,4.35,2.12,33.12,33.12,0,0,1,4.51,3l.3,1.57c-2.52.66-5.05,1.21-7.57,1.82l-7.59,1.64c-5.07,1.09-10.17,2-15.25,3s-10.19,1.85-15.3,2.68l-7.68,1.21c-2.57.34-5.13.74-7.71,1Z"/><path d="M333.12,452.51a33.6,33.6,0,0,1-3.41,2.51,33.19,33.19,0,0,1-3,1.71c-.48.23-.93.42-1.39.63s-.88.34-1.32.51a14.7,14.7,0,0,1-2.48.71,11.7,11.7,0,0,1-8-.87,11.9,11.9,0,0,1-5.35-6,16.76,16.76,0,0,1-.86-2.43,25.32,25.32,0,0,1-.64-2.86,30.33,30.33,0,0,1-.35-3.42,31.73,31.73,0,0,1,.05-4.21l.73-1.43c1.2.42,2.35.92,3.52,1.38l3.45,1.52c2.29,1,4.51,2.19,6.77,3.28s4.44,2.34,6.61,3.61l3.24,1.92c1.05.69,2.13,1.33,3.16,2.07Z"/><path d="M249,156.82a31.6,31.6,0,0,1,.76,4.09,32.53,32.53,0,0,1,.25,3.35c0,.51,0,1,0,1.47s-.07.9-.1,1.35a15.07,15.07,0,0,1-.39,2.43,10,10,0,0,1-3.95,6.26,10.26,10.26,0,0,1-7.28,1.47,14.86,14.86,0,0,1-2.41-.48,24.49,24.49,0,0,1-2.68-.88c-1-.39-2-.82-3-1.39a32.87,32.87,0,0,1-3.55-2.13l-.91-1.31c.83-.8,1.72-1.51,2.58-2.27l2.67-2.12c1.8-1.4,3.67-2.69,5.5-4s3.77-2.54,5.71-3.73l2.93-1.76c1-.54,2-1.12,3-1.62Z"/><path d="M141.82,374.21a31.45,31.45,0,0,1,2.64-3.34,30,30,0,0,1,2.45-2.46c.4-.35.79-.66,1.18-1s.77-.56,1.16-.85a15.6,15.6,0,0,1,2.24-1.36,12.28,12.28,0,0,1,8.13-1.33,12.49,12.49,0,0,1,7,4.38,17.48,17.48,0,0,1,1.55,2.11,26.88,26.88,0,0,1,1.45,2.59,33.13,33.13,0,0,1,2.49,7.27l-.31,1.57c-1.3-.07-2.58-.25-3.86-.37l-3.83-.53c-2.56-.38-5.08-.89-7.62-1.33s-5-1.06-7.53-1.68l-3.75-1c-1.23-.39-2.48-.71-3.71-1.14Z"/><path d="M421.33,393.37a82.16,82.16,0,0,1-2.43-7.91q-1-3.93-1.74-7.83l-.7-3.9-.59-3.89c-.21-1.29-.32-2.58-.49-3.87s-.33-2.59-.42-3.87l2.78,8.15c-2-1.39-4-2.73-5.89-4.18-1-.73-1.93-1.41-2.9-2.1s-1.89-1.42-2.84-2.13c-3.82-2.8-7.5-5.67-11.17-8.53-1.82-1.45-3.69-2.84-5.48-4.32s-3.62-2.9-5.49-4.37-3.69-3-5.56-4.56c-1-.8-1.9-1.63-2.86-2.46s-2-1.75-3-2.73L371,333.34l-.79-.8-.84-.91c-.57-.63-1.11-1.2-1.68-1.88s-1.18-1.52-1.74-2.29l-.43-.58-.43-.69-.85-1.41c-.27-.48-.54-.95-.79-1.44s-.48-1.1-.7-1.66a19.73,19.73,0,0,1-1.13-3.38c-.14-.58-.26-1.16-.38-1.74l-.17-.87c0-.17,0-.25-.08-.48l-.08-.7a22.41,22.41,0,0,1-.12-2.82c.06-.87.16-1.74.3-2.59a17.69,17.69,0,0,1,.61-2.26c.11-.36.23-.74.36-1.07l.41-.91a23.07,23.07,0,0,1,3.69-5.67,27.36,27.36,0,0,1,3.84-3.58c.64-.52,1.27-1,1.9-1.42s1.26-.86,1.89-1.25a61.38,61.38,0,0,1,15.19-6.42,63,63,0,0,1,15.8-2.39l.69,1.45c-4.3,2.22-8.51,4.67-12.58,7.29a95.86,95.86,0,0,0-11.57,8.6,31.79,31.79,0,0,0-4.72,5.16c-1.27,1.84-2.19,3.95-1.88,5.74a13.38,13.38,0,0,0,2.82,5.82l1.12,1.3c.4.41.83.81,1.25,1.22.81.84,1.77,1.58,2.65,2.37,3.69,3.08,7.63,6,11.45,9.07,1.92,1.51,3.79,3.11,5.68,4.66s3.74,3.18,5.56,4.83c7.34,6.51,14.34,13.4,21,20.59l.43.46-.07.6c-.59,5-1.12,10.09-1.77,15.12l-1.87,15.12Z"/><path d="M461.73,364.73a30.9,30.9,0,0,1-2.37,3.74,32.25,32.25,0,0,1-2.34,2.84c-.39.41-.78.78-1.17,1.17s-.77.69-1.16,1a19,19,0,0,1-2.32,1.72,16.13,16.13,0,0,1-9.19,2.69,16.35,16.35,0,0,1-9.07-3.12,18.84,18.84,0,0,1-2.24-1.82,25.83,25.83,0,0,1-2.23-2.3,28.91,28.91,0,0,1-2.22-2.92,30.27,30.27,0,0,1-2.21-3.82l0-1.6c1.52-.15,3.05-.19,4.57-.29l4.57-.13c3-.07,6.09,0,9.13,0s6.09.18,9.13.38l4.55.32c1.52.16,3,.27,4.56.49Z"/><path d="M272.39,441.17a29.36,29.36,0,0,1-4.63,1.12,34,34,0,0,1-4.07.43c-.64,0-1.25,0-1.88,0s-1.19-.06-1.78-.09a23.32,23.32,0,0,1-3.36-.44,24.43,24.43,0,0,1-17.94-14.58,22.14,22.14,0,0,1-1.13-3.19,32.61,32.61,0,0,1-.83-3.56,35.3,35.3,0,0,1-.44-4.06,31.17,31.17,0,0,1,.13-4.75l1-1.24c1.61,1.07,3.15,2.22,4.73,3.33l4.63,3.46c3.08,2.32,6.07,4.76,9.1,7.13s6,4.89,8.87,7.41l4.35,3.81c1.41,1.32,2.86,2.59,4.24,3.94Z"/><path d="M247.72,156.19a28.79,28.79,0,0,1-3.86-2.4,35,35,0,0,1-3-2.41c-.43-.41-.82-.81-1.23-1.22s-.72-.81-1.09-1.22a21.55,21.55,0,0,1-1.83-2.44,18.79,18.79,0,0,1-3.15-9.9,19,19,0,0,1,2.67-10A20.45,20.45,0,0,1,238,124a29,29,0,0,1,2.18-2.55,31.32,31.32,0,0,1,2.82-2.57,29.91,29.91,0,0,1,3.7-2.59l1.6,0c.22,1.65.34,3.31.52,5l.35,5c.22,3.32.3,6.65.45,10s.12,6.65.08,10l-.09,5c-.09,1.66-.13,3.33-.26,5Z"/><path d="M339.11,308.41a12.25,12.25,0,0,1-2.42,6.86,29,29,0,0,1-5.21,5.37,48.44,48.44,0,0,1-14.11,7.94,38.33,38.33,0,0,1-8.67,1.88,27.84,27.84,0,0,1-9.68-.84,23.09,23.09,0,0,1-12.8-8.61,20,20,0,0,1-2.12-3.58c-.31-.67-.61-1.33-.87-2s-.45-1.5-.63-2.26a13.66,13.66,0,0,1-.4-2.33c-.08-.8-.15-1.6-.17-2.4s.09-1.6.18-2.4a14.72,14.72,0,0,1,.39-2.33c.18-.76.41-1.51.65-2.25s.56-1.37.86-2a20.86,20.86,0,0,1,2.14-3.56,25.11,25.11,0,0,1,2.46-2.81,24.11,24.11,0,0,1,10.34-5.75,27.77,27.77,0,0,1,9.67-.83,39.26,39.26,0,0,1,8.65,1.87,47.81,47.81,0,0,1,14.1,7.89,29.06,29.06,0,0,1,5.22,5.36A12.19,12.19,0,0,1,339.11,308.41Zm-1.6,0a8.43,8.43,0,0,0-2.39-5.43,16.71,16.71,0,0,0-5.17-3.57,31.18,31.18,0,0,0-24.91.51,16.38,16.38,0,0,0-4.92,3.52,6.93,6.93,0,0,0,0,9.93A16.19,16.19,0,0,0,305,316.9a30,30,0,0,0,12.33,2.84A29.58,29.58,0,0,0,330,317.41a16.74,16.74,0,0,0,5.17-3.58A8.38,8.38,0,0,0,337.51,308.41Z"/></svg>