<svg id="Слой_1" data-name="Слой 1" xmlns="http://www.w3.org/2000/svg" viewBox="0 0 634.21 634.21"><defs><style>.cls-1{fill:#fff;}</style></defs><title>желудок</title><circle class="cls-1" cx="317.11" cy="317.11" r="317.11"/><path d="M1074.26-960.48c.79,5.12,1.37,10.24,2.06,15.36l1.71,15.35c.61,5.12,1,10.25,1.5,15.35a122.73,122.73,0,0,0,2,14.49,44.92,44.92,0,0,0,4.21,12.31,21,21,0,0,0,7.12,8,23.28,23.28,0,0,0,4.66,2.23l1.29.41c.44.13.9.22,1.35.34l3.83,1a89.39,89.39,0,0,1,16.22,6,73.49,73.49,0,0,1,15.31,10,60,60,0,0,1,12.35,14.77,58.13,58.13,0,0,1,7,18.12,75.13,75.13,0,0,1,1.41,18.67,93.63,93.63,0,0,1-2.62,17.68,128,128,0,0,1-5.21,16.44,150.86,150.86,0,0,1-7.09,15.28,128.34,128.34,0,0,1-9,14.71,96.54,96.54,0,0,1-25.74,24.85,77.12,77.12,0,0,1-17,8.08,65.57,65.57,0,0,1-18.82,3.37,70.36,70.36,0,0,1-18.88-2,73.1,73.1,0,0,1-17.16-6.64l-3.92-2.21-3.76-2.38-3.6-2.53-1.41-1-1.32-1a50,50,0,0,0-10.78-6c-7.28-2.86-14.2-3-20.23.47a22.79,22.79,0,0,0-7.81,7.56,23.77,23.77,0,0,0-2.47,5.07,20.21,20.21,0,0,0-.72,2.63c-.08.43-.13.86-.21,1.29l-.17,1.91c-1.86,20.48-3.64,41-6.64,61.43h-1.6l-.39-61.43v-1.92c0-.67,0-1.34.09-2a29.12,29.12,0,0,1,.61-4,33,33,0,0,1,2.71-7.48,33.06,33.06,0,0,1,10.25-12,31.17,31.17,0,0,1,7-3.77,32.19,32.19,0,0,1,7.78-1.79,39,39,0,0,1,15.67,1.85,61.65,61.65,0,0,1,14.13,6.76l6.41,4.2,3.25,1.91L1041-729a58.18,58.18,0,0,0,29,6.22,56.36,56.36,0,0,0,28-9.52,81.59,81.59,0,0,0,21.36-21,116.83,116.83,0,0,0,8-12.85,137.46,137.46,0,0,0,6.5-13.72,96,96,0,0,0,7.3-29.21c.72-10-.81-20.21-5.69-28.91a46.88,46.88,0,0,0-9.17-11.68,60.8,60.8,0,0,0-12.19-8.69,84,84,0,0,0-13.88-6l-3.63-1.2c-.63-.21-1.26-.41-1.88-.65l-1.84-.75a32.72,32.72,0,0,1-6.82-4.13,31.71,31.71,0,0,1-9.41-12.7,54.23,54.23,0,0,1-3.7-15.21,135.7,135.7,0,0,1-.59-15.46l.1-15.36.19-30.71Z" transform="translate(-827.6 1118.64)"/><path d="M1112.05-960.48c.79,8,1.37,16.05,2.06,24.09l.22,3,.1,1.51c0,.46.07.79.13,1.23a20.31,20.31,0,0,0,1.37,4.92,16.1,16.1,0,0,0,6,7.34,21.22,21.22,0,0,0,9.08,3,38,38,0,0,0,10.37-.28,26.08,26.08,0,0,0,4.72-1.2,23.65,23.65,0,0,0,4.09-2,34.71,34.71,0,0,0,3.83-3c1.29-1.15,2.63-2.49,4-3.88a81.51,81.51,0,0,1,9.9-8.57,60.51,60.51,0,0,1,12.09-6.75,78.53,78.53,0,0,1,12.83-4.15,115,115,0,0,1,12.86-2.3c1.07-.13,2.14-.28,3.2-.39l3.18-.28c2.13-.23,4.23-.28,6.35-.39l1.59-.07h1.74c1.16,0,2.33,0,3.49.06s2.34.11,3.51.23l3.51.4a72.65,72.65,0,0,1,26.56,9.43A93.5,93.5,0,0,1,1280-921a133.91,133.91,0,0,1,15.49,21.44,183.71,183.71,0,0,1,11.47,23c1.65,3.93,3.15,7.88,4.59,11.86,1.35,4.2,2.83,8.37,3.83,12.69,1.21,4.27,1.94,8.66,2.72,13l.82,6.62c.16,1.11.22,2.22.29,3.33l.21,3.33c.06,1.12.15,2.23.19,3.34v6.69c0,.56,0,1.11,0,1.67l-.1,1.67-.41,6.67-.78,6.63a153.78,153.78,0,0,1-6.16,25.86,168.09,168.09,0,0,1-10.48,24.19,184.63,184.63,0,0,1-31,41.61,216.54,216.54,0,0,1-40.19,31.75c-3.68,2.13-7.3,4.38-11.08,6.32-1.88,1-3.72,2-5.63,3l-5.72,2.79a225.41,225.41,0,0,1-23.52,9.51,218.41,218.41,0,0,1-24.35,7,189,189,0,0,1-25.35,3.85c-2.13.2-4.3.27-6.45.4s-4.31.14-6.49.1c-4.32,0-8.68-.24-13-.64a129.43,129.43,0,0,1-13-1.94,105.09,105.09,0,0,1-12.67-3.48,114.87,114.87,0,0,1-12.18-4.93,112.5,112.5,0,0,1-11.43-6.35,110.74,110.74,0,0,1-20-16.24l-2.18-2.33-1.1-1.17-1-1.06c-1.27-1.42-2.58-2.8-3.9-4.14a80.23,80.23,0,0,0-8.29-7.39,30.44,30.44,0,0,0-8.67-4.86,12.23,12.23,0,0,0-1.93-.44,7.37,7.37,0,0,0-1.54,0,2.82,2.82,0,0,0-2.08,1.08,6.51,6.51,0,0,0-1.22,3.42l-.62,6-1.23,12c-.94,8-1.77,16-2.81,24l-1.59-.06.66-24,.32-12,.17-6a12.18,12.18,0,0,1,1.57-6.27,8.89,8.89,0,0,1,2.21-2.53,9.49,9.49,0,0,1,3-1.48,13.36,13.36,0,0,1,6.44,0,35.49,35.49,0,0,1,11.22,5.14,85.05,85.05,0,0,1,9.6,7.47c3,2.67,5.88,5.57,8.77,8.25a104.45,104.45,0,0,0,19.07,14.07,101.05,101.05,0,0,0,10.61,5.32,102.89,102.89,0,0,0,11.17,4c15.21,4.49,31.36,5.21,47.12,3.43a193.83,193.83,0,0,0,46.19-11.52,229.51,229.51,0,0,0,21.94-9.42l5.32-2.71c1.78-.89,3.49-1.92,5.23-2.87,3.51-1.88,6.86-4,10.27-6.09l5-3.29,2.48-1.66,2.41-1.74c1.61-1.18,3.25-2.31,4.82-3.52l4.69-3.69c1.59-1.2,3-2.55,4.58-3.82s3-2.56,4.48-3.94l4.37-4,4.2-4.23a170.58,170.58,0,0,0,28.19-38.19,155.59,155.59,0,0,0,9.54-21.74,139.82,139.82,0,0,0,5.6-23l.76-5.89.42-5.92.11-1.48c0-.49,0-1,0-1.48l0-3,0-3c0-1-.1-2-.14-3l-.16-3c0-1-.09-2-.22-3l-.67-5.9c-.29-2-.68-3.9-1-5.85s-.79-3.88-1.25-5.8c-.82-3.88-2.1-7.64-3.24-11.43-1.29-3.76-2.64-7.51-4.12-11.21a180.28,180.28,0,0,0-10.16-21.55,122.75,122.75,0,0,0-13.42-19.56,79.57,79.57,0,0,0-17.65-15.58,60.31,60.31,0,0,0-21.77-8.48,65.6,65.6,0,0,0-11.74-.85c-2,0-4,0-6,.14l-3,.13c-1,.06-2,.16-3,.23a105.29,105.29,0,0,0-11.77,1.57,68.35,68.35,0,0,0-11.37,3.14,51.12,51.12,0,0,0-10.46,5.29,82.57,82.57,0,0,0-9.28,7.34,55,55,0,0,1-9.83,7.32,30.88,30.88,0,0,1-5.79,2.33,33.63,33.63,0,0,1-6.1,1.08c-.51.05-1,.11-1.54.13l-1.54,0c-1,0-2,0-3.07,0s-2-.15-3.07-.22-2-.24-3-.48a25.85,25.85,0,0,1-11.33-5,21.42,21.42,0,0,1-7-10.25,24.59,24.59,0,0,1-1.15-6.13c0-.51,0-1.06,0-1.58v-4.5l.1-24Z" transform="translate(-827.6 1118.64)"/><path d="M1142.41-815.65c1.21-1.52,2.56-2.87,3.88-4.33s2.86-2.6,4.37-3.85,3.15-2.29,4.77-3.43a28.34,28.34,0,0,1,2.53-1.53l2.61-1.46a66.22,66.22,0,0,1,23.24-6.91c2-.14,4.1-.32,6.17-.4s4.12,0,6.17.14,4.12.27,6.14.61,4.06.63,6,1.07a106.22,106.22,0,0,1,11.67,3.35c1.87.74,3.74,1.45,5.59,2.25l2.76,1.25,1.38.63c.43.2,1,.44,1.3.61l4.32,2.2c1.43.7,2.87,1.27,4.29,2,2.82,1.34,5.69,2.49,8.54,3.6,1.43.63,2.86,1.07,4.31,1.56.72.23,1.44.53,2.16.74l2.16.66c.73.21,1.46.5,2.19.64s1.46.33,2.19.55a45,45,0,0,0,4.43,1,82.67,82.67,0,0,0,18.65,1.64c1.65,0,3.28-.2,5-.25s3.37-.39,5.14-.53,3.48-.54,5.3-.79,3.58-.71,5.52-1l.87,1.33a73.26,73.26,0,0,1-19.37,9.49,68.69,68.69,0,0,1-21.47,2.86c-14.54-.34-28.63-5-41.43-11.43a111.24,111.24,0,0,0-19.53-7.75,83,83,0,0,0-20.69-3.21,74.82,74.82,0,0,0-20.79,2.46,87.13,87.13,0,0,0-19.64,7.61Z" transform="translate(-827.6 1118.64)"/><path d="M1239.83-768a24,24,0,0,1-2.95,11.63,21.27,21.27,0,0,1-4.48,5.63,20,20,0,0,1-7.15,4.16,21.1,21.1,0,0,1-9.25.89,21.44,21.44,0,0,1-9.4-3.66,22.1,22.1,0,0,1-7-8,23.36,23.36,0,0,1-2.56-10.62,23.2,23.2,0,0,1,2.6-10.61,22.18,22.18,0,0,1,7-8,21.49,21.49,0,0,1,9.38-3.64,21.25,21.25,0,0,1,9.22.89,19.91,19.91,0,0,1,7.13,4.14,21,21,0,0,1,4.48,5.6A23.77,23.77,0,0,1,1239.83-768Zm-1.6,0a12.93,12.93,0,0,0-3.88-9.1,12.69,12.69,0,0,0-9.1-3.49,12.58,12.58,0,0,0-8.7,3.89,12.25,12.25,0,0,0-3.49,8.7,12.3,12.3,0,0,0,3.49,8.7,12.58,12.58,0,0,0,8.7,3.89,12.69,12.69,0,0,0,9.1-3.49A12.93,12.93,0,0,0,1238.23-768Z" transform="translate(-827.6 1118.64)"/><path d="M1165.62-742.95a23.68,23.68,0,0,1-.26,5.13,10.43,10.43,0,0,1-1.5,3.64,10.62,10.62,0,0,1-3.63,3.46,12,12,0,0,1-5.73,1.59,12.66,12.66,0,0,1-6.43-1.67,13.46,13.46,0,0,1-5-5,14.54,14.54,0,0,1-1.86-7.11,14.37,14.37,0,0,1,1.9-7.09,13.48,13.48,0,0,1,5-5,12.8,12.8,0,0,1,6.41-1.65,12.06,12.06,0,0,1,5.7,1.59,10.5,10.5,0,0,1,3.61,3.44,10.49,10.49,0,0,1,1.5,3.61A23.05,23.05,0,0,1,1165.62-742.95Zm-1.6,0a3.49,3.49,0,0,0-1.19-2.6,3.46,3.46,0,0,0-2.6-.8,3.43,3.43,0,0,0-3,3.4,3.43,3.43,0,0,0,3,3.4,3.52,3.52,0,0,0,2.6-.79A3.52,3.52,0,0,0,1164-742.95Z" transform="translate(-827.6 1118.64)"/><path d="M1184-705.42a21.2,21.2,0,0,1-.64,6,11.94,11.94,0,0,1-1.91,3.91,11.68,11.68,0,0,1-4.12,3.56,13.32,13.32,0,0,1-6.22,1.5,13.93,13.93,0,0,1-6.83-2,14.64,14.64,0,0,1-5.27-5.46,15.77,15.77,0,0,1-2-7.6,15.59,15.59,0,0,1,2-7.57,14.73,14.73,0,0,1,5.28-5.43,14,14,0,0,1,6.81-1.93,13.32,13.32,0,0,1,6.19,1.5,11.73,11.73,0,0,1,4.1,3.53,12,12,0,0,1,1.92,3.89A20.67,20.67,0,0,1,1184-705.42Zm-1.6,0a5,5,0,0,0-1.56-3.5,4.72,4.72,0,0,0-3.51-1.17,4.6,4.6,0,0,0-3.1,1.57,4.3,4.3,0,0,0-1.17,3.1,4.65,4.65,0,0,0,4.27,4.67,4.76,4.76,0,0,0,3.51-1.16A5,5,0,0,0,1182.38-705.42Z" transform="translate(-827.6 1118.64)"/></svg>