<svg id="Слой_1" data-name="Слой 1" xmlns="http://www.w3.org/2000/svg" viewBox="0 0 634.21 634.21"><defs><style>.cls-1{fill:#fff;}.cls-2{fill:none;stroke:#000;stroke-miterlimit:10;stroke-width:1.23px;}</style></defs><title>живот</title><circle class="cls-1" cx="317.11" cy="317.11" r="317.11"/><path d="M-362.13,767.09c-2.62-.06-5.16-.33-7.74-.45s-5.08-.42-7.58-.69c-5-.49-10-1.12-14.89-1.73-9.82-1.28-19.44-2.8-28.93-4.28l-14.12-2.23c-4.68-.66-9.28-1.48-13.87-2.06s-9.08-1.29-13.52-1.68-8.77-.87-12.93-1a74.46,74.46,0,0,0-11.54.27,35.94,35.94,0,0,0-4.58.72c-1.3.32-2.36.7-3.14,1s-1.18.49-1.54.67a2.71,2.71,0,0,0-1.19,1,8.54,8.54,0,0,0-1.12,3,8.28,8.28,0,0,0-.24,1.53l-.22,1.84-.44,3.69c-1.28,9.83-2.84,19.66-4.91,29.49-1.07,4.92-2.19,9.83-3.53,14.75s-2.83,9.83-4.62,14.75h-2l-.48-29.5-.17-29.49c0-2.48-.06-4.88,0-7.41a27.77,27.77,0,0,1,1.13-7.74,20.65,20.65,0,0,1,3.66-7.07,23.33,23.33,0,0,1,5.95-5.27,39.66,39.66,0,0,1,14.57-4.93,86.53,86.53,0,0,1,15.06-.79,183,183,0,0,1,29.5,4c9.69,2,19.24,4.59,28.69,7.43s18.8,6,28.07,9.34,18.37,7.11,27.41,11.08Z" transform="translate(844.24 -286.6)"/><path d="M-575.12,825.64c-7.87-26.53-12.39-53.18-15.88-79.87l-1.23-10-1.06-10-.52-5c-.09-.84-.17-1.67-.23-2.51l0-.32,0-.44,0-.87,0-1.75a49.12,49.12,0,0,1,1.89-14.73,44.38,44.38,0,0,1,7.11-14.18,49.79,49.79,0,0,1,10.87-10.62,67,67,0,0,1,12-6.66,94.09,94.09,0,0,1,11.87-4,132.47,132.47,0,0,1,22.82-3.46c3.71-.19,7.38-.3,11-.28s7.22.08,10.79.32c7.14.46,14.16,1.14,21.08,2.24,3.46.52,6.91,1.06,10.32,1.72s6.81,1.39,10.19,2.13a318.46,318.46,0,0,1,39.58,11.79c6.43,2.42,12.81,4.95,19.06,7.87,3.12,1.46,6.24,2.92,9.32,4.45s6.13,3.18,9.12,5l-.54,1.89c-12.91-3.4-26-6.3-39.1-8.86s-26.28-4.9-39.51-6.62a355.06,355.06,0,0,0-39.85-3.08c-13.26-.14-26.65.58-39.36,3.85a78,78,0,0,0-9.28,3,49,49,0,0,0-8.48,4.55,28.53,28.53,0,0,0-11.34,14.67,31.42,31.42,0,0,0-1.52,9.37c0,.8,0,1.59,0,2.41l.08,2.51.15,5,.61,20.09,1.22,40.16.92,40.17Z" transform="translate(844.24 -286.6)"/><path d="M-409.91,478.19a31.29,31.29,0,0,1,2.17,8.05,29.62,29.62,0,0,1,0,8.46,27.58,27.58,0,0,1-2.62,8.3,30.06,30.06,0,0,1-5.09,7.21,43.78,43.78,0,0,1-14.32,9.65,78.68,78.68,0,0,1-16.07,4.85c-1.36.28-2.71.51-4.07.75l-3.94.63c-2.63.43-5.25.86-7.89,1.21-5.27.78-10.57,1.42-15.89,2l-8,.78c-2.67.2-5.34.42-8,.58l-8,.34c-2.69.11-5.37.12-8.06.19A426.65,426.65,0,0,1-574.16,527c-5.33-.73-10.62-1.63-15.91-2.52-2.65-.45-5.22-1-7.83-1.43l-3.9-.72-.44-.08h-.16l-.61-.08-1.37-.13c-7.86-.61-17.06.81-22,3.8a12.46,12.46,0,0,0-3,2.28,8.58,8.58,0,0,0-1.63,2.4,15.31,15.31,0,0,0-1,7.26,14.36,14.36,0,0,0,2,7.26,8.75,8.75,0,0,0,1.77,1.94,15.09,15.09,0,0,0,2.87,1.78,36.06,36.06,0,0,0,9.79,2.77c2,.31,4,.54,6.22.69,1.08.07,2.18.13,3.3.17l3.47.08c9.52.05,19.77-.35,29.95-.94,41-2.61,82.68-6.9,123.86-11.43l.73-.08h.85l2.21-.05h1.93c1.26,0,2.51,0,3.76.06,2.5.08,5,.21,7.52.41A112.89,112.89,0,0,1-416,542.72a71.76,71.76,0,0,1,8.81,2.56,51.76,51.76,0,0,1,10.13,4.9,41.56,41.56,0,0,1,5.7,4.35,35.8,35.8,0,0,1,5.68,6.66,33.56,33.56,0,0,1,4.19,9.15,33.75,33.75,0,0,1,1.26,9.78,35.39,35.39,0,0,1-1.35,9.11,34.25,34.25,0,0,1-3.89,8.68,38.33,38.33,0,0,1-11.06,11.29,51.24,51.24,0,0,1-10.32,5.33,71.11,71.11,0,0,1-9.05,2.81,107.53,107.53,0,0,1-16.18,2.54c-2.58.22-5.12.36-7.67.44-1.27,0-2.54.06-3.84.06h-3l-1.27,0-.79,0-1.35-.18-32.85-4.41-32.82-4.6-32.81-4.6c-10.94-1.53-21.88-3.06-32.81-4.68l-2.26-.44c.42.1.84.2,1.27.27l.48.08.3,0h-.1l-.82-.07-2.14-.13c-1.51-.07-3.1-.11-4.69-.12-3.19,0-6.42.08-9.6.28a103,103,0,0,0-18.07,2.63,43,43,0,0,0-13.2,5.3,13.41,13.41,0,0,0-3,2.63,5.22,5.22,0,0,0-.71,1,4.65,4.65,0,0,0-.48,1.08,10.71,10.71,0,0,0-.47,3.66,12.21,12.21,0,0,0,.49,3.62,5.42,5.42,0,0,0,1.09,1.93,11.55,11.55,0,0,0,3,2.36c3,1.74,7.9,3.29,13.32,4a72.32,72.32,0,0,0,8.35.7c.68,0,1.36,0,2,0l.92,0h.32l.33,0,5.6-.48,44.83-3.87c14.94-1.31,29.9-2.43,44.85-3.65s29.91-2.46,44.89-3.53l11.22-.83,5.86-.45c2.27-.16,4.38-.25,6.55-.31,4.3-.1,8.62,0,13.13.27a85.18,85.18,0,0,1,14.43,2.14,51.18,51.18,0,0,1,8.57,2.89A33.64,33.64,0,0,1-394.58,630a27.62,27.62,0,0,1,5,7,26.46,26.46,0,0,1,2.56,8.79,27.93,27.93,0,0,1-.29,8,27.86,27.86,0,0,1-2.6,7.73,28.77,28.77,0,0,1-4.34,6.23A31.76,31.76,0,0,1-399,672a40,40,0,0,1-8.85,4.76,66.9,66.9,0,0,1-14.81,3.69,117.57,117.57,0,0,1-13.16,1q-3.18.09-6.3,0l-3-.06-.68,0h-.85l-1.47-.1-22.62-1.73C-485.91,678.44-501,677.31-516,676s-30.12-2.43-45.16-3.85l-11.28-1-2.82-.25-2.66-.21c-1.76-.15-3.53-.28-5.3-.34a200.72,200.72,0,0,0-21.51.18c-7.23.41-14.48,1.27-21.77,2.2s-14.6,2.16-21.91,3.53-14.65,2.86-21.94,4.61-14.42,3.49-21.37,5.77-13.68,5.09-19.42,9.21a29.5,29.5,0,0,0-7.31,7.35,20,20,0,0,0-3.34,9.76h-2.65a23.2,23.2,0,0,1,3-11.45,31.91,31.91,0,0,1,7.66-8.87c6-4.93,13-8.3,20-11.16s14.29-5.09,21.53-7.21,14.47-4.17,21.78-6.06a335.71,335.71,0,0,1,44.46-8.77,212,212,0,0,1,22.69-1.52c7.63-.08,15.11.34,22.63.56l90.14,3.25,22.53.83a122.28,122.28,0,0,0,22.12-1.38,48.65,48.65,0,0,0,10.39-2.81c3.21-1.33,6.18-3.28,7.48-5.92a7.69,7.69,0,0,0,.72-4.26,6,6,0,0,0-1.85-3.66c-2.14-2.12-5.59-3.35-9-4.13-7-1.53-14.49-1.62-21.86-1.3-3.7.16-7.33.58-11.1,1l-11.23,1.15-44.9,4.62-89.79,9.23-5.62.58c-2,.18-3.91.22-5.85.22a91.22,91.22,0,0,1-11.56-.76,63.91,63.91,0,0,1-22.34-6.76,37.65,37.65,0,0,1-9.56-7.3,31.33,31.33,0,0,1-6.41-10.34,37.06,37.06,0,0,1-2.25-11.84,37.42,37.42,0,0,1,1.44-11.95,32,32,0,0,1,5.58-10.8,39.25,39.25,0,0,1,8.84-8.15,68.27,68.27,0,0,1,21.49-9.11,129.4,129.4,0,0,1,22.74-3.46q5.72-.39,11.45-.38c1.91,0,3.83.05,5.75.13,1,0,1.92.09,2.89.16l1.47.12.76.08a7.51,7.51,0,0,1,1,.16l-.25-.05,131.19,18.94-.23,0a100.06,100.06,0,0,0,24.82-2.06,34.3,34.3,0,0,0,11-4.37,13.06,13.06,0,0,0,3.83-3.75,9.13,9.13,0,0,0,1.43-4.82,8.07,8.07,0,0,0-1.3-4.7,13,13,0,0,0-3.89-3.68,36.87,36.87,0,0,0-11.14-4.35,108.33,108.33,0,0,0-24.86-2.51h.17q-31.33,2.94-62.7,5.18C-530.1,571-551,572.27-572,572.91c-10.5.29-21,.47-31.6,0a106.5,106.5,0,0,1-15.92-1.82,52.73,52.73,0,0,1-15.4-5.39,33,33,0,0,1-6.74-5,27.75,27.75,0,0,1-5.09-6.79,34,34,0,0,1-3.64-16.17,31.87,31.87,0,0,1,3.93-16.13,28.64,28.64,0,0,1,12.3-11.27,47.61,47.61,0,0,1,15.74-4.44,66.87,66.87,0,0,1,16.18.09,40.94,40.94,0,0,1,4,.72l3.83.89c2.54.58,5.09,1.21,7.64,1.75,5.1,1.1,10.21,2.2,15.34,3.15A420.74,420.74,0,0,0-509.35,520a397.08,397.08,0,0,0,62.45-2.38,74.24,74.24,0,0,0,15-3.54,38.08,38.08,0,0,0,13-7.53,24.08,24.08,0,0,0,7.34-12.66,28.57,28.57,0,0,0-.8-14.74Z" transform="translate(844.24 -286.6)"/><path d="M-329.71,464.52A39.31,39.31,0,0,0-321.42,437a39.28,39.28,0,0,0-12.73-25.75,39.19,39.19,0,0,0-12.41-7.67A38.8,38.8,0,0,0-360.9,401a38.78,38.78,0,0,0-26.35,10.84l-1,1-1.08-1A32.54,32.54,0,0,0-402,404.65a44.56,44.56,0,0,0-14.66-1.85A30.74,30.74,0,0,0-430.44,407a57.42,57.42,0,0,0-11.77,9l-1.49,1.44-1.57-1.44a27.39,27.39,0,0,0-12.6-6.38,47.22,47.22,0,0,0-7.26-1.06c-1.24-.08-2.48-.13-3.73-.14s-2.57,0-3.65.07a28.34,28.34,0,0,0-13.07,4.87A73,73,0,0,0-497,422.87l-2.1,2.06-2.27-2.06a37.26,37.26,0,0,0-11.89-7.29,35.84,35.84,0,0,0-13.65-2.32,36.59,36.59,0,0,0-13.41,2.91,36.35,36.35,0,0,0-11.26,7.61l-2.9,2.89-3.2-2.89A70.84,70.84,0,0,0-569.23,415c-4-2.35-8.23-3.9-12.21-4-.89,0-2.28,0-3.44.08s-2.4.16-3.57.29a43.49,43.49,0,0,0-6.76,1.25,23.88,23.88,0,0,0-10.85,6l-3.79,3.82-4.24-3.81a53.14,53.14,0,0,0-11.29-8,25.77,25.77,0,0,0-11.89-3.11c-.44,0-1,0-1.6,0s-1.13.07-1.69.12c-1.13.09-2.24.23-3.32.42a35.44,35.44,0,0,0-6.28,1.6,26.87,26.87,0,0,0-10.25,6.4l-4.75,4.84-5.47-4.83A32.42,32.42,0,0,0-693,408a31.48,31.48,0,0,0-21.36,9.13,30.61,30.61,0,0,0-9.21,20.66,29.91,29.91,0,0,0,7.23,20.84l5.39,6.2-5.39,7.22a29.22,29.22,0,0,0-5.77,18.53,28.46,28.46,0,0,0,6.93,17.61l6.1,7-6.1,8.26a28,28,0,0,0-5.54,17.62,27.18,27.18,0,0,0,6.52,16.82l6.77,7.85-6.77,9a26.53,26.53,0,0,0-5.28,16.82,25.75,25.75,0,0,0,6.25,16l7.41,8.55-7.41,9.89a25.76,25.76,0,0,0-5,13.13,25.9,25.9,0,0,0,.39,7.05,27.23,27.23,0,0,0,2.26,6.52,25.27,25.27,0,0,0,9.44,10,22.8,22.8,0,0,0,6.25,2.62,10,10,0,0,0,1.64.37,11.34,11.34,0,0,0,1.65.26c.56,0,1.11.11,1.67.17s1.15,0,1.72,0l.86,0,.84-.11c.56-.07,1.12-.12,1.69-.17l1.63-.37.83-.16.79-.28c.52-.18,1.06-.34,1.59-.51s1-.48,1.51-.7a7.35,7.35,0,0,0,.76-.34l.72-.43c.47-.3,1-.52,1.44-.84a26.21,26.21,0,0,0,2.63-2.06,24.93,24.93,0,0,0,2.36-2.35c.38-.41.66-.9,1-1.32l.51-.66a6.38,6.38,0,0,0,.43-.71c.28-.47.57-.94.88-1.4s.45-1,.69-1.49c.12-.25.27-.49.36-.74l.26-.78c.17-.52.4-1,.55-1.54a27.19,27.19,0,0,0,.68-3.2c.05-.54.21-1.07.22-1.62s0-1.1.06-1.65a16.43,16.43,0,0,0-.16-3.29,23.11,23.11,0,0,0-5.1-11.78l-8.62-10.54,8.62-11a22.93,22.93,0,0,0,4.88-14.46,23.29,23.29,0,0,0-1.34-7.58,22.59,22.59,0,0,0-3.75-6.68l-8.84-10.89,8.84-11.08a22.75,22.75,0,0,0,4.94-14.27,23,23,0,0,0-5-14.2l-8.86-11.21,8.86-10.9a22.59,22.59,0,0,0,4.7-10.28,27.19,27.19,0,0,0,.32-2.86c.07-1-.06-1.93-.08-2.9l0-.72-.09-1.08c0-.4-.05-.8-.05-1.19a21.13,21.13,0,0,1,.08-2.39,23.73,23.73,0,0,1,2.75-9.29A23.11,23.11,0,0,1-661,466.2a22.67,22.67,0,0,1,4.72-2.59,22.18,22.18,0,0,1,5.2-1.41,24.38,24.38,0,0,1,8.55.25,37.06,37.06,0,0,1,4.59,1.27l1.81.61a3.17,3.17,0,0,0-.85-.12,4.11,4.11,0,0,0-.7,0h1.29l2-.06c1.28-.07,2.5-.17,3.62-.32a23.33,23.33,0,0,0,5.48-1.31,10.89,10.89,0,0,0,3.3-2l12.71-10.82,11.13,10.83a32,32,0,0,0,8.08,5.62A41.54,41.54,0,0,0-580,469.6l.66.15.49.08c.32.07.69.1,1,.15.72.09,1.48.13,2.25.16a24.39,24.39,0,0,0,4.43-.26,15.56,15.56,0,0,0,3.37-.89,6.94,6.94,0,0,0,1.51-.79l13.32-9.72,9.83,9.73A23.61,23.61,0,0,0-526.91,475a24,24,0,0,0,8.9-1.51,24.82,24.82,0,0,0,7.79-4.74l11.79-10.49,10.28,10.49a11.12,11.12,0,0,0,5.41,3.06,12.58,12.58,0,0,0,3.41.34,7.07,7.07,0,0,0,.91-.06,7.4,7.4,0,0,0,.93-.12,7.94,7.94,0,0,0,.95-.18c.33-.08.55-.11,1.24-.31a109,109,0,0,0,12.55-4.18,32.21,32.21,0,0,0,8.7-5.15l10.93-9.63,9.7,9.64a13,13,0,0,0,4.69,3.08A28.84,28.84,0,0,0-421,467c1.53.16,3.13.27,4.81.31h0l-.14,0s0,0,.07,0a10.64,10.64,0,0,0,1.42-.34l3-.91c.63-.19,1.38-.39,2.18-.58s1.64-.33,2.47-.44a25,25,0,0,1,2.6-.12,19.62,19.62,0,0,1,10,3,19.77,19.77,0,0,1,6.85,7.32,19.76,19.76,0,0,1,2.37,9.68c0,.83-.09,1.66-.2,2.48s-.29,1.59-.49,2.37l-.33,1.15a27.2,27.2,0,0,0-.77,3.82,27.61,27.61,0,0,0,.17,7.86,27.23,27.23,0,0,0,7,14.07l9.12,9.71L-380,535a27.6,27.6,0,0,0-6.31,8.79,28.67,28.67,0,0,0-2.52,10.67,28.64,28.64,0,0,0,1.75,11,29.1,29.1,0,0,0,5.94,9.61l8,8.57-8,7.39a29.42,29.42,0,0,0-6.73,9.28,29.77,29.77,0,0,0-2.67,11.33,30.14,30.14,0,0,0,1.89,11.65,30.78,30.78,0,0,0,6.3,10.17l6.77,7.24-6.77,6.29a31,31,0,0,0-7.09,9.84,31.25,31.25,0,0,0-2.81,12,31.78,31.78,0,0,0,2,12.3,32.61,32.61,0,0,0,6.68,10.74l5.55,5.92-5.55,5.18a32.91,32.91,0,0,0-9.55,16.51,32.25,32.25,0,0,0-.77,9.76,30.76,30.76,0,0,0,2.08,9.62,34,34,0,0,0,4.85,8.72,36.46,36.46,0,0,0,7.29,7,32.79,32.79,0,0,0,9,4.58,32.2,32.2,0,0,0,10.05,1.74l1.29.06,1.28-.09c.86-.06,1.72-.09,2.58-.17a39.33,39.33,0,0,0,5.05-1l1.25-.35a7.1,7.1,0,0,0,1.23-.41l2.42-1c.8-.33,1.54-.78,2.32-1.16l1.16-.6,1.09-.72a34.1,34.1,0,0,0,7.91-6.82,34.75,34.75,0,0,0,5.64-8.88,36.38,36.38,0,0,0,2.58-20.91,36.15,36.15,0,0,0-9.71-19l-2.4-2.46,2.4-2.31a37.13,37.13,0,0,0,8.31-11.91A37.63,37.63,0,0,0-323,668.76a37.55,37.55,0,0,0-2.62-14.5,37.63,37.63,0,0,0-8.08-12.42l-1.67-1.71,1.67-1.62a38.06,38.06,0,0,0,8.46-12.27,38.34,38.34,0,0,0,3.12-14.65,38.55,38.55,0,0,0-2.75-14.81,38.15,38.15,0,0,0-8.31-12.64l-1.14-1.16,1.14-1.12a38.89,38.89,0,0,0,8.55-12.53,38.93,38.93,0,0,0,3.09-14.91,39.15,39.15,0,0,0-2.86-15,38.65,38.65,0,0,0-8.46-12.77l-.82-.81.82-.82a39.42,39.42,0,0,0,8.83-13.37,39.36,39.36,0,0,0,2.76-15.81,39.1,39.1,0,0,0-3.8-15.6,37.93,37.93,0,0,0-4.21-6.89,9.4,9.4,0,0,1-1.24-1.94,6.6,6.6,0,0,1-.58-2.35A6.7,6.7,0,0,1-329.71,464.52Zm1.54,1.22a4.7,4.7,0,0,0-1,3.2,4.77,4.77,0,0,0,.41,1.66,7.8,7.8,0,0,0,1,1.53,40.1,40.1,0,0,1,4.45,7.24,40.91,40.91,0,0,1,4.05,16.4,41.5,41.5,0,0,1-2.84,16.67,41.78,41.78,0,0,1-9.27,14.14V525.1a41.49,41.49,0,0,1,9,13.43,41.5,41.5,0,0,1,3.18,15.89,41.66,41.66,0,0,1-3.15,15.89,41.47,41.47,0,0,1-9,13.47v-1.57a41.56,41.56,0,0,1,9.05,13.47,41.52,41.52,0,0,1,3.18,15.91,41.62,41.62,0,0,1-3.15,15.92,41.72,41.72,0,0,1-9,13.49v-1.66a41.41,41.41,0,0,1,9.06,13.49A41.3,41.3,0,0,1-319,668.76a41.32,41.32,0,0,1-3.16,15.94,41.58,41.58,0,0,1-9,13.52v-1.75a41.55,41.55,0,0,1,11.45,21.28,41.76,41.76,0,0,1-2.35,24,40.44,40.44,0,0,1-6.27,10.49,40.63,40.63,0,0,1-9,8.22l-1.26.87-1.35.74c-.9.48-1.77,1-2.7,1.45l-2.82,1.2a9.59,9.59,0,0,1-1.44.53l-1.47.45a43.45,43.45,0,0,1-6,1.39c-1,.13-2,.2-3.06.3l-1.53.14-1.53,0a38.8,38.8,0,0,1-12.1-1.76,39.68,39.68,0,0,1-11.06-5.24,44,44,0,0,1-9.07-8.21,42.13,42.13,0,0,1-6.31-10.5,39,39,0,0,1-3-11.88,40.5,40.5,0,0,1,.57-12.23,41.91,41.91,0,0,1,11.44-21.39v2a41.85,41.85,0,0,1-9.1-13.57,41.76,41.76,0,0,1-3.21-16,41.87,41.87,0,0,1,3.18-16,41.59,41.59,0,0,1,9.09-13.59v2.09a42,42,0,0,1-9.12-13.58,41.91,41.91,0,0,1-3.21-16,42,42,0,0,1,3.18-16.07,42,42,0,0,1,9.1-13.61v2.18a42,42,0,0,1-9.13-13.6,42,42,0,0,1-3.21-16.07,41.84,41.84,0,0,1,3.18-16.08,42,42,0,0,1,9.12-13.64V527a42,42,0,0,1-11.51-21.32,42.55,42.55,0,0,1-.68-12.23,41.73,41.73,0,0,1,1-6.07l.38-1.46.1-.53,0-.53a4.1,4.1,0,0,0-.51-2,3.94,3.94,0,0,0-3.39-2.08,5.27,5.27,0,0,0-1,.12c-.44.11-.88.24-1.33.38l-2.79.91a19.26,19.26,0,0,1-6.29,1.19q-3,0-6-.22a45.73,45.73,0,0,1-12-2.39,30.06,30.06,0,0,1-10.65-6.41h2.33a47.34,47.34,0,0,1-13.21,8.5A121.24,121.24,0,0,1-470.32,488a31.9,31.9,0,0,1-15.86,1,28.74,28.74,0,0,1-14.21-7.32H-498a42.15,42.15,0,0,1-13.35,8.55,42,42,0,0,1-15.58,3,42,42,0,0,1-15.59-3,42.43,42.43,0,0,1-13.38-8.54h2.5c-4.08,3.83-9.35,5.78-14.54,6.68a43.54,43.54,0,0,1-15.73-.24,60.89,60.89,0,0,1-14.78-4.93,51.57,51.57,0,0,1-12.94-8.82h2.58a29.91,29.91,0,0,1-9.08,5.84A41.23,41.23,0,0,1-628.16,483c-1.74.24-3.49.39-5.23.48-.87.05-1.73.07-2.6.1s-1.63.05-2.76,0a24,24,0,0,1-5.33-1.39,9.13,9.13,0,0,0-4.09-.71,3.46,3.46,0,0,0-2.59,1.85,4.31,4.31,0,0,0-.49,1.67,5.46,5.46,0,0,0,0,.9l.08,1.33a49.74,49.74,0,0,1,.14,5.32,46.9,46.9,0,0,1-.56,5.3A42.19,42.19,0,0,1-660.25,517v-2.45A42.12,42.12,0,0,1-653.32,527a42.5,42.5,0,0,1,2.37,14,42.48,42.48,0,0,1-2.4,14,42.15,42.15,0,0,1-6.93,12.42v-2.4a42.24,42.24,0,0,1,6.9,12.43,42.4,42.4,0,0,1,2.38,14,42.57,42.57,0,0,1-2.4,14,42.34,42.34,0,0,1-6.92,12.4v-2.33a42.23,42.23,0,0,1,9,21.6,35.38,35.38,0,0,1,.22,5.91l-.16,3c-.07,1-.29,2-.42,2.93A43.77,43.77,0,0,1-653,654.8c-.29.94-.69,1.85-1,2.78l-.53,1.38c-.19.46-.44.89-.65,1.33l-1.34,2.64-1.6,2.49c-.27.41-.51.85-.81,1.24l-.92,1.16c-.62.76-1.19,1.57-1.87,2.29a43.42,43.42,0,0,1-4.26,4.1,41.88,41.88,0,0,1-4.75,3.51c-.82.55-1.71,1-2.57,1.46l-1.3.71c-.43.23-.9.4-1.35.6l-2.73,1.15-2.82.88-1.42.42-1.45.29c-1,.18-1.93.39-2.91.55l-2.94.27c-.49,0-1,.09-1.47.11l-1.48,0-3,0-2.94-.34a24,24,0,0,1-2.91-.53,21.87,21.87,0,0,1-2.87-.71,40,40,0,0,1-10.73-4.86,42.64,42.64,0,0,1-15.54-17.39A44.36,44.36,0,0,1-734.73,649a42.59,42.59,0,0,1-.3-11.77,41.85,41.85,0,0,1,9-21.5v2.11a42.12,42.12,0,0,1-6.87-12.36,42.17,42.17,0,0,1-2.36-13.94,42.29,42.29,0,0,1,2.38-13.92A42.1,42.1,0,0,1-726,565.3v2A41.78,41.78,0,0,1-732.85,555a41.79,41.79,0,0,1-2.35-13.92,41.72,41.72,0,0,1,2.38-13.91A41.71,41.71,0,0,1-726,514.83v2a41.88,41.88,0,0,1-6.84-12.33,42.18,42.18,0,0,1-2.35-13.9,42.1,42.1,0,0,1,2.38-13.88,41.68,41.68,0,0,1,6.85-12.31v1.9A41.82,41.82,0,0,1-735,437a41.6,41.6,0,0,1,13.42-27.57A41.64,41.64,0,0,1-693,398.3a41.76,41.76,0,0,1,28.42,11.44h-1.93a35.75,35.75,0,0,1,13.77-8A48.72,48.72,0,0,1-637,399.6a34,34,0,0,1,15.28,4.45,60.85,60.85,0,0,1,12.61,9.41H-611A31,31,0,0,1-596.85,406a50,50,0,0,1,7.84-1.24,64.94,64.94,0,0,1,7.91-.2A32.38,32.38,0,0,1-566,409.83a77.34,77.34,0,0,1,12.28,9.8h-1.76a41.47,41.47,0,0,1,13.21-8.43,41.39,41.39,0,0,1,15.39-2.93,41.77,41.77,0,0,1,15.38,3,41.71,41.71,0,0,1,13.18,8.44H-500a76.8,76.8,0,0,1,12.29-9.77,32.1,32.1,0,0,1,15-5.19,62.7,62.7,0,0,1,7.89.22,49.42,49.42,0,0,1,7.81,1.25,31,31,0,0,1,14.07,7.41h-1.6A60.61,60.61,0,0,1-432,404.23a33.84,33.84,0,0,1,15.19-4.39A48.13,48.13,0,0,1-401.19,402,35.32,35.32,0,0,1-387.55,410h-1.51a41.34,41.34,0,0,1,28.14-11.3,41.23,41.23,0,0,1,15.17,2.78,41.52,41.52,0,0,1,13.07,8.16,41.39,41.39,0,0,1,13.32,27.19A41.34,41.34,0,0,1-328.17,465.74Z" transform="translate(844.24 -286.6)"/><path class="cls-2" d="M-681.87,677.89s-17,4.12-26.65,12.61" transform="translate(844.24 -286.6)"/><path d="M-697.15,682.07s-14.92,5.15-20.88,15-5.76,12.61-4.19,12.93.62-10,9-15.33A129.39,129.39,0,0,0-697.15,682.07Z" transform="translate(844.24 -286.6)"/><path d="M-697.15,679a52.06,52.06,0,0,0-11.19,5.6,34.55,34.55,0,0,0-7.93,6.88,42.14,42.14,0,0,0-5.89,10.2c-1.29,3.11-1.12,6.2-1,9.56,0,.56.33,2.33,1.29,1.64.45-.33.56-1.44.68-1.92.29-1.17.56-2.35.92-3.5a18.18,18.18,0,0,1,5-8.23,69.69,69.69,0,0,1,6.13-4.33c2-1.47,4-3,6-4.6s4.08-3.38,6-5.18c.33-.3,0-2.6,0-3.06,0-.72,0-1.45,0-2.17a3.86,3.86,0,0,1,0-.89,117.35,117.35,0,0,1-14.45,11.47c-3,2-5.57,4-7.27,7.35a32.33,32.33,0,0,0-2.35,7.1c-.16.65-.46,2.61-1.5,1.73a2,2,0,0,1-.3-.41c-.07-.09-.05-.23-.09-.32s0-.11,0-.16v5.36l0-.23a17.93,17.93,0,0,1,.9-2.95,36.18,36.18,0,0,1,12.72-16.43,51.27,51.27,0,0,1,12.34-6.39,17.12,17.12,0,0,0,0-3.06A21.08,21.08,0,0,1-697.15,679Z" transform="translate(844.24 -286.6)"/></svg>