<svg id="Слой_1" data-name="Слой 1" xmlns="http://www.w3.org/2000/svg" viewBox="0 0 634.21 634.21"><defs><style>.cls-1{fill:#fff;}</style></defs><title>колено</title><circle class="cls-1" cx="317.11" cy="317.11" r="317.11"/><path d="M75.31,1838c2.15,8.14,4,16.31,5.7,24.48s3.37,16.34,4.85,24.53,2.83,16.37,4.17,24.56,2.54,16.39,3.6,24.6l1.66,12.31,1.49,12.31c1.06,8.21,1.85,16.43,2.75,24.65.46,4.1.83,8.22,1.21,12.33l1.13,12.33c.76,8.23,1.31,16.46,2,24.69l-.64-4,.29,1.12.2.84.34,1.5c.18,1,.38,1.91.51,2.83s.29,1.86.39,2.79.19,1.85.25,2.77a69.45,69.45,0,0,1-.05,11.26A60.61,60.61,0,0,1,98.55,2077c-.46.93-1.06,1.82-1.6,2.72l-1.57,2.51c-.13.26-.28.5-.43.75a3.68,3.68,0,0,0-.48.81c-.16.34-.32.68-.49,1a6,6,0,0,0-.48,1.1l-.47,1.24a8.94,8.94,0,0,0-.45,1.3A71.94,71.94,0,0,0,90,2101a111.55,111.55,0,0,0-.82,14.05,121,121,0,0,0,.74,14.19c.27,2.3.6,4.57,1,6.68.18,1.14.45,2,.65,3s.54,1.93.8,2.92a70.83,70.83,0,0,0,5.46,12.52c1.14,2.24,2.46,4.69,3.83,7.29s2.88,5.57,4.31,9a38.53,38.53,0,0,1,3,13.11l0,2v.7l0,.41-.12,1.67c-.06,1.21-.08,2.6-.13,3.9l-.36,16.37-.17,8.26-.25,8.29c-.7,22.13-1.72,44.33-4.24,66.67l-2.12.19c-2.07-22-4.17-43.91-6-65.89-.88-11-1.78-22-2.47-33l-.22-4.16c-.06-1.38-.06-2.92-.19-4.06a22.25,22.25,0,0,0-2.14-7.29c-2.3-4.77-5.39-9.34-8.26-14.1a93.92,93.92,0,0,1-7.67-15,80.37,80.37,0,0,1-4.27-16.35,133.07,133.07,0,0,1-1.09-33.48,85,85,0,0,1,3.17-16.61c.37-1.37.94-2.7,1.4-4.05s1.18-2.64,1.76-4,1.46-2.54,2.19-3.8,1.38-2.22,2-3.37c4.87-9.17,5.57-20.56,3.31-30.68l-.06-.27V2036L78,1937.05c-.83-16.49-1.76-33-2.5-49.45l-2.27-49.47Z" transform="translate(157.93 -1745.76)"/><path d="M228.18,1836.81c1.24,8.33,2.2,16.65,3,25s1.56,16.62,2.13,24.92,1,16.58,1.47,24.87.73,16.57.89,24.84l.3,12.42.14,12.4c.15,8.28,0,16.53,0,24.8,0,4.13-.07,8.26-.15,12.39l-.22,12.38c-.14,8.26-.5,16.51-.74,24.76l-.64,4,.06-.2v.08l0,.17-.08.52c-.05.41-.12.8-.16,1.25-.09.85-.2,1.76-.23,2.66a31.45,31.45,0,0,0,.11,5.25,22.87,22.87,0,0,0,2.48,8.53,8.77,8.77,0,0,0,.49.84l.59,1,1.69,2.8a31.4,31.4,0,0,1,1.53,2.79l1.27,2.73c.42.92.83,1.84,1.13,2.7l1,2.65c.32.89.64,1.78.86,2.62a92.2,92.2,0,0,1,3.67,19.92,138.18,138.18,0,0,1-2,37.69c-.61,3.14-1.31,6.28-2.23,9.51-.39,1.57-1,3.31-1.58,5s-1.28,3.26-1.93,4.88a105.6,105.6,0,0,1-9.51,16.92c-3.37,4.88-6.61,9.18-8.46,12.28-.88,1.5-1.27,2.46-1.52,2.68a.53.53,0,0,1-.11.09s0,0,0,0l0,.31-.06.62-.23,2.46c-.17,1.55-.37,2.9-.55,4.36-.39,2.84-.77,5.59-1.22,8.37l-1.36,8.26-1.41,8.22-1.53,8.2c-4.16,21.83-8.88,43.57-15.18,65.16l-2.11-.18,4.91-66c.82-11,1.65-22,2.27-33l.19-4.1c0-1.38,0-2.6.17-4.2a25.6,25.6,0,0,1,2.42-8.5c2.46-5.19,5.56-9.79,8.34-14.49a90.76,90.76,0,0,0,7.3-14.46,75.94,75.94,0,0,0,4-15.6,128.77,128.77,0,0,0,.86-32.46,79.62,79.62,0,0,0-3.1-15.8c-.35-1.29-.89-2.5-1.33-3.75s-1.08-2.39-1.61-3.59-1.31-2.22-1.95-3.35-1.56-2.45-2.25-3.72a43.9,43.9,0,0,1-4.71-16.6,52.31,52.31,0,0,1-.07-8.58,50.54,50.54,0,0,1,1.31-8.57l-.07.43,5.73-98.87c1-16.47,1.85-33,2.92-49.42l3.15-49.42Z" transform="translate(157.93 -1745.76)"/><path d="M138.84,1836.75c2.66,9.11,4.76,18.23,6.54,27.34.94,4.56,1.68,9.12,2.5,13.67s1.49,9.12,2.08,13.68c2.57,18.23,4.3,36.46,5.42,54.69s1.47,36.46,1.45,54.69l-.15,13.67-.42,13.67c-.11,4.56-.39,9.12-.62,13.67s-.48,9.12-.85,13.68L152.85,2079l-8.79-7.68a7.82,7.82,0,0,0-.87.25l-1.14.4c-.78.28-1.56.59-2.34.9-1.55.65-3.07,1.33-4.54,2a43.24,43.24,0,0,0-7.17,4.23c-.18.15-.37.29-.56.43l-.3.2-.19.17-.44.31c-.1.11-.23.14-.36.32a10.43,10.43,0,0,0-1.61,2.75,19.77,19.77,0,0,0-1.21,3.57c-.3,1.18-.36,2.26-.52,2.84-.28.32-.19,1.13.07,1.95a7.6,7.6,0,0,0,1.64,2.61,13,13,0,0,0,11,3.9c.38-.08.67-.08,1.15-.21s1.11-.4,1.68-.57c1.14-.34,2.28-.67,3.46-.94a26.32,26.32,0,0,1,14.13.23l0,2.12a25.06,25.06,0,0,0-6,.66,28.28,28.28,0,0,0-5.7,2.09c-.92.44-1.82.94-2.71,1.45l-1.33.79-1.49.8a19.9,19.9,0,0,1-6.48,1.94,22.45,22.45,0,0,1-13.1-2.59,18.52,18.52,0,0,1-5.37-4.21,16.94,16.94,0,0,1-3.52-6,22.93,22.93,0,0,1-1-6.72,32.72,32.72,0,0,1,.6-6.63,29.61,29.61,0,0,1,2-6.42c.22-.52.51-1,.77-1.54s.61-1,.91-1.45a28.55,28.55,0,0,1,2-2.71,48,48,0,0,1,10.08-8.41,77.15,77.15,0,0,1,11.49-6.06l-1.17,1.73-.25-54.69.21-54.69.24-54.69.06-13.68.18-13.67.35-27.34Z" transform="translate(157.93 -1745.76)"/><path d="M172.41,1836.75c2.67,9.11,4.76,18.23,6.54,27.34.94,4.56,1.68,9.12,2.51,13.67.68,4.56,1.49,9.12,2.08,13.68,2.57,18.23,4.3,36.46,5.41,54.69s1.48,36.46,1.45,54.69l-.14,13.67-.42,13.67c-.11,4.56-.39,9.12-.63,13.67s-.47,9.12-.84,13.68l-10.73-15.81c.94.42,1.4.67,2,1l1.73.93q1.69.93,3.33,1.92a72.25,72.25,0,0,1,6.43,4.32,76.81,76.81,0,0,1,6.25,5.22,52.66,52.66,0,0,1,6,6.61l1.41,2,.69,1,.66,1.17c.44.78.86,1.55,1.26,2.35s.79,1.71,1.06,2.51a38.46,38.46,0,0,1,2.18,9.3,44.48,44.48,0,0,1,0,9,34.15,34.15,0,0,1-2.35,9.63c-.19.44-.36.85-.58,1.3l-.7,1.33a8.76,8.76,0,0,1-.74,1.22l-.76,1.11a18.09,18.09,0,0,1-1.67,2.08,17.83,17.83,0,0,1-1.81,1.87c-.64.56-1.26,1.15-1.93,1.65s-1.34,1-2,1.42a29.75,29.75,0,0,1-13.08,4.28,29.75,29.75,0,0,1-8.75-.75,24,24,0,0,1-7.89-3.61c-.56-.42-1.21-.88-1.65-1.26l-1.06-1c-.71-.67-1.43-1.34-2.17-1.95a34.1,34.1,0,0,0-4.71-3.36,28.74,28.74,0,0,0-5.65-2.28l0-2.12a27.41,27.41,0,0,1,6.56.55,30.39,30.39,0,0,1,6.22,2.11c1,.44,2,.94,2.92,1.45l1.41.79,1.31.67a17.36,17.36,0,0,0,5.63,1.52,19.62,19.62,0,0,0,11.3-2.54,15.66,15.66,0,0,0,7.29-8.48A24.62,24.62,0,0,0,196,2081a25.52,25.52,0,0,0-1.8-5.63c-.18-.46-.44-.86-.65-1.29s-.53-.81-.79-1.22a24.48,24.48,0,0,0-1.78-2.34,44.35,44.35,0,0,0-9.38-7.66,74.81,74.81,0,0,0-10.92-5.65l-1.17-.48v-1.24l-.24-54.69.21-54.69.24-54.69.06-13.68.18-13.67.35-27.34Z" transform="translate(157.93 -1745.76)"/><path d="M142.13,2290.74q-2.9-12.33-5-24.66c-1.45-8.23-2.66-16.45-3.8-24.67s-2.12-16.44-3-24.66c-.47-4.11-.86-8.22-1.23-12.33s-.82-8.22-1.1-12.33l.4-3.47c-.07.25,0,0-.05,0v-.94c0-.47,0-1,0-1.42a15.6,15.6,0,0,0-.33-2.63c-.33-1.55-.91-2.63-1.16-2.6-.07,0-.06,0-.09.13a.15.15,0,0,0,0,.11.78.78,0,0,0,0,.21.24.24,0,0,0,.06.08l0,0h0l-.09-.06-.66-.47c-.41-.31-1-.67-1.46-1-2.1-1.45-4.83-3.09-8.17-5.75-.84-.68-1.67-1.34-2.6-2.19-.45-.42-.88-.79-1.35-1.25l-1.4-1.45-.69-.74-.71-.85-1.38-1.73a39.67,39.67,0,0,1-2.56-4,32.51,32.51,0,0,1-2.06-4.58c-.28-.8-.55-1.6-.81-2.41s-.38-1.6-.55-2.4a31.11,31.11,0,0,1-.66-4.72,29.68,29.68,0,0,1,0-4.41l0-1.07,0-.53.08-.64c.12-.84.25-1.68.4-2.53s.28-1.67.52-2.51.51-1.67.8-2.5.57-1.66.92-2.45.77-1.57,1.19-2.35.82-1.55,1.29-2.27,1-1.4,1.49-2.09a37.48,37.48,0,0,1,14.69-11.56,43.41,43.41,0,0,1,16-3.66,46.76,46.76,0,0,1,15.56,2,30.93,30.93,0,0,1,3.72,1.3l1.83.76c.61.26,1.26.55,1.62.73.85.43,1.71.84,2.56,1.28l2.6,1.44c1.76,1,3.55,2.12,5.35,3.38.45.31.88.61,1.3.92l1.2.89c.78.6,1.27.94.83.65-.24-.15-.49-.29-.74-.42a11,11,0,0,0-1.55-.71,15,15,0,0,0-2.05-.64l-1-.19a7.47,7.47,0,0,0-.95-.12l-.47,0-.38,0h-.57c-.34,0-.89.06-.92.05l-.42,0-.1,0h.1l-.23.05-.31.08-.26.09-.07,0h.05l1.1-.43c1.12-.48,2.59-1.12,4.27-1.8s3.56-1.45,6-2.24c.63-.2,1.26-.39,2-.58s1.56-.39,2.42-.56c.38-.08,1-.17,1.48-.24s1-.15,1.67-.2,1.28-.08,1.95-.1,1.64,0,2.45.1c.36,0,.92.09,1.44.17s1,.17,1.56.28a21.73,21.73,0,0,1,3.56,1.11,21,21,0,0,1,3.93,2.09,20.6,20.6,0,0,1,3.66,3.14,19.86,19.86,0,0,1,2.73,3.68c.37.62.74,1.31,1,1.91s.45,1.09.65,1.64a22.85,22.85,0,0,1,1.29,5.75c.06.74.07,1.34.09,2s0,1.4,0,1.84l-.13,1.53-.09.76-.1.63c-.14.78-.29,1.67-.45,2.37l-.52,2c-.18.63-.35,1.17-.55,1.76l-.28.86-.29.75-1.18,3A80.12,80.12,0,0,1,193,2172.36c-2.3,2.69-4.52,5.07-6,6.83l-1,1.13c-.09.12-.19.24-.29.35l-.22.24-.11,0s.06-.19.05-.29v-.18s.06-.23.07-.35a2.62,2.62,0,0,0,0-.79q-.1.67-.24,1.35c-.05.16-.08.65-.12,1l-.11,1.1c-.16,1.46-.31,2.94-.44,4.5-.3,3.06-.51,6.17-.84,9.29l-.9,9.36c-.28,3.13-.58,6.27-.94,9.4-1.28,12.53-2.86,25.1-4.66,37.66s-4,25.15-6.79,37.74l-2.12,0c-.43-25.14-1-50.27-1-75.41l0-18.86,0-9.44c0-1.57,0-3.15.07-4.74s.09-3.19.19-4.84a14.88,14.88,0,0,1,1.69-5.11c.37-.78.85-1.45,1.28-2.18l1.4-2c1.92-2.6,3.92-5,5.79-7.48a63.68,63.68,0,0,0,9.16-15.78c.5-1.42,1-2.85,1.41-4.26a12.44,12.44,0,0,0,.52-4,1.83,1.83,0,0,0-.34-1,1.22,1.22,0,0,0-.81-.28,11.08,11.08,0,0,0-3.82.74c-2.79.94-5.58,2.33-8.51,3.61-.75.32-1.49.64-2.3.93-.4.15-.83.29-1.28.42s-.91.22-1.32.29a10.43,10.43,0,0,1-2.9.22,6.71,6.71,0,0,1-3.11-1.12c-1.53-1-2.61-1.93-3.89-2.77s-2.55-1.62-3.86-2.38-2.69-1.44-4.07-2.13c-.68-.35-1.34-.58-2-.89a14.69,14.69,0,0,0-2.05-.73,24.74,24.74,0,0,0-17,.6,16.64,16.64,0,0,0-6.66,5,13.61,13.61,0,0,0-2.8,7.61,15.24,15.24,0,0,0,1.51,8.12,22.14,22.14,0,0,0,5.6,6.55c2.29,2,4.86,3.78,7.36,5.79.62.51,1.25,1,1.86,1.54l.92.8c.31.28.62.63.93.94s.62.63.9,1l.77,1.07a14.21,14.21,0,0,1,1.34,2.25,24.56,24.56,0,0,1,2.39,9.8,33.89,33.89,0,0,1-.06,4.94,36,36,0,0,1-.7,4.94l.05-.4-.19,49.32-.52,49.33Z" transform="translate(157.93 -1745.76)"/></svg>