<svg id="Слой_1" data-name="Слой 1" xmlns="http://www.w3.org/2000/svg" viewBox="0 0 634.21 634.21"><defs><style>.cls-1{fill:#fff;}</style></defs><title>легкие</title><circle class="cls-1" cx="317.11" cy="317.11" r="317.11"/><path d="M145.3,2544.3c.68,9.19,1.2,18.38,1.79,27.57s1,18.38,1.53,27.56,1,18.38,1.39,27.57l1.22,27.57.15,3.37-3.31,2.33-9.06,6.38q-4.53,3.21-9.1,6.32l-18.27,12.55-8.71,6-4.37-10.95-.39-1-.48-1.16c-.34-.78-.71-1.56-1.09-2.34-.76-1.55-1.6-3.07-2.49-4.53a45,45,0,0,0-6-7.87,28.87,28.87,0,0,0-6.94-5.36,18.5,18.5,0,0,0-7.37-2.23c-.63-.06-1.28-.07-1.93-.07-.32,0-.65,0-1,0l-.5,0-.25,0s-.11,0-.1,0h.06c.31,0,.25,0,0,.12s-.64.33-1.1.62a28.32,28.32,0,0,0-3.28,2.51c-1.17,1-2.38,2.21-3.58,3.45a145.45,145.45,0,0,0-13.69,17.3,421.58,421.58,0,0,0-23.79,39.69c-7.29,13.75-14,27.87-20,42.21S-7,2790.9-11.86,2805.6c-2.41,7.35-4.63,14.74-6.61,22.16s-3.79,14.85-5.24,22.29A224.72,224.72,0,0,0-27,2872.31c-.36,3.69-.57,7.35-.69,11l-.06,2.71v2.77c0,1.89,0,3.79.08,5.67a197.62,197.62,0,0,0,1.72,22.22q.76,5.41,1.9,10.66c.79,3.48,1.71,6.87,2.76,10.14.53,1.64,1.11,3.23,1.71,4.79l1,2.31.51,1.12.26.56.12.28.1.18a16,16,0,0,0,3.81,5,16.8,16.8,0,0,0,12.08,4,21,21,0,0,0,3.26-.49,17.16,17.16,0,0,0,3.11-1.1,15.82,15.82,0,0,0,2.87-1.7,8,8,0,0,0,.67-.52c.25-.21.36-.27.84-.7l2.44-2.11c3.28-2.79,6.69-5.5,10.33-8.09a95.63,95.63,0,0,1,11.81-7.29,51.67,51.67,0,0,1,15.13-5.27,33.92,33.92,0,0,1,4.77-.44,24.89,24.89,0,0,1,2.58.05l.6,0,.41,0,.81.08c2.17.2,4.3.45,6.36.72,4.13.52,8,1.13,11.45,1.46a35,35,0,0,0,8.73,0,21.42,21.42,0,0,0,7-2.47,36,36,0,0,0,3.67-2.41c1.23-1,2.48-2,3.72-3.12l.46-.42s.11-.1.08-.08l-.07.08a1,1,0,0,0-.12.16.57.57,0,0,0-.11.16s0,0,0,0a3.82,3.82,0,0,0,.54-.93,27.71,27.71,0,0,0,1.45-4,93.84,93.84,0,0,0,2.24-10.41c1.2-7.38,2-15.11,2.59-22.88s1-15.64,1.42-23.52c.78-15.77,1.17-31.64,1.35-47.53s.34-31.82.29-47.76l-.12-23.91c0-8-.06-16-.16-23.92l0-1.88,1.15-1,11.33-9.94,11.4-9.88,11.4-9.87,11.45-9.82,1.11,1.16L113,2717.88l.29-.75c1.14,15.93,2.07,31.87,2.89,47.81s1.48,31.9,1.88,47.86.63,31.94.43,47.92c-.1,8-.31,16-.71,24s-1,16-2,24a106.89,106.89,0,0,1-2.2,11.91,42.36,42.36,0,0,1-1.9,5.88,19.29,19.29,0,0,1-1.46,2.86,12.45,12.45,0,0,1-1,1.37c-.41.46-.77.8-1.13,1.15a54.22,54.22,0,0,1-9.58,7.64,34,34,0,0,1-11.56,4.47,47.42,47.42,0,0,1-12.29.39c-4-.31-8-.87-11.94-1.3-2-.22-3.94-.42-5.91-.57a21.44,21.44,0,0,0-2.84-.12,20,20,0,0,0-2.77.29,37.37,37.37,0,0,0-10.76,4,104.87,104.87,0,0,0-19.1,13.78l-2.22,2c-.74.65-1.54,1.39-2.37,2a30.67,30.67,0,0,1-5.29,3.35,31.88,31.88,0,0,1-12,3.33,32.28,32.28,0,0,1-23.3-7.48,31.65,31.65,0,0,1-7.71-9.83,87.05,87.05,0,0,1-4.62-11.26c-1.29-3.84-2.35-7.74-3.26-11.68s-1.59-7.9-2.17-11.89a215,215,0,0,1-2-24c-.1-4-.17-8-.06-12.06s.39-8.05.79-12.05c.78-8,2-15.94,3.61-23.81a373.84,373.84,0,0,1,12.68-46.34c5.14-15.16,11-30,17.53-44.67s13.6-29,21.34-43a383.42,383.42,0,0,1,25.56-40.65,154.1,154.1,0,0,1,15.55-18.46,49.2,49.2,0,0,1,9.61-7.63,15.47,15.47,0,0,1,6.15-2.13,30.91,30.91,0,0,1,6.24.21,30.23,30.23,0,0,1,11.7,4.12,38.71,38.71,0,0,1,9.37,8,56.41,56.41,0,0,1,6.9,10.08,64.29,64.29,0,0,1,4.82,11.23l-1.85-.7,37.57-23.44-.53,1,.34-110.27Z" transform="translate(157.93 -2467.57)"/><path d="M92.94,2691.59a41,41,0,0,1-1.76,7.62,58.52,58.52,0,0,1-2.62,6.6A59.87,59.87,0,0,1,81.64,2717a64.09,64.09,0,0,1-8.68,9.11,66.33,66.33,0,0,1-10.17,7.32L56.7,2737l-2.56-.43a59.44,59.44,0,0,1-6.89-1.58c-1.15-.33-2.29-.71-3.44-1.14l-1.73-.62-1.72-.72a53.4,53.4,0,0,1-6.89-3.52,41,41,0,0,1-6.89-5.06v-1.6l6.89-.28c2.3-.1,4.59-.16,6.89-.21l6.89-.15c2.3-.06,4.6,0,6.89-.08l-1,.36,9.52-8.1,9.63-8c3.2-2.67,6.49-5.23,9.73-7.85s6.58-5.13,9.87-7.69Z" transform="translate(157.93 -2467.57)"/><path d="M32.8,2736.09a44.47,44.47,0,0,1,4.6,7.39,60.67,60.67,0,0,1,3.15,7.39,68.91,68.91,0,0,1,2.17,7.4c.55,2.46,1,4.92,1.35,7.39l.41,3.19L40.73,2774a82.21,82.21,0,0,1-8.34,9.61,76,76,0,0,1-9.78,8.23,68,68,0,0,1-11.41,6.66A61.91,61.91,0,0,1,4.7,2801a43.32,43.32,0,0,1-7.32,1.78l-1-1c2.84-3.14,5.63-6.34,8.52-9.44s5.73-6.25,8.65-9.32l8.75-9.22c2.91-3.07,5.89-6.08,8.84-9.13l-.37.93,0-7.39.14-7.4c.05-2.46.09-4.92.19-7.39l.25-7.39Z" transform="translate(157.93 -2467.57)"/><path d="M101.43,2798.67a40,40,0,0,1-3.45,2.27c-1.14.68-2.29,1.3-3.44,1.9s-2.3,1.15-3.45,1.64-2.29,1-3.44,1.44l-2.63.95-5.13-6.82a84.75,84.75,0,0,1-7.17-11.21l-.78-1.43-.71-1.45-1.42-2.91c-.87-2-1.73-3.92-2.47-5.91a108.25,108.25,0,0,1-6.27-24.68l-1.46-11.13,6.47-3.24c2.57-1.29,5.14-2.57,7.86-3.65,1.32-.59,2.71-1.09,4.09-1.59s2.81-.95,4.23-1.4,2.92-.81,4.37-1.21,3-.71,4.55-1a54,54,0,0,1,9.78-1l.94,1.3-6.74,5.19c-2.23,1.75-4.49,3.46-6.77,5.15l-6.8,5.1c-2.26,1.71-4.56,3.37-6.84,5l.57-1.63,3.51,12.23c1.19,4.08,2.27,8.18,3.41,12.27l3.36,12.27,3.22,12.32-1.17-.89c2.29,0,4.59.13,6.89.2l6.89.22Z" transform="translate(157.93 -2467.57)"/><path d="M77.93,2898.43a98.5,98.5,0,0,1-10.85-9.89c-.85-.85-1.63-1.74-2.44-2.61s-1.61-1.75-2.37-2.64L60,2880.62l-2.21-2.72c-1.52-1.8-2.86-3.68-4.29-5.52s-2.7-3.75-4.05-5.63c-2.59-3.81-5.14-7.64-7.48-11.57l-1.1-1.85-.35-4.27c-.62-7.72-.79-15.44-.69-23.16a225.21,225.21,0,0,1,1.58-23.16,187.31,187.31,0,0,1,4.11-23.17c1-3.86,2-7.72,3.3-11.58a94.22,94.22,0,0,1,4.57-11.58h1.6c.15,7.72.37,15.44.45,23.16s.22,15.44.25,23.17l.09,23.16c0,7.72,0,15.44-.06,23.16l-.16-.68,6.07,12.28,6,12.32c2,4.11,4,8.21,5.94,12.35l5.86,12.38Z" transform="translate(157.93 -2467.57)"/><path d="M167.35,2673.55c3.79,3.32,7.45,6.73,11.17,10.11s7.31,6.85,11,10.27,7.32,6.85,10.88,10.37l10.74,10.48,1.79,1.74-.15,3.15c-.78,15.85-1.34,31.79-1.82,47.69s-.88,31.8-1,47.68-.1,31.75.35,47.54c.23,7.89.57,15.76,1.09,23.56s1.22,15.56,2.35,23a94.05,94.05,0,0,0,2.14,10.6,31.13,31.13,0,0,0,1.45,4.25,7.78,7.78,0,0,0,.63,1.18l.06.08s0,0,0-.06l-.07-.09-.05-.05s.06.06.09.09l.47.44a42.46,42.46,0,0,0,7.58,5.91,22,22,0,0,0,7.64,2.83,36.5,36.5,0,0,0,9.24.1c3.5-.32,7.42-.91,11.52-1.41,2-.26,4.16-.49,6.3-.68l.8-.07,1-.08c.81-.06,1.62-.09,2.4-.08a32.29,32.29,0,0,1,4.5.36,49.72,49.72,0,0,1,14.63,4.87,94.77,94.77,0,0,1,11.73,7c3.63,2.5,7.06,5.12,10.37,7.84l2.46,2c.48.41.62.5.88.71a7.23,7.23,0,0,0,.72.55,16.64,16.64,0,0,0,3.09,1.81,18,18,0,0,0,6.83,1.63,17.77,17.77,0,0,0,12.7-4.54,16.63,16.63,0,0,0,3.87-5.36l.1-.19.12-.28.25-.58.5-1.13.93-2.34c.59-1.59,1.15-3.2,1.65-4.86,1-3.31,1.88-6.73,2.65-10.21s1.33-7.08,1.81-10.71a201.05,201.05,0,0,0,1.55-22.26c.07-1.88,0-3.78.07-5.67V2888l-.07-2.71c-.12-3.63-.37-7.3-.75-11-.72-7.38-2-14.8-3.39-22.24s-3.23-14.88-5.23-22.29-4.27-14.79-6.65-22.15c-4.78-14.72-10.42-29.23-16.36-43.63s-12.62-28.53-19.84-42.33c-1.8-3.45-3.68-6.86-5.52-10.27s-3.73-6.82-5.65-10.18c-3.86-6.71-7.9-13.3-12.18-19.61a147.15,147.15,0,0,0-13.65-17.54c-1.21-1.27-2.4-2.51-3.59-3.59a30.67,30.67,0,0,0-3.37-2.73c-1-.69-1.88-1-1.61-1l0,0h-.11l-.26,0-.53,0-1.06-.06a20.58,20.58,0,0,0-2.08,0,20.15,20.15,0,0,0-8,2.24,29.2,29.2,0,0,0-7.45,5.64,53.14,53.14,0,0,0-6.33,8.14c-1,1.49-1.84,3.05-2.66,4.64-.42.8-.81,1.61-1.18,2.41l-.53,1.2-.45,1.07-3.46,8.26-6.33-4.53-18-12.9c-3-2.14-6-4.36-9-6.54l-8.94-6.57-1.75-1.28,0-1.79.62-27.57.71-27.57.72-27.56.78-27.57h1.6l.14,110.27-.44-.8L212,2679.13l-1.68.64a64,64,0,0,1,4.77-11.22,55.6,55.6,0,0,1,6.88-10.08,38.85,38.85,0,0,1,9.36-8,30.51,30.51,0,0,1,11.68-4.11,30.84,30.84,0,0,1,6.23-.21,15.48,15.48,0,0,1,6.12,2.12,48.83,48.83,0,0,1,9.61,7.63,153.91,153.91,0,0,1,15.55,18.44A382.86,382.86,0,0,1,306.09,2715q11.61,21,21.35,43c6.49,14.62,12.4,29.51,17.55,44.67A375.48,375.48,0,0,1,357.68,2849c3.14,15.71,4.95,31.86,4.26,47.93a214.67,214.67,0,0,1-2,24q-.87,6-2.18,11.89c-.91,3.93-2,7.83-3.26,11.67a86.35,86.35,0,0,1-4.62,11.25,31.5,31.5,0,0,1-7.69,9.8A32.22,32.22,0,0,1,319,2973a31.73,31.73,0,0,1-12-3.33,30.49,30.49,0,0,1-5.28-3.33c-.82-.62-1.61-1.35-2.36-2l-2.21-2a106,106,0,0,0-19.12-13.8,37.36,37.36,0,0,0-10.79-4,18.86,18.86,0,0,0-2.79-.29,23.13,23.13,0,0,0-2.84.11c-2,.16-3.94.36-5.92.58-3.94.44-7.9,1-11.94,1.31a46.76,46.76,0,0,1-12.26-.39,33.56,33.56,0,0,1-11.53-4.45,54.11,54.11,0,0,1-9.58-7.62c-.36-.35-.72-.69-1.13-1.15a13.57,13.57,0,0,1-1-1.35,18.66,18.66,0,0,1-1.45-2.85,42.73,42.73,0,0,1-1.91-5.87,106.47,106.47,0,0,1-2.2-11.91c-1.07-8-1.65-16-2.07-23.95s-.62-16-.72-24c-.21-16,0-31.95.39-47.92q1.24-47.9,4.59-95.68l.27.83-39-45.34Z" transform="translate(157.93 -2467.57)"/><path d="M226.46,2692.37a39.82,39.82,0,0,1,7.8.42,58.22,58.22,0,0,1,7,1.44,59.87,59.87,0,0,1,12.21,4.89,64.26,64.26,0,0,1,10.48,7,67.44,67.44,0,0,1,9,8.76l-8.65-3.15a59,59,0,0,1,6.89,1.58c1.15.33,2.3.7,3.45,1.13l1.72.62,1.72.73a53.94,53.94,0,0,1,6.89,3.51,42.17,42.17,0,0,1,6.9,5.07v1.6l-6.9.28c-2.29.1-4.59.16-6.89.21l-6.89.15c-2.3.06-4.59.05-6.89.07h-.54l-.44-.36-9.62-8-9.51-8.11c-3.19-2.69-6.27-5.49-9.42-8.23s-6.18-5.6-9.27-8.39Z" transform="translate(157.93 -2467.57)"/><path d="M280,2737.09a44.47,44.47,0,0,1,4.6,7.39,60.67,60.67,0,0,1,3.15,7.39,68.91,68.91,0,0,1,2.17,7.4c.55,2.46,1,4.92,1.35,7.39l-3.34-8.3a83.31,83.31,0,0,1,9.28,8.72,76.71,76.71,0,0,1,7.82,10.11,68.46,68.46,0,0,1,6.21,11.66,64.16,64.16,0,0,1,2.3,6.61,44.81,44.81,0,0,1,1.49,7.38l-1,1c-3-3-6.1-5.88-9.09-8.89s-6-6-9-9l-8.86-9.11c-3-3-5.84-6.14-8.77-9.2l-.38-.4v-.53l.05-7.39.14-7.4c.05-2.46.09-4.92.19-7.39l.25-7.39Z" transform="translate(157.93 -2467.57)"/><path d="M223.94,2797.07a40.21,40.21,0,0,1,3.45-2.28c1.15-.68,2.3-1.3,3.44-1.9s2.3-1.14,3.45-1.64,2.3-1,3.45-1.44l-7.76,5.88a86.15,86.15,0,0,1-.28-13.3l.08-1.63.15-1.61.31-3.22c.27-2.13.57-4.25,1-6.34a108.76,108.76,0,0,1,7.51-24.33l5,14.37c-2-2-4-4.07-5.93-6.3-1-1.08-1.89-2.24-2.8-3.4s-1.79-2.36-2.66-3.57-1.68-2.51-2.52-3.76-1.61-2.62-2.34-4a53.57,53.57,0,0,1-4-9l.94-1.3,7.05,4.76c2.36,1.58,4.69,3.18,7,4.81l7,4.86c2.34,1.6,4.63,3.27,6.94,4.91l.85.6-.28,1-3.37,12.27c-1.11,4.1-2.33,8.16-3.49,12.24L242.57,2786l-3.67,12.19-.27.9h-.9c-2.3,0-4.6-.14-6.9-.2l-6.89-.22Z" transform="translate(157.93 -2467.57)"/><path d="M239,2899.71a98.32,98.32,0,0,1,1.4-14.61c.17-1.2.41-2.35.62-3.52s.43-2.34.69-3.48l.75-3.46.85-3.4c.53-2.29,1.22-4.5,1.84-6.74s1.38-4.41,2.07-6.62c1.5-4.36,3-8.7,4.77-12.93l-1.44,6.11c-.63-7.72-.8-15.44-.69-23.16a225.19,225.19,0,0,1,1.57-23.16,191.12,191.12,0,0,1,4.11-23.17c1-3.86,2-7.72,3.3-11.58a94.3,94.3,0,0,1,4.58-11.58H265c.14,7.72.36,15.44.45,23.16s.22,15.44.24,23.17l.09,23.16c0,7.72,0,15.44-.06,23.16v.37l-.16.31L259.41,2864l-6.27,12.18c-2.09,4.06-4.17,8.12-6.31,12.16l-6.39,12.12Z" transform="translate(157.93 -2467.57)"/></svg>